<ttFont>
          <CharString index="0">
            rmoveto
            -77 callsubr
            38 -152 rlineto
            -23 callsubr
            27 hlineto
            27 12 7 11 5 -1 4 -2 6 hvcurveto
            -173 649 rlineto
            15 -3 -15 7 -28 hhcurveto
            -42 hlineto
            -26 -15 -7 -15 -5 hvcurveto
            -173 -649 rlineto
            -1 -6 -1 -4 -5 vvcurveto
            -11 12 -7 28 vhcurveto
            125 259 rmoveto
            return
          </CharString>
          <CharString index="1">
            rmoveto
            -106 callgsubr
            return
          </CharString>
          <CharString index="2">
            rmoveto
            13 hlineto
            21 14 5 16 10 hvcurveto
            55 91 rlineto
            4 7 3 6 4 vvcurveto
            9 -7 5 -13 vhcurveto
            -22 hlineto
            -15 -11 -5 -11 -6 hvcurveto
            -40 -64 -39 64 rlineto
            11 -7 -11 5 -15 hhcurveto
            -21 hlineto
            -13 -7 -5 -8 -4 4 -8 3 -6 hvcurveto
            54 -91 rlineto
            -16 10 15 -5 21 hhcurveto
            return
          </CharString>
          <CharString index="3">
            290 hlineto
            6 callgsubr
            -211 220 189 hlineto
            15 7 11 25 hvcurveto
            20 30 callgsubr
            -189 204 211 hlineto
            15 7 11 25 hvcurveto
            20 30 callgsubr
            -290 hlineto
            -21 -9 -10 -23 hvcurveto
            -634 vlineto
            19 callgsubr
            return
          </CharString>
          <CharString index="4">
            70 callsubr
            232 hlineto
            13 26 33 13 170 -57 94 -122 -127 -73 -86 -186 -177 69 -88 145 hvcurveto
            -107 304 rmoveto
            105 5 30 45 56 hhcurveto
            53 25 -48 -102 hvcurveto
            return
          </CharString>
          <CharString index="5">
            rmoveto
            -103 callgsubr
          </CharString>
          <CharString index="6">
            rmoveto
            70 50 44 69 14 -10 6 -14 -14 -3 -8 -14 -6 hvcurveto
            -23 -9 -20 -15 -44 hhcurveto
            -43 -20 14 23 -10 hvcurveto
            15 -7 -3 8 -14 hhcurveto
            -15 -9 -6 -14 -69 50 -44 71 hvcurveto
            return
          </CharString>
          <CharString index="7">
            rmoveto
            71 callgsubr
            -245 91 -113 162 hvcurveto
            1 92 rmoveto
            -93 -49 78 188 189 49 74 93 92 50 -74 -189 -188 -50 -78 -92 hvcurveto
            return
          </CharString>
          <CharString index="8">
            rmoveto
            -17 hlineto
            -22 -17 -4 -13 -3 hvcurveto
            -63 -252 -6 -27 -6 -34 -6 -29 rlinecurve
            -5 hlineto
            -6 30 -6 32 -7 28 -63 251 rcurveline
            14 -3 -16 4 -21 hhcurveto
            -23 hlineto
            -29 -13 -7 -12 -4 2 -6 2 -9 hvcurveto
            127 -415 4 -12 8 -3 9 -1 rlinecurve
            -69 -229 rlineto
            -3 -11 0 -3 -3 vvcurveto
            -11 12 -6 27 vhcurveto
            20 hlineto
            23 17 5 16 5 hvcurveto
            188 675 rlineto
            2 9 1 4 149 callsubr
            7 -30 vhcurveto
            return
          </CharString>
          <CharString index="9">
            88 callgsubr
            -173 68 -94 128 hvcurveto
            -1 85 rmoveto
            -62 -26 56 127 128 26 56 62 62 28 -56 -128 -127 -28 -56 -62 hvcurveto
            return
          </CharString>
          <CharString index="10">
            -69 callgsubr
            -360 vlineto
            -36 -19 -30 -23 -33 hhcurveto
            -42 -22 28 50 hvcurveto
            341 -56 callsubr
            -352 vlineto
            -97 39 -59 87 vhcurveto
            53 1 44 29 28 47 rrcurveto
            -36 vlineto
            -110 -38 -50 -70 vhcurveto
            -76 -45 43 -11 hhcurveto
            -9 -4 -19 -21 -9 2 -12 3 -11 hvcurveto
            -27 10 65 -29 79 hhcurveto
            135 59 84 201 -1 hvcurveto
            return
          </CharString>
          <CharString index="11">
            hlineto
            -30 -16 callsubr
            -478 vlineto
            -66 -48 -48 -71 -71 -49 47 67 vhcurveto
            478 -61 callgsubr
            -479 vlineto
            return
          </CharString>
          <CharString index="12">
            298 hlineto
            15 28 callsubr
            -15 vhcurveto
            -192 hlineto
            209 367 rlineto
            1 3 1 3 6 vvcurveto
            21 -12 38 -8 vhcurveto
            -283 hlineto
            -15 -7 -11 -37 callgsubr
            15 vhcurveto
            176 hlineto
            -210 -368 rlineto
            -1 -3 -1 -4 -5 vvcurveto
            -22 13 -36 9 vhcurveto
            return
          </CharString>
          <CharString index="13">
            582 -106 callsubr
            return
          </CharString>
          <CharString index="14">
            rmoveto
            47 hlineto
            21 15 5 12 3 hvcurveto
            82 402 15 120 15 -120 82 -402 rlineto
            -12 2 15 -5 21 hhcurveto
            48 hlineto
            22 15 5 12 2 hvcurveto
            138 653 rlineto
            1 5 1 5 3 vvcurveto
            13 -13 8 -33 vhcurveto
            -14 hlineto
            -27 -18 -6 -14 -2 hvcurveto
            -77 -450 -8 -49 -4 -31 -8 -44 rlinecurve
            -4 33 -6 50 -8 41 -84 452 rcurveline
            14 -3 -14 4 -22 hhcurveto
            -29 hlineto
            -23 -13 -4 -14 -3 hvcurveto
            -84 -450 -21 -125 -5 36 -3 40 -8 47 rlinecurve
            -79 450 rlineto
            14 -3 -16 6 -28 hhcurveto
            -17 hlineto
            -33 -13 -8 -13 -3 1 -5 1 -5 hvcurveto
            136 -653 rlineto
            -12 3 14 -5 23 hhcurveto
            endchar
          </CharString>
          <CharString index="15">
            17 callsubr
            6 143 callgsubr
            6 12 -4 15 hhcurveto
            21 hlineto
            12 8 -30 callsubr
            117 callgsubr
            -20 -17 -5 -16 -9 hvcurveto
            -50 -92 rlineto
            -3 -6 -2 122 callsubr
            6 -5 14 vhcurveto
            return
          </CharString>
          <CharString index="16">
            -85 callgsubr
            endchar
          </CharString>
          <CharString index="17">
            63 256 5 20 3 24 4 21 rlinecurve
            5 hlineto
            3 -21 3 -24 5 -20 64 -256 rcurveline
            return
          </CharString>
          <CharString index="18">
            -89 callgsubr
            endchar
          </CharString>
          <CharString index="19">
            rmoveto
            19 hlineto
            38 callgsubr
            270 52 vlineto
            51 21 -18 -63 20 hvcurveto
            58 -195 rlineto
            -12 4 17 -7 23 hhcurveto
            22 hlineto
            32 14 7 12 3 -2 5 -1 6 hvcurveto
            -62 195 -19 59 -20 44 -30 15 rlinecurve
            4 vlineto
            55 29 38 53 87 vvcurveto
            133 -73 50 -124 vhcurveto
            -154 hlineto
            -21 -10 45 callsubr
            32 vhcurveto
            63 391 rmoveto
            219 83 vlineto
            49 33 -32 -74 -65 -35 -48 -42 hvcurveto
            return
          </CharString>
          <CharString index="20">
            rmoveto
            -19 callgsubr
            477 -57 callsubr
            -33 vhcurveto
            -10 hlineto
            -32 -16 callsubr
            -477 48 callgsubr
            return
          </CharString>
          <CharString index="21">
            rmoveto
            45 40 11 9 20 hvcurveto
            22 9 4 13 13 vvcurveto
            30 -13 43 -28 -12 vhcurveto
            -11 -21 -27 -10 -38 hhcurveto
            -106 -48 85 178 179 49 82 105 35 26 -9 -9 19 hvcurveto
            24 -12 11 53 1 22 rrcurveto
            17 -5 10 -16 6 vhcurveto
            9 -23 -37 8 -37 hhcurveto
            -179 -85 -116 -240 -245 81 -113 181 hvcurveto
            endchar
          </CharString>
          <CharString index="22">
            rmoveto
            23 hlineto
            30 13 64 callsubr
            -13 27 callsubr
            return
          </CharString>
          <CharString index="23">
            rmoveto
            52 64 30 111 hvcurveto
            571 -57 callsubr
            -33 vhcurveto
            -10 hlineto
            -32 -16 callsubr
            -566 vlineto
            -48 -15 -13 -19 vhcurveto
            -20 -8 5 -6 hhcurveto
            -16 -8 -42 -12 -30 41 -6 37 hvcurveto
            endchar
          </CharString>
          <CharString index="24">
            582 -101 callsubr
            return
          </CharString>
          <CharString index="25">
            rmoveto
            30 14 8 12 6 hvcurveto
            43 81 14 27 9 vvcurveto
            10 -13 4 -31 -29 -29 -5 -22 -6 vhcurveto
            -21 -80 -6 -23 -9 vvcurveto
            -9 6 -3 22 vhcurveto
            return
          </CharString>
          <CharString index="26">
            -34 6 0 -34 28 hhcurveto
            14 60 5 20 hvcurveto
            9 -10 35 87 vvcurveto
            343 -12 callgsubr
            -30 -13 -8 -17 hvcurveto
            return
          </CharString>
          <CharString index="27">
            599 -105 callgsubr
            return
          </CharString>
          <CharString index="28">
            rmoveto
            -153 36 callgsubr
            -20 0 callsubr
            76 -201 hlineto
            -6 -21 -25 -4 -30 hhcurveto
            -108 -40 107 158 167 43 92 114 hvcurveto
            73 35 -36 11 hhcurveto
            17 26 47 20 29 -85 36 -81 -176 -89 -115 -246 -240 87 -113 171 79 106 21 54 hvcurveto
            289 vlineto
            23 -10 10 -20 vhcurveto
            return
          </CharString>
          <CharString index="29">
            -22 -10 vvcurveto
            -9 6 -3 18 vhcurveto
            return
          </CharString>
          <CharString index="30">
            26 hlineto
            20 17 4 13 3 hvcurveto
            37 152 54 callgsubr
            return
          </CharString>
          <CharString index="31">
            -71 callgsubr
            hintmask 11101100
            -102 callgsubr
            hintmask 11011100
            -90 callgsubr
            return
          </CharString>
          <CharString index="32">
            30 -21 47 -24 -4 -4 -1 -3 -5 vhcurveto
            -26 -18 rlineto
            -7 -4 -3 -7 -6 vvcurveto
            1 -12 26 -20 -28 vvcurveto
            -16 return
          </CharString>
          <CharString index="33">
            -35 -63 callgsubr
            145 83 76 129 vhcurveto
            471 vlineto
            return
          </CharString>
          <CharString index="34">
            9 16 hvcurveto
            return
          </CharString>
          <CharString index="35">
            11 -43 callgsubr
            return
          </CharString>
          <CharString index="36">
            -35 -63 callsubr
            19 callsubr
            vhcurveto
            return
          </CharString>
          <CharString index="37">
            13 -73 callsubr
            return
          </CharString>
          <CharString index="38">
            rmoveto
            11 hlineto
            38 callgsubr
            351 vlineto
            19 7 30 39 36 27 9 -10 12 hhcurveto
            14 8 45 19 22 -14 22 -38 -40 -32 -31 -45 -26 hvcurveto
            26 -6 -4 42 -26 hhcurveto
            -17 -54 -5 -21 hvcurveto
            -9 12 -34 -87 vvcurveto
            -343 48 callgsubr
            return
          </CharString>
          <CharString index="39">
            vlineto
            96 -44 56 -80 -54 -45 -31 -45 -29 vhcurveto
            33 -6 0 35 -28 hhcurveto
            -14 -60 -6 -20 hvcurveto
            -9 10 29 callsubr
            return
          </CharString>
          <CharString index="40">
            -13 -66 callgsubr
            return
          </CharString>
          <CharString index="41">
            -25 52 11 -36 vvcurveto
            -18 -16 -8 -15 vhcurveto
            -30 -22 21 -16 hhcurveto
            -9 -14 -15 -16 -27 54 -19 44 53 45 21 64 53 -41 15 -30 2 hvcurveto
            return
          </CharString>
          <CharString index="42">
            -752 -102 callsubr
          </CharString>
          <CharString index="43">
            rmoveto
            -27 callgsubr
            hvcurveto
            hintmask 10111000
            88 -18 68 -35 46 vhcurveto
            hintmask 10110100
            61 6 29 35 49 vvcurveto
            -75 callsubr
            -10 -17 -27 -14 -12 4 6 -12 vhcurveto
            hintmask 11011000
            15 -27 -28 8 -35 hhcurveto
            14 callsubr
          </CharString>
          <CharString index="44">
            -6 callgsubr
            -94 callgsubr
            return
          </CharString>
          <CharString index="45">
            270 hlineto
            16 7 -72 callsubr
            -7 11 -16 vhcurveto
            -191 585 hlineto
            -32 callgsubr
            return
          </CharString>
          <CharString index="46">
            12 -8 43 -16 vhcurveto
            -6 -7 -5 -16 hhcurveto
            -19 -14 11 39 hvcurveto
            600 vlineto
            16 -14 57 callsubr
            -67 callsubr
            -605 vlineto
            return
          </CharString>
          <CharString index="47">
            vlineto
            84 callsubr
            return
          </CharString>
          <CharString index="48">
            rmoveto
            126 51 83 128 hvcurveto
            473 vlineto
            16 -14 9 -30 61 callgsubr
            -473 vlineto
            -81 -23 -36 -59 vhcurveto
            -26 -19 8 -9 hhcurveto
            -16 -12 -46 -20 -23 55 -13 42 hvcurveto
            endchar
          </CharString>
          <CharString index="49">
            -32 5 4 -36 26 hhcurveto
            15 59 6 19 hvcurveto
            11 -11 33 88 vvcurveto
            572 vlineto
            16 -14 9 -30 41 callgsubr
            -243 vlineto
            25 -23 -30 20 -46 hhcurveto
            -100 -65 -96 -170 hvcurveto
            return
          </CharString>
          <CharString index="50">
            vlineto
            -23 callgsubr
            return
          </CharString>
          <CharString index="51">
            vlineto
            -69 callgsubr
            return
          </CharString>
          <CharString index="52">
            -143 rmoveto
            20 hlineto
            14 12 1 14 7 143 callgsubr
            5 144 callsubr
            8 5 8 5 -3 6 -4 6 hvcurveto
            -50 92 rlineto
            16 -8 -15 5 -22 63 callsubr
            -9 hvcurveto
            -50 -92 rlineto
            -3 -6 -2 122 callsubr
            6 -5 14 vhcurveto
            57 -582 18 callgsubr
            hintmask 01111110
            -104 callgsubr
            hintmask 10111110
            -59 callgsubr
          </CharString>
          <CharString index="53">
            6 hvcurveto
            -50 92 rlineto
            16 -9 -15 5 -21 63 callsubr
            -10 hvcurveto
            -50 -92 rlineto
            -2 -6 -3 122 callsubr
            7 -5 13 vhcurveto
            return
          </CharString>
          <CharString index="54">
            48 16 9 22 vhcurveto
            18 8 -6 8 hhcurveto
            16 9 47 8 26 -47 10 -30 -57 -65 -27 -110 hvcurveto
            -97 -24 vlineto
            -48 callgsubr
            24 return
          </CharString>
          <CharString index="55">
            hlineto
            -40 callgsubr
            return
          </CharString>
          <CharString index="56">
            rmoveto
            60 50 25 34 31 hvcurveto
            -39 34 51 -20 67 hhcurveto
            79 75 36 30 15 -24 43 -16 hvcurveto
            -10 -33 -39 -68 hhcurveto
            -67 -33 44 104 -4 hvcurveto
            228 hlineto
            13 26 32 14 167 -57 91 -121 -49 -41 -14 -27 -31 hvcurveto
            26 -28 -45 15 -54 hhcurveto
            -84 -77 -32 -29 -14 23 -43 16 hvcurveto
            13 39 33 66 hhcurveto
            42 23 -20 -28 9 hvcurveto
            -8 -21 -5 -22 -3 -26 rrcurveto
            -141 -3 -96 -52 -123 vvcurveto
            -100 59 -57 91 vhcurveto
            191 312 rmoveto
            98 5 30 42 53 hhcurveto
            50 25 -45 -95 hvcurveto
            hintmask 01111110
            -339 -222 rmoveto
            -41 -20 26 45 71 59 21 70 2 hvcurveto
            1 -48 6 -42 12 -34 rrcurveto
            -27 -22 -30 -14 -35 hhcurveto
            endchar
          </CharString>
          <CharString index="57">
            rmoveto
            202 hlineto
            9 4 6 15 hvcurveto
            7 vlineto
            15 -4 6 -9 vhcurveto
            -139 hlineto
            84 125 rlineto
            53 70 14 25 40 vvcurveto
            61 -46 39 -69 -44 -59 -20 -26 -11 13 -22 10 vhcurveto
            9 21 29 45 hhcurveto
            36 23 -19 -34 -23 -7 -16 -24 -35 hvcurveto
            -133 -190 rlineto
            -2 -2 0 -3 -4 vvcurveto
            -13 5 -20 8 vhcurveto
            return
          </CharString>
          <CharString index="58">
            -38 callsubr
            65 callsubr
            return
          </CharString>
          <CharString index="59">
            152 752 -107 callgsubr
            -50 -752 rmoveto
            -104 callsubr
            return
          </CharString>
          <CharString index="60">
            rmoveto
            32 46 rlineto
            4 7 2 4 5 vvcurveto
            12 -23 14 -10 -6 -5 -3 -6 -5 vhcurveto
            -25 -36 rlineto
            27 -30 -40 14 -49 108 callgsubr
            -74 12 -60 25 -44 hvcurveto
            -34 -49 rlineto
            -5 -7 -2 -3 -5 vvcurveto
            -13 22 -14 11 6 5 2 7 4 vhcurveto
            26 38 rlineto
            -30 32 42 -15 52 hhcurveto
            -27 callgsubr
            78 -14 63 -26 45 hvcurveto
            -244 -185 rmoveto
            128 26 56 62 29 21 -12 -25 15 vhcurveto
            -149 -218 rlineto
            -3 21 -1 23 27 vvcurveto
            88 -183 rmoveto
            -31 -22 14 30 -14 hvcurveto
            152 220 rlineto
            3 -23 2 -27 -31 vvcurveto
            -127 -28 -56 -62 vhcurveto
            endchar
          </CharString>
          <CharString index="61">
            hmoveto
            -91 callgsubr
            return
          </CharString>
          <CharString index="62">
            -143 17 callsubr
            7 25 callgsubr
            -2 6 -4 -54 callsubr
            121 -42 callgsubr
          </CharString>
          <CharString index="63">
            hhcurveto
            -24 -54 callgsubr
            return
          </CharString>
          <CharString index="64">
            76 105 76 vstem
            172 378 rmoveto
            59 69 28 135 137 -68 29 -60 -61 -67 -29 -137 -135 69 -28 59 hvcurveto
            9 -384 rmoveto
            21 hlineto
            17 12 7 15 7 hvcurveto
            289 665 rlineto
            1 5 2 3 4 vvcurveto
            7 -7 5 -13 vhcurveto
            -21 hlineto
            -17 -12 -6 -16 -6 hvcurveto
            -289 -662 rlineto
            -4 -8 -1 -3 -3 vvcurveto
            -7 8 -6 13 vhcurveto
            -8 448 rmoveto
            -46 -7 49 50 49 6 53 47 46 6 -53 -49 -50 -7 -49 -45 hvcurveto
            342 -448 rmoveto
            59 70 28 135 136 -70 29 -59 -61 -67 -29 -136 -135 69 -28 59 hvcurveto
            return
          </CharString>
          <CharString index="65">
            -28 -3 callsubr
            return
          </CharString>
          <CharString index="66">
            17 -52 callsubr
            360 vlineto
            21 8 29 38 43 hhcurveto
            43 19 -29 -50 hvcurveto
            -340 -21 callgsubr
            130 callsubr
            12 137 callgsubr
            106 -55 46 -68 return
          </CharString>
          <CharString index="67">
            rmoveto
            21 hlineto
            18 8 5 10 8 hvcurveto
            32 52 34 -53 rlineto
            -9 8 9 -5 16 46 callgsubr
            3 -2 8 -5 8 hvcurveto
            -48 68 rlineto
            14 -10 -13 7 -23 44 callsubr
            -47 -68 rlineto
            -4 -8 -4 -8 -3 vvcurveto
            -9 7 -4 13 vhcurveto
            return
          </CharString>
          <CharString index="68">
            128 -80 callsubr
            -6 -26 callsubr
            return
          </CharString>
          <CharString index="69">
            vvcurveto
            -26 9 -64 84 23 22 5 12 19 vhcurveto
            9 6 5 10 12 vvcurveto
            return
          </CharString>
          <CharString index="70">
            164 90 113 245 return
          </CharString>
          <CharString index="71">
            -186 -21 200 88 -61 -21 526 -20 hstemhm
            57 104 132 104 hintmask 10111100
            397 156 rmoveto
            344 -6 callsubr
            -17 -87 callgsubr
            hintmask 11011100
            -353 vlineto
            -37 -15 -26 -29 -33 hhcurveto
            -40 -18 32 54 hvcurveto
            333 vlineto
            16 -12 9 -31 vhcurveto
            -17 -87 callgsubr
            -683 vlineto
            -16 13 -8 130 callsubr
            12 8 16 hvcurveto
            178 vlineto
            -1 5 6 -1 5 hhcurveto
            50 46 31 45 26 hvcurveto
            hintmask 10111100
            -28 5 1 -42 25 hhcurveto
            17 59 5 21 hvcurveto
            9 -9 34 88 vvcurveto
            endchar
          </CharString>
          <CharString index="72">
            -245 91 -113 162 return
          </CharString>
          <CharString index="73">
            68 0 92 220 91 205 92 106 callsubr
            276 700 rmoveto
            -174 hlineto
            -21 -9 -10 -23 hvcurveto
            -264 -41 vlineto
            38 callsubr
            -20 vlineto
            -25 95 callsubr
            41 -279 hlineto
            19 callgsubr
            174 hlineto
            156 96 98 252 251 -96 99 -156 hvcurveto
            -3 -608 rmoveto
            -91 220 63 hlineto
            16 6 10 25 hvcurveto
            20 85 callgsubr
            vhcurveto
            -63 205 91 hlineto
            87 56 -70 -188 -189 -56 -69 -87 hvcurveto
            endchar
          </CharString>
          <CharString index="74">
            4 2 4 3 vvcurveto
            6 -5 2 -10 vhcurveto
            -13 hlineto
            -14 -12 -5 -14 -6 hvcurveto
            -298 -665 rlineto
            -2 -4 -3 -5 -2 vvcurveto
            return
          </CharString>
          <CharString index="75">
            vstem
            -64 callgsubr
            return
          </CharString>
          <CharString index="76">
            202 -6 -95 callgsubr
            return
          </CharString>
          <CharString index="77">
            5 8 5 -3 6 -3 6 hvcurveto
            -50 92 rlineto
            16 -9 -15 5 return
          </CharString>
          <CharString index="78">
            3 -393 rmoveto
            -48 -53 12 56 35 20 24 27 15 hvcurveto
            66 -19 88 12 -68 vvcurveto
            -44 -32 -23 -68 vhcurveto
            endchar
          </CharString>
          <CharString index="79">
            360 vlineto
            34 18 29 25 33 hhcurveto
            43 18 -28 -51 hvcurveto
            return
          </CharString>
          <CharString index="80">
            426 30 rmoveto
            -141 244 130 216 rlineto
            5 9 3 6 6 vvcurveto
            8 -12 6 -27 vhcurveto
            -29 hlineto
            -21 -14 -2 -13 -7 hvcurveto
            -128 -220 rlineto
            -5 438 hlineto
            -23 callgsubr
            -30 vhcurveto
            -17 -87 callgsubr
            -705 vlineto
            -16 13 -3 callgsubr
            232 8 vlineto
            136 -242 rlineto
            -14 8 6 -1 22 hhcurveto
            30 hlineto
            30 13 4 11 4 -2 4 -5 9 hvcurveto
            return
          </CharString>
          <CharString index="81">
            -601 -87 callsubr
            return
          </CharString>
          <CharString index="82">
            85 142 77 150 83 return
          </CharString>
          <CharString index="83">
            vlineto
            -25 7 -11 return
          </CharString>
          <CharString index="84">
            -13 3 16 -4 22 hhcurveto
            return
          </CharString>
          <CharString index="85">
            56 40 28 35 27 hvcurveto
            return
          </CharString>
          <CharString index="86">
            -1 rmoveto
            15 hlineto
            16 6 5 9 hvcurveto
            80 28 vlineto
            9 4 6 15 hvcurveto
            7 vlineto
            15 -4 6 -9 vhcurveto
            -28 251 hlineto
            9 -6 5 -16 vhcurveto
            -17 hlineto
            -11 -9 -2 -7 -5 hvcurveto
            -146 -262 rlineto
            -1 -2 0 -2 -3 vvcurveto
            -12 9 -24 6 vhcurveto
            137 -80 hlineto
            -9 7 -5 15 vhcurveto
            -114 143 rmoveto
            95 173 3 -1 rlineto
            -4 -22 -2 -20 -31 vvcurveto
            -99 vlineto
            endchar
          </CharString>
          <CharString index="87">
            46 112 284 111 return
          </CharString>
          <CharString index="88">
            -14 4 -7 10 vhcurveto
            22 hlineto
            48 30 -19 -52 -57 -40 -18 -32 hvcurveto
            -42 -24 22 -9 hhcurveto
            -8 -15 -22 -11 -22 57 -16 51 hvcurveto
            return
          </CharString>
          <CharString index="89">
            -16 14 -9 32 vhcurveto
            return
          </CharString>
          <CharString index="90">
            88 -61 -21 257 77 112 85 return
          </CharString>
          <CharString index="91">
            -14 -66 callgsubr
            return
          </CharString>
          <CharString index="92">
            25 50 62 83 20 -15 13 -28 hvcurveto
            -12 hlineto
            -29 -14 -14 -21 hvcurveto
            -61 -10 -36 -29 vvcurveto
            return
          </CharString>
          <CharString index="93">
            109 vstem
            116 -2 rmoveto
            -13 callsubr
            654 128 callgsubr
            -32 51 callgsubr
            -272 -237 272 vlineto
            16 -12 27 callsubr
            return
          </CharString>
          <CharString index="94">
            23 hlineto
            30 118 callsubr
            289 237 -289 vlineto
            -16 12 -9 32 62 callsubr
            return
          </CharString>
          <CharString index="95">
            -129 83 -76 146 return
          </CharString>
          <CharString index="96">
            26 callsubr
            148 hmoveto
            -53 callgsubr
            endchar
          </CharString>
          <CharString index="97">
            rmoveto
            -37 -15 -10 -15 hvcurveto
            138 callsubr
            36 16 9 16 vhcurveto
            140 callsubr
            vhcurveto
            endchar
          </CharString>
          <CharString index="98">
            -8 -14 -6 -14 hhcurveto
            -22 -27 5 38 return
          </CharString>
          <CharString index="99">
            -52 0 callgsubr
            return
          </CharString>
          <CharString index="100">
            10 15 32 hhcurveto
            17 15 -9 -16 -14 -11 -10 -20 -10 hvcurveto
            -14 -8 -9 -5 -7 vvcurveto
            -10 16 -11 23 vhcurveto
            return
          </CharString>
          <CharString index="101">
            23 callsubr
            vhcurveto
            return
          </CharString>
          <CharString index="102">
            vstem
            206 752 -107 callgsubr
            return
          </CharString>
          <CharString index="103">
            54 vstem
            296 -6 rmoveto
            159 127 127 232 231 -127 125 -159 -159 -128 -125 -231 -232 128 -127 159 hvcurveto
            53 vmoveto
            -127 -105 105 201 202 105 102 127 127 105 -102 -202 -201 -105 -105 -127 hvcurveto
            return
          </CharString>
          <CharString index="104">
            -7 -17 callsubr
            return
          </CharString>
          <CharString index="105">
            -98 -92 callsubr
            return
          </CharString>
          <CharString index="106">
            4 -17 -17 3 -18 hhcurveto
            -108 -62 -67 -107 -70 26 -52 48 -28 hvcurveto
            return
          </CharString>
          <CharString index="107">
            -24 callsubr
            15 vhcurveto
            return
          </CharString>
          <CharString index="108">
            -69 callsubr
            endchar
          </CharString>
          <CharString index="109">
            10 7 hvcurveto
            return
          </CharString>
          <CharString index="110">
            123 callsubr
            -37 -80 -14 -22 -10 vvcurveto
            -9 6 -3 return
          </CharString>
          <CharString index="111">
            hhcurveto
            -35 -26 -22 -47 -16 hvcurveto
            -2 -5 -1 -5 -4 vvcurveto
            -6 3 -6 9 -4 vhcurveto
            return
          </CharString>
          <CharString index="112">
            16 6 10 25 hvcurveto
            17 vlineto
            25 -6 10 -16 vhcurveto
            -111 171 hlineto
            16 -12 9 -26 vhcurveto
            -10 hlineto
            -27 -10 -66 callgsubr
            -171 -113 vlineto
            -15 -7 -10 -25 hvcurveto
            -17 vlineto
            -25 95 callsubr
            113 return
          </CharString>
          <CharString index="113">
            53 callsubr
            13 85 callgsubr
            vhcurveto
            return
          </CharString>
          <CharString index="114">
            -41 callgsubr
            -35 callsubr
            return
          </CharString>
          <CharString index="115">
            1 421 rlineto
            14 -2 -10 8 -25 hhcurveto
            -66 -336 rmoveto
            return
          </CharString>
          <CharString index="116">
            89 callsubr
            -14 -12 -13 -18 -18 12 -13 14 hvcurveto
            return
          </CharString>
          <CharString index="117">
            123 callgsubr
            8 5 8 3 -3 8 -5 8 hvcurveto
            -47 68 rlineto
            14 -10 -14 7 -23 44 callsubr
            -46 -68 rlineto
            -5 -8 -3 -8 -3 vvcurveto
            -9 6 -4 14 vhcurveto
            return
          </CharString>
          <CharString index="118">
            560 rmoveto
            -68 callgsubr
            return
          </CharString>
          <CharString index="119">
            -8 88 -59 -21 524 -20 return
          </CharString>
          <CharString index="120">
            15 -52 callsubr
            return
          </CharString>
          <CharString index="121">
            -127 -69 -97 -173 -173 68 -94 128 hvcurveto
            50 callgsubr
          </CharString>
          <CharString index="122">
            -38 -212 85 128 87 356 86 -5 -20 return
          </CharString>
          <CharString index="123">
            -11 -8 85 133 87 405 -20 return
          </CharString>
          <CharString index="124">
            118 callgsubr
            13 1 14 return
          </CharString>
          <CharString index="125">
            rmoveto
            19 callsubr
            hvcurveto
            return
          </CharString>
          <CharString index="126">
            53 44 31 45 29 return
          </CharString>
          <CharString index="127">
            290 -93 callgsubr
            return
          </CharString>
          <CharString index="128">
            -5 callgsubr
            -87 35 62 callgsubr
            -41 66 hintmask 11011000
            return
          </CharString>
          <CharString index="129">
            -7 50 callsubr
            return
          </CharString>
          <CharString index="130">
            -57 callsubr
            -30 return
          </CharString>
          <CharString index="131">
            6 10 12 29 hhcurveto
            19 16 -8 -17 hvcurveto
            -44 -63 -18 -25 vvcurveto
            -9 26 -10 13 return
          </CharString>
          <CharString index="132">
            107 -2 104 -83 -21 389 138 0 -20 return
          </CharString>
          <CharString index="133">
            rmoveto
            -53 callgsubr
            return
          </CharString>
          <CharString index="134">
            -67 callgsubr
            31 vhcurveto
            return
          </CharString>
          <CharString index="135">
            7 11 25 hvcurveto
            13 66 callgsubr
            return
          </CharString>
          <CharString index="136">
            -34 -87 vvcurveto
            -343 vlineto
            return
          </CharString>
          <CharString index="137">
            74 -7 124 callgsubr
            return
          </CharString>
          <CharString index="138">
            8 5 12 2 hvcurveto
            8 63 15 118 9 vvcurveto
            16 -14 9 -32 vhcurveto
            -10 hlineto
            -32 -16 callsubr
            -10 vlineto
            22 -180 rlineto
            -12 return
          </CharString>
          <CharString index="139">
            rmoveto
            22 11 6 11 9 hvcurveto
            61 84 8 11 10 vvcurveto
            12 -10 4 -23 return
          </CharString>
          <CharString index="140">
            -212 77 579 79 -68 68 -68 75 return
          </CharString>
          <CharString index="141">
            -7 42 callgsubr
            return
          </CharString>
          <CharString index="142">
            -48 -24 -30 -42 -57 vvcurveto
            -92 73 -35 108 vhcurveto
            return
          </CharString>
          <CharString index="143">
            17 hvcurveto
            1 5 2 4 5 vvcurveto
            7 -4 5 87 callsubr
            return
          </CharString>
          <CharString index="144">
            61 -7 92 584 33 95 callgsubr
            return
          </CharString>
          <CharString index="145">
            -15 78 callsubr
            return
          </CharString>
          <CharString index="146">
            -37 38 hhcurveto
            34 26 63 callgsubr
            5 4 vvcurveto
            8 -4 4 61 callsubr
            -3 1 return
          </CharString>
          <CharString index="147">
            rmoveto
            -37 callsubr
            return
          </CharString>
          <CharString index="148">
            0 callsubr
            endchar
          </CharString>
          <CharString index="149">
            123 callsubr
            -32 -71 -8 -19 -9 vvcurveto
            -9 6 -3 16 vhcurveto
            return
          </CharString>
          <CharString index="150">
            73 callsubr
            hstemhm
            47 101 return
          </CharString>
          <CharString index="151">
            hhcurveto
            -12 hlineto
            -23 -13 -7 -14 -11 hvcurveto
            return
          </CharString>
          <CharString index="152">
            -10 -23 hvcurveto
            -644 -21 callgsubr
            return
          </CharString>
          <CharString index="153">
            -107 -186 -21 732 -20 return
          </CharString>
          <CharString index="154">
            vlineto
            16 -14 9 -32 vhcurveto
            return
          </CharString>
          <CharString index="155">
            -13 20 -4 13 vhcurveto
            return
          </CharString>
          <CharString index="156">
            1 92 rmoveto
            -93 -49 78 188 189 49 74 93 92 50 -74 -189 -188 -50 -78 -92 hvcurveto
            endchar
          </CharString>
          <CharString index="157">
            85 367 85 return
          </CharString>
          <CharString index="158">
            -3 1 -4 hhcurveto
            return
          </CharString>
          <CharString index="159">
            -18 73 callgsubr
            58 return
          </CharString>
          <CharString index="160">
            16 117 callsubr
            return
          </CharString>
          <CharString index="161">
            146 rlineto
            4 7 3 7 7 vvcurveto
            18 -30 15 -14 -8 -7 -3 -9 -6 vhcurveto
            -103 -155 rlineto
            -8 return
          </CharString>
          <CharString index="162">
            1 -3 hhcurveto
            -8 -6 -5 -11 -6 hvcurveto
            -18 return
          </CharString>
          <CharString index="163">
            hstemhm
            62 104 142 104 return
          </CharString>
          <CharString index="164">
            9 -32 vhcurveto
            -11 hlineto
            -32 return
          </CharString>
          <CharString index="165">
            hlineto
            16 7 12 24 hvcurveto
            8 vlineto
            0 13 -2 10 -5 5 5 6 2 9 13 flex1
            endchar
          </CharString>
          <CharString index="166">
            -99 55 -57 89 vhcurveto
            25 88 rmoveto
            -46 -22 26 46 hvcurveto
            return
          </CharString>
          <CharString index="167">
            -57 callgsubr
            70 143 return
          </CharString>
          <CharString index="168">
            -10 4 111 callgsubr
            return
          </CharString>
          <CharString index="169">
            vhcurveto
            13 callgsubr
            return
          </CharString>
          <CharString index="170">
            hhcurveto
            -12 hlineto
            -21 -16 -5 -16 return
          </CharString>
          <CharString index="171">
            -73 callsubr
            654 vlineto
            16 return
          </CharString>
          <CharString index="172">
            18 -8 8 -15 vhcurveto
            return
          </CharString>
          <CharString index="173">
            2 callsubr
            19 return
          </CharString>
          <CharString index="174">
            -7 85 -85 90 143 79 140 85 hstemhm
            47 104 129 109 162 105 hintmask 10111110
            return
          </CharString>
          <CharString index="175">
            flex1
            -103 155 rlineto
            9 -6 -7 3 -7 hhcurveto
            -14 -31 -15 -18 -7 3 -7 4 -7 hvcurveto
            return
          </CharString>
          <CharString index="176">
            -18 77 callgsubr
            return
          </CharString>
          <CharString index="177">
            rmoveto
            -36 callgsubr
            -55 callgsubr
            return
          </CharString>
          <CharString index="178">
            1 -30 -46 36 -37 122 callgsubr
            4 -6 return
          </CharString>
          <CharString index="179">
            174 -67 96 -128 -127 -69 -97 -173 return
          </CharString>
          <CharString index="180">
            -17 callsubr
            45 143 return
          </CharString>
          <CharString index="181">
            181 -7 76 callgsubr
            return
          </CharString>
          <CharString index="182">
            147 callgsubr
            hintmask 11011100
            return
          </CharString>
          <CharString index="183">
            hstem
            72 109 return
          </CharString>
          <CharString index="184">
            -60 153 143 hstem
            35 379 vstem
            414 260 rmoveto
            25 -7 11 -16 vhcurveto
            return
          </CharString>
          <CharString index="185">
            -7 -11 -25 hvcurveto
            return
          </CharString>
          <CharString index="186">
            88 callgsubr
            hvcurveto
            return
          </CharString>
          <CharString index="187">
            107 callgsubr
            7 5 4 10 7 145 callsubr
            return
          </CharString>
          <CharString index="188">
            0 55 callgsubr
            return
          </CharString>
          <CharString index="189">
            -156 -9 88 365 86 return
          </CharString>
          <CharString index="190">
            hstemhm
            41 88 -71 89 -63 85 return
          </CharString>
          <CharString index="191">
            -23 callgsubr
            -31 vhcurveto
            return
          </CharString>
          <CharString index="192">
            4 19 143 callsubr
            hstem
            70 109 164 109 vstem
            return
          </CharString>
          <CharString index="193">
            -7 59 callgsubr
            169 103 vstem
            return
          </CharString>
          <CharString index="194">
            61 callsubr
            51 callsubr
            -7 -7 -5 -11 -6 hvcurveto
            return
          </CharString>
          <CharString index="195">
            47 callgsubr
            hintmask 10111110
            return
          </CharString>
          <CharString index="196">
            15 92 callgsubr
            -15 return
          </CharString>
          <CharString index="197">
            55 7 24 34 47 vvcurveto
            return
          </CharString>
          <CharString index="198">
            hstemhm
            23 callgsubr
            return
          </CharString>
          <CharString index="199">
            34 callsubr
            45 143 -16 callgsubr
            return
          </CharString>
          <CharString index="200">
            47 -37 38 hhcurveto
            35 25 141 callgsubr
            return
          </CharString>
          <CharString index="201">
            -66 96 callsubr
            return
          </CharString>
          <CharString index="202">
            7 -10 15 vhcurveto
            return
          </CharString>
          <CharString index="203">
            81 callsubr
            53 callgsubr
            return
          </CharString>
          <CharString index="204">
            237 0 92 75 92 53 58 callgsubr
            hstem
            2 685 vstem
            return
          </CharString>
          <CharString index="205">
            -9 callgsubr
            107 callsubr
            return
          </CharString>
          <CharString index="206">
            13 hlineto
            30 13 14 21 hvcurveto
            78 24 34 21 vvcurveto
            14 -20 3 -13 return
          </CharString>
          <CharString index="207">
            -21 444 88 return
          </CharString>
          <CharString index="208">
            22 callsubr
            45 143 34 callgsubr
            return
          </CharString>
          <CharString index="209">
            -415 48 callgsubr
            -19 callgsubr
            return
          </CharString>
          <CharString index="210">
            hlineto
            -31 51 callgsubr
            -73 vlineto
            -16 12 -9 31 vhcurveto
            endchar
          </CharString>
          <CharString index="211">
            -2 rmoveto
            13 callgsubr
            return
          </CharString>
          <CharString index="212">
            85 -64 -21 760 -20 hstemhm
            69 102 return
          </CharString>
          <CharString index="213">
            hstem
            84 callgsubr
            vstem
            return
          </CharString>
          <CharString index="214">
            hstem
            43 107 169 103 vstem
            return
          </CharString>
          <CharString index="215">
            hstem
            115 callsubr
            vstem
            return
          </CharString>
          <CharString index="216">
            -104 0 85 353 85 return
          </CharString>
          <CharString index="217">
            -72 -6 94 528 94 return
          </CharString>
          <CharString index="218">
            hlineto
            53 callsubr
            return
          </CharString>
          <CharString index="219">
            -165 61 -106 94 vhcurveto
            return
          </CharString>
          <CharString index="220">
            67 103 250 103 return
          </CharString>
          <CharString index="221">
            0 92 516 92 return
          </CharString>
          <CharString index="222">
            70 104 141 105 return
          </CharString>
          <CharString index="223">
            10 -8 45 -15 vhcurveto
            return
          </CharString>
          <CharString index="224">
            6 11 25 hvcurveto
            return
          </CharString>
          <CharString index="225">
            12 -73 callsubr
            return
          </CharString>
          <CharString index="226">
            -147 rlineto
            -4 -6 -3 -7 -7 vvcurveto
            -17 29 -16 16 vhcurveto
            return
          </CharString>
          <CharString index="227">
            -22 hlineto
            -32 -67 callsubr
            -73 -21 callgsubr
            32 vhcurveto
            return
          </CharString>
          <CharString index="228">
            -28 -183 103 73 -17 callsubr
            return
          </CharString>
          <CharString index="229">
            -7 -5 vvcurveto
            -7 return
          </CharString>
          <CharString index="230">
            -7 -20 -9 vhcurveto
            return
          </CharString>
          <CharString index="231">
            hlineto
            16 7 11 25 hvcurveto
            15 66 callgsubr
            -16 vhcurveto
            return
          </CharString>
          <CharString index="232">
            vlineto
            16 -9 9 -25 vhcurveto
            -11 hlineto
            -24 -10 -66 callgsubr
            return
          </CharString>
          <CharString index="233">
            hlineto
            16 7 9 22 hvcurveto
            7 vlineto
            22 -7 9 -16 vhcurveto
            return
          </CharString>
          <CharString index="234">
            hstemhm
            55 104 142 104 17 67 return
          </CharString>
          <CharString index="235">
            hhcurveto
            -41 callgsubr
            return
          </CharString>
          <CharString index="236">
            -6 6 -2 9 vhcurveto
            return
          </CharString>
          <CharString index="237">
            31 vhcurveto
            17 hlineto
            31 return
          </CharString>
          <CharString index="238">
            vlineto
            25 -6 11 return
          </CharString>
          <CharString index="239">
            15 6 9 21 hvcurveto
            10 vlineto
            21 -6 9 -15 vhcurveto
            return
          </CharString>
          <CharString index="240">
            flex1
            103 -155 rlineto
            -9 6 7 -3 8 hhcurveto
            return
          </CharString>
          <CharString index="241">
            -21 44 callgsubr
            return
          </CharString>
          <CharString index="242">
            -1 -5 -1 -4 -4 vvcurveto
            -6 5 -4 10 -5 vhcurveto
            return
          </CharString>
          <CharString index="243">
            hintmask 00000000
            hintmask 11111100
            return
          </CharString>
          <CharString index="244" raw="1">
            f922520a 0b  
          </CharString>
          <CharString index="245">
            -53 vlineto
            -16 15 -9 37 return
          </CharString>
          <CharString index="246">
            109 239 109 return
          </CharString>
          <CharString index="247">
            53 vlineto
            16 -16 9 -36 return
          </CharString>
          <CharString index="248">
            64 callgsubr
            hstem
            76 102 vstem
            return
          </CharString>
          <CharString index="249">
            -87 callgsubr
            -57 return
          </CharString>
          <CharString index="250">
            -21 295 96 219 92 return
          </CharString>
          <CharString index="251">
            13 -4 14 123 callgsubr
            return
          </CharString>
          <CharString index="252">
            hvcurveto
            19 11 8 5 11 hhcurveto
            return
          </CharString>
          <CharString index="253">
            2 7 5 vvcurveto
            return
          </CharString>
          <CharString index="254">
            88 -32 110 -30 88 hintmask 00000000
            hintmask 11110100
            return
          </CharString>
          <CharString index="255">
            -260 -138 71 764 71 hstem
            84 return
          </CharString>
          <CharString index="256">
            5 vvcurveto
            11 -13 return
          </CharString>
        <CharString name=".notdef">
          5 0 50 600 50 hstem
          7 49 400 51 vstem
          7 hmoveto
          500 700 -500 hlineto
          250 -305 rmoveto
          -171 255 rlineto
          340 hlineto
          -370 -555 rmoveto
          510 vlineto
          171 -255 rlineto
          229 -255 rmoveto
          -169 255 169 255 rlineto
          -369 -555 rmoveto
          169 255 171 -255 rlineto
          endchar
        </CharString>
        <CharString name="A">
          -4 -35 callgsubr
          147 callgsubr
          hintmask 11011000
          50 -2 -107 callsubr
          hintmask 11101000
          -90 callsubr
          endchar
        </CharString>
        <CharString name="AE">
          97 callsubr
          46 -2 -44 callgsubr
        </CharString>
        <CharString name="AEacute">
          97 callsubr
          380 -93 callgsubr
          -334 -761 -44 callgsubr
        </CharString>
        <CharString name="Aacute">
          -4 -35 callgsubr
          147 callgsubr
          hintmask 11011000
          243 -93 callgsubr
          -193 -88 callgsubr
          hintmask 11101000
          -90 callsubr
          endchar
        </CharString>
        <CharString name="Abreve">
          -4 73 callgsubr
          73 75 callsubr
          253 759 -101 callsubr
          -203 -88 callgsubr
          hintmask 11101100
          -90 callsubr
          endchar
        </CharString>
        <CharString name="Acircumflex">
          -4 77 callgsubr
          159 752 -107 callgsubr
          -109 -754 -107 callsubr
          hintmask 11101100
          -90 callsubr
          endchar
        </CharString>
        <CharString name="Adieresis">
          -4 -35 callgsubr
          94 103 hstemhm
          142 88 48 88 hintmask 11011110
          185 776 -99 callgsubr
          -272 -778 -107 callsubr
          hintmask 11101110
          -90 callsubr
          endchar
        </CharString>
        <CharString name="Agrave">
          -4 -35 callgsubr
          147 callgsubr
          hintmask 11011000
          274 759 -100 callgsubr
          -224 -88 callgsubr
          hintmask 11101000
          -90 callsubr
          endchar
        </CharString>
        <CharString name="Amacron">
          -4 -35 callgsubr
          103 77 75 callsubr
          157 785 -84 callgsubr
          -107 -787 -107 callsubr
          hintmask 11101100
          -90 callsubr
          endchar
        </CharString>
        <CharString name="Aogonek">
          -4 -172 65 126 -57 callgsubr
          hstemhm
          354 63 hintmask 11101100
          502 -101 21 callgsubr
          16 5 23 10 23 hvcurveto
          24 hlineto
          27 12 7 11 5 -1 4 -2 6 hvcurveto
          -173 649 rlineto
          15 -3 -15 7 -28 hhcurveto
          -42 hlineto
          -26 -15 -7 -15 -5 hvcurveto
          -173 -649 rlineto
          -1 -6 -1 -4 -5 vvcurveto
          -11 12 -7 28 vhcurveto
          -77 callsubr
          37 -147 rlineto
          -26 -37 -7 -41 -24 -49 callsubr
          -327 358 rmoveto
          hintmask 11110100
          -90 callsubr
          endchar
        </CharString>
        <CharString name="Aring">
          -4 -35 callgsubr
          55 43 91 44 hstemhm
          164 43 88 44 hintmask 11011111
          251 737 rmoveto
          -68 callgsubr
          -201 -782 -107 callsubr
          hintmask 11101111
          -90 callsubr
          endchar
        </CharString>
        <CharString name="Aringacute">
          -4 19 -21 169 90 548 44 hstem
          165 43 88 44 vstem
          245 871 rmoveto
          22 11 7 10 9 hvcurveto
          60 84 9 11 10 vvcurveto
          12 -10 4 -23 -27 -24 -7 -19 -9 vhcurveto
          -32 -72 -8 -19 -9 vvcurveto
          -8 6 -4 16 vhcurveto
          247 -840 rmoveto
          -173 649 -1 5 -2 4 -4 3 rlinecurve
          18 16 10 23 28 vvcurveto
          53 -34 37 -54 -53 -34 -37 -53 -28 10 -24 18 -15 vhcurveto
          -4 -3 -2 -4 -2 -5 -173 -649 rcurveline
          -1 -6 -1 -4 -5 vvcurveto
          -11 12 -7 28 vhcurveto
          -77 callsubr
          38 -152 rlineto
          -23 callsubr
          27 hlineto
          27 12 7 11 5 -1 4 -2 6 hvcurveto
          -240 774 rmoveto
          28 16 -17 -29 -29 -16 -16 -28 -28 -15 16 29 -1 hvcurveto
          29 1 15 17 28 hhcurveto
          -77 -548 rmoveto
          -90 callsubr
          endchar
        </CharString>
        <CharString name="Atilde">
          -4 -35 callgsubr
          83 66 -29 66 147 callgsubr
          hintmask 11010110
          126 766 -71 callgsubr
          hintmask 11011010
          -102 callgsubr
          hintmask 11010110
          -90 callgsubr
          -66 -771 -107 callsubr
          hintmask 11100110
          -90 callsubr
          endchar
        </CharString>
        <CharString name="B">
          30 0 89 226 88 208 89 hstemhm
          72 107 185 108 -86 109 hintmask 11110100
          103 hmoveto
          175 hlineto
          144 73 68 132 114 -76 40 -36 12 hvcurveto
          -1 4 rlineto
          hintmask 11111000
          49 20 41 64 71 vvcurveto
          106 -61 69 -134 vhcurveto
          -174 hlineto
          -22 -9 -10 -23 hvcurveto
          -634 vlineto
          hintmask 11110100
          -23 9 -10 22 vhcurveto
          76 403 rmoveto
          208 vlineto
          hintmask 11111000
          93 hlineto
          63 29 -31 -69 -64 -35 -44 -56 hvcurveto
          -94 -314 rmoveto
          226 103 vlineto
          hintmask 11110100
          69 35 -38 -70 -75 -34 -43 -60 hvcurveto
          endchar
        </CharString>
        <CharString name="C">
          91 callgsubr
          132 callgsubr
          vstem
          308 -7 -86 callsubr
        </CharString>
        <CharString name="CR">
          -372 endchar
        </CharString>
        <CharString name="Cacute">
          91 callgsubr
          132 callgsubr
          vstem
          287 -93 callgsubr
          21 -766 -86 callsubr
        </CharString>
        <CharString name="Cacute.loclPLK">
          91 callgsubr
          52 151 132 callgsubr
          vstem
          287 759 -82 callsubr
          21 -766 -86 callsubr
        </CharString>
        <CharString name="Ccaron">
          91 callgsubr
          50 143 132 callgsubr
          vstem
          291 757 -105 callsubr
          17 -764 -86 callsubr
        </CharString>
        <CharString name="Ccedilla">
          -50 -211 56 149 94 524 95 132 callgsubr
          152 74 vstem
          398 109 rmoveto
          -11 -21 -27 -10 -38 hhcurveto
          -106 -48 85 178 179 49 82 105 35 26 -9 -9 19 hvcurveto
          24 -12 11 53 1 22 rrcurveto
          17 -5 10 -16 6 vhcurveto
          9 -23 -37 8 -37 hhcurveto
          -179 -85 -116 -240 -232 72 -113 161 -12 hvcurveto
          -18 -55 -3 -10 -8 -66 callsubr
          14 50 37 2 32 9 17 8 rlinecurve
          22 9 4 13 13 vvcurveto
          30 -13 43 -28 -12 vhcurveto
          endchar
        </CharString>
        <CharString name="Ccircumflex">
          91 callgsubr
          45 143 132 callgsubr
          vstem
          203 752 -107 callgsubr
          105 -759 -86 callsubr
        </CharString>
        <CharString name="Cdotaccent">
          91 callgsubr
          69 103 132 callgsubr
          88 104 vstem
          298 776 -105 callgsubr
          10 -783 -86 callsubr
        </CharString>
        <CharString name="D">
          68 114 callsubr
          106 callsubr
          102 hmoveto
          -52 callgsubr
          80 -25 callgsubr
          endchar
        </CharString>
        <CharString name="Dcaron">
          68 94 callgsubr
          269 757 -105 callsubr
          -167 -757 rmoveto
          -52 callgsubr
          80 -25 callgsubr
          endchar
        </CharString>
        <CharString name="Dcroat">
          -34 callsubr
        </CharString>
        <CharString name="E">
          -8 callsubr
          53 callgsubr
          102 hmoveto
          -103 callgsubr
        </CharString>
        <CharString name="Eacute">
          -8 callsubr
          53 callgsubr
          236 -93 callgsubr
          -134 -759 -102 callsubr
        </CharString>
        <CharString name="Ebreve">
          -8 callsubr
          59 73 53 callgsubr
          246 759 -101 callsubr
          -144 -759 -102 callsubr
        </CharString>
        <CharString name="Ecaron">
          -8 callsubr
          57 143 53 callgsubr
          240 757 -105 callsubr
          -138 -757 -102 callsubr
        </CharString>
        <CharString name="Ecircumflex">
          -52 96 callsubr
          -48 callsubr
          endchar
        </CharString>
        <CharString name="Edieresis">
          -8 callsubr
          76 103 hstemhm
          72 109 -46 88 48 88 hintmask 00000000
          hintmask 11110110
          178 776 -99 callgsubr
          hintmask 11101010
          -213 -776 -102 callsubr
        </CharString>
        <CharString name="Edotaccent">
          -8 callsubr
          76 103 hstemhm
          72 109 14 104 136 callsubr
          247 776 -105 callgsubr
          hintmask 11101000
          -145 -776 -102 callsubr
        </CharString>
        <CharString name="Egrave">
          -8 callsubr
          53 callgsubr
          267 759 -100 callgsubr
          -165 -759 -102 callsubr
        </CharString>
        <CharString name="Emacron">
          -8 callsubr
          85 77 53 callgsubr
          150 785 -84 callgsubr
          -48 -785 -102 callsubr
        </CharString>
        <CharString name="Eng">
          81 -212 85 146 -7 callgsubr
          145 callgsubr
          479 702 rmoveto
          -15 -87 callgsubr
          -405 vlineto
          -23 3 -24 5 -23 vhcurveto
          -5 -2 -8 23 -8 22 -12 23 rlinecurve
          -217 412 rlineto
          18 -9 -14 4 -20 -44 callsubr
          13 callsubr
          415 vlineto
          22 -3 22 -5 23 vhcurveto
          5 2 7 -21 8 -22 11 -20 rlinecurve
          230 -438 rlineto
          -72 vlineto
          -48 -15 -13 -21 vhcurveto
          -21 -7 5 -7 hhcurveto
          -16 -8 -42 -12 -30 42 -6 37 52 64 30 111 hvcurveto
          748 vlineto
          16 -14 9 -30 vhcurveto
          endchar
        </CharString>
        <CharString name="Eogonek">
          -52 -177 65 112 -24 callgsubr
          76 callsubr
          143 63 vstem
          472 -106 rmoveto
          43 callgsubr
          3 6 1 8 12 vvcurveto
          20 85 callgsubr
          vhcurveto
          -211 220 189 hlineto
          15 7 11 25 hvcurveto
          20 30 callgsubr
          -189 204 211 hlineto
          15 7 11 25 hvcurveto
          20 30 callgsubr
          -290 hlineto
          -21 -9 -10 -23 hvcurveto
          -634 vlineto
          19 callgsubr
          246 hlineto
          -18 -33 -6 -33 -21 -49 callsubr
          endchar
        </CharString>
        <CharString name="Eth">
          -34 callsubr
        </CharString>
        <CharString name="Euro">
          -6 -7 94 148 69 89 69 151 94 hstem
          61 111 vstem
          311 -7 rmoveto
          90 76 45 31 14 -20 47 -22 hvcurveto
          -13 -38 -43 -72 hhcurveto
          -68 -47 46 102 -17 hvcurveto
          212 126 callsubr
          -220 hlineto
          -1 15 0 16 0 16 0 14 0 14 14 flex1
          220 126 callsubr
          -213 hlineto
          105 17 46 46 72 67 33 -37 12 hhcurveto
          18 25 46 20 26 -72 39 -84 -139 -84 -80 -165 -22 hvcurveto
          -42 126 callgsubr
          35 hlineto
          -1 -14 0 -14 0 -14 0 -16 0 -16 -15 flex1
          -35 126 callgsubr
          41 hlineto
          -165 22 80 -77 142 hhcurveto
          endchar
        </CharString>
        <CharString name="F">
          -86 19 -21 314 58 callgsubr
          53 callgsubr
          116 104 callsubr
          289 170 vlineto
          15 7 11 25 hvcurveto
          20 30 callgsubr
          -170 204 185 hlineto
          15 7 11 25 hvcurveto
          20 30 callgsubr
          -264 hlineto
          -21 -9 45 callsubr
          31 vhcurveto
          endchar
        </CharString>
        <CharString name="G">
          74 callgsubr
          132 callgsubr
          224 107 vstem
          459 390 -79 callsubr
          endchar
        </CharString>
        <CharString name="Gbreve">
          74 callgsubr
          52 73 132 callgsubr
          224 107 vstem
          294 759 -101 callsubr
          165 -369 -79 callsubr
          endchar
        </CharString>
        <CharString name="Gcircumflex">
          74 callgsubr
          45 143 132 callgsubr
          224 107 vstem
          200 752 -107 callgsubr
          259 -362 -79 callsubr
          endchar
        </CharString>
        <CharString name="Gcommaaccent">
          43 -215 -21 229 94 211 92 221 96 hstemhm
          46 112 103 94 27 107 hintmask 11111010
          459 390 -79 callsubr
          hintmask 11111110
          -142 -441 rmoveto
          -13 hlineto
          -30 -13 -14 -21 hvcurveto
          -78 -24 -34 -21 vvcurveto
          -14 20 -3 13 27 58 65 87 20 -12 13 -26 vhcurveto
          endchar
        </CharString>
        <CharString name="Gdotaccent">
          74 callgsubr
          69 103 132 callgsubr
          85 104 35 107 vstem
          295 776 -105 callgsubr
          164 -386 -79 callsubr
          endchar
        </CharString>
        <CharString name="H">
          92 19 -21 314 93 297 -20 76 callsubr
          237 -14 callsubr
          endchar
        </CharString>
        <CharString name="Hbar">
          77 19 -21 314 93 82 77 138 -20 76 callsubr
          237 109 vstem
          535 564 rmoveto
          -8 113 hlineto
          84 callsubr
          -21 hlineto
          -32 51 callgsubr
          -113 -237 113 vlineto
          16 -12 9 -30 vhcurveto
          -23 -87 callgsubr
          -113 -22 vlineto
          -15 -7 -10 -23 hvcurveto
          -11 vlineto
          -23 95 callsubr
          22 -464 hlineto
          -16 13 -9 31 vhcurveto
          -13 callsubr
          464 8 vlineto
          16 6 10 23 hvcurveto
          11 vlineto
          23 -6 10 -16 vhcurveto
          -117 -159 rmoveto
          -237 82 237 hlineto
          endchar
        </CharString>
        <CharString name="Hcircumflex">
          92 19 -21 314 93 297 -20 70 143 76 callsubr
          237 109 -5 callsubr
          -90 -754 rmoveto
          -13 callsubr
          654 128 callgsubr
          -32 51 callgsubr
          -272 -237 272 vlineto
          16 -12 27 callsubr
          endchar
        </CharString>
        <CharString name="I">
          -247 57 callgsubr
          76 110 vstem
          120 -2 -85 callsubr
          endchar
        </CharString>
        <CharString name="IJ">
          93 callgsubr
          hintmask 00000000
          hintmask 01111000
          120 -2 -85 callsubr
          hintmask 10111000
          248 -5 -59 callsubr
        </CharString>
        <CharString name="Iacute">
          -247 57 callgsubr
          76 110 vstem
          121 -93 callgsubr
          -1 -761 -85 callsubr
          endchar
        </CharString>
        <CharString name="Iacute_J.loclNLD">
          93 callgsubr
          hintmask 10111000
          121 -93 callgsubr
          358 hmoveto
          -106 callgsubr
          hintmask 01111000
          -359 -761 -85 callsubr
          hintmask 10111000
          248 -5 -59 callsubr
        </CharString>
        <CharString name="Ibreve">
          -247 -17 callgsubr
          77 73 hstem
          76 110 vstem
          131 759 -101 callsubr
          -11 -761 -85 callsubr
          endchar
        </CharString>
        <CharString name="Icircumflex">
          -247 -17 callgsubr
          70 143 hstem
          76 110 vstem
          37 752 -107 callgsubr
          83 -754 -85 callsubr
          endchar
        </CharString>
        <CharString name="Idieresis">
          -247 -17 callgsubr
          94 103 hstemhm
          20 147 callsubr
          63 776 -99 callgsubr
          hintmask 11101000
          -80 -778 -85 callsubr
          endchar
        </CharString>
        <CharString name="Idotaccent">
          -247 -17 callgsubr
          94 103 hstemhm
          76 110 -106 104 hintmask 00000000
          hintmask 11101000
          132 776 -105 callgsubr
          hintmask 11110000
          -12 -778 -85 callsubr
          endchar
        </CharString>
        <CharString name="Igrave">
          -247 57 callgsubr
          76 110 vstem
          152 759 -100 callgsubr
          -32 -761 -85 callsubr
          endchar
        </CharString>
        <CharString name="Imacron">
          -247 -17 callgsubr
          103 77 hstem
          76 110 vstem
          35 785 -84 callgsubr
          85 -787 -85 callsubr
          endchar
        </CharString>
        <CharString name="Iogonek">
          -247 -175 65 129 -7 callgsubr
          hstem
          76 110 vstem
          245 -104 21 callgsubr
          19 7 29 15 29 hvcurveto
          3 3 1 5 5 vvcurveto
          654 vlineto
          16 -13 -67 callgsubr
          30 vhcurveto
          -17 -32 -5 -31 -20 -49 callsubr
          endchar
        </CharString>
        <CharString name="Itilde">
          -247 -17 callgsubr
          83 49 callgsubr
          76 110 hintmask 11011000
          4 766 -71 callgsubr
          hintmask 11101000
          -102 callgsubr
          hintmask 11011000
          -90 callgsubr
          126 -771 -85 callsubr
          endchar
        </CharString>
        <CharString name="J">
          -154 -7 94 615 -20 hstem
          173 110 vstem
          106 -7 -59 callsubr
        </CharString>
        <CharString name="Jcircumflex">
          -154 -7 94 615 -20 70 143 hstem
          173 110 vstem
          133 752 -107 callgsubr
          -27 -759 -59 callsubr
        </CharString>
        <CharString name="K">
          1 19 -21 337 34 333 -20 hstem
          74 109 vstem
          -26 callgsubr
          endchar
        </CharString>
        <CharString name="Kcommaaccent">
          1 112 callgsubr
          337 34 333 -20 hstemhm
          74 109 29 94 hintmask 11111000
          -26 callgsubr
          hintmask 11111100
          -281 -266 -82 callgsubr
          endchar
        </CharString>
        <CharString name="L">
          142 callgsubr
          102 hmoveto
          -62 callsubr
          endchar
        </CharString>
        <CharString name="Lacute">
          142 callgsubr
          118 760 -106 callsubr
          -16 -760 rmoveto
          -62 callsubr
          endchar
        </CharString>
        <CharString name="Lcaron">
          -101 0 92 608 -20 22 -20 hstemhm
          72 109 80 98 hintmask 10111000
          102 hmoveto
          -62 callsubr
          182 522 rmoveto
          hintmask 11011000
          -15 callsubr
          hintmask 10111000
          48 callsubr
          endchar
        </CharString>
        <CharString name="Lcommaaccent">
          -101 -215 -21 236 92 610 -20 hstemhm
          72 109 1 94 hintmask 11110000
          102 hmoveto
          -62 callsubr
          hintmask 11101000
          89 -236 -82 callgsubr
          endchar
        </CharString>
        <CharString name="Ldot">
          -101 0 92 211 114 285 -20 76 callsubr
          62 109 vstem
          102 hmoveto
          -62 callsubr
          195 303 24 callgsubr
        </CharString>
        <CharString name="Lslash">
          142 callgsubr
          372 92 rmoveto
          -191 322 hlineto
          13 8 rlineto
          4 1 2 3 3 vvcurveto
          2 -2 2 -1 -1 -1 -1 -1 -1 vhcurveto
          -13 -8 rlineto
          254 vlineto
          -32 callgsubr
          270 hlineto
          16 7 -72 callsubr
          -7 11 -16 vhcurveto
          -172 338 rmoveto
          0 0 0 -1 vvcurveto
          -104 -58 rmoveto
          0 0 -1 0 vhcurveto
          -1 vlineto
          endchar
        </CharString>
        <CharString name="M">
          180 57 callgsubr
          67 106 345 106 vstem
          331 234 rmoveto
          29 hlineto
          14 8 5 12 5 hvcurveto
          105 203 10 20 9 22 8 21 rlinecurve
          4 -2 rlineto
          -3 -22 -2 -22 -22 vvcurveto
          -426 vlineto
          -16 12 -9 32 vhcurveto
          18 hlineto
          31 13 64 callsubr
          -13 9 -31 vhcurveto
          -24 hlineto
          -23 -14 -7 -14 -7 hvcurveto
          -150 -290 -8 -16 -5 -16 -4 -16 rlinecurve
          -3 16 -5 16 -8 16 -150 290 rcurveline
          14 -7 -14 7 -23 -44 callsubr
          18 -52 callsubr
          426 vlineto
          22 -2 22 -3 22 vhcurveto
          4 2 8 -21 9 -22 10 -20 rlinecurve
          105 -203 rlineto
          -12 5 8 -5 14 hhcurveto
          endchar
        </CharString>
        <CharString name="N">
          81 19 -21 704 -20 hstem
          67 103 250 103 -32 callsubr
          endchar
        </CharString>
        <CharString name="Nacute">
          81 19 -21 704 -20 145 callgsubr
          285 -93 callgsubr
          -174 -761 -101 callgsubr
          endchar
        </CharString>
        <CharString name="Nacute.loclPLK">
          81 -17 callgsubr
          77 151 145 callgsubr
          285 759 -82 callsubr
          -174 -761 -101 callgsubr
          endchar
        </CharString>
        <CharString name="Ncaron">
          81 -17 callgsubr
          75 143 145 callgsubr
          289 757 -105 callsubr
          -178 -759 -101 callgsubr
          endchar
        </CharString>
        <CharString name="Ncommaaccent">
          81 112 callgsubr
          704 -20 hstem
          67 103 77 94 79 103 -32 callsubr
          145 -234 -82 callgsubr
          endchar
        </CharString>
        <CharString name="Ntilde">
          81 -17 callgsubr
          83 49 callgsubr
          113 callsubr
          hintmask 11011100
          168 766 -76 callsubr
          -47 -771 -101 callgsubr
          endchar
        </CharString>
        <CharString name="O">
          15 callgsubr
          299 -7 -100 callsubr
          endchar
        </CharString>
        <CharString name="OE">
          322 -7 92 -85 -24 callgsubr
          -86 93 hstemhm
          46 112 280 110 hintmask 01110110
          766 92 rmoveto
          -218 220 195 hlineto
          15 7 11 25 hvcurveto
          20 30 callgsubr
          -195 204 217 hlineto
          15 7 11 25 hvcurveto
          20 30 callgsubr
          -296 hlineto
          -21 -9 -10 -22 hvcurveto
          hintmask 10101110
          -24 vlineto
          45 -41 -48 18 -61 hhcurveto
          -152 -91 -105 -250 -251 92 -108 149 62 49 20 44 41 hvcurveto
          hintmask 01110110
          -24 vlineto
          19 callgsubr
          297 hlineto
          15 7 11 25 hvcurveto
          20 30 callgsubr
          hintmask 10101110
          -470 -7 rmoveto
          -90 -48 77 189 194 48 69 90 93 49 -69 -194 -189 -49 -77 -93 hvcurveto
          endchar
        </CharString>
        <CharString name="Oacute">
          15 callgsubr
          20 callsubr
          9 -766 -100 callsubr
          endchar
        </CharString>
        <CharString name="Oacute.loclPLK">
          -5 callgsubr
          52 151 -16 callgsubr
          290 759 -82 callsubr
          9 -766 -100 callsubr
          endchar
        </CharString>
        <CharString name="Obreve">
          -5 callgsubr
          52 73 -16 callgsubr
          300 759 -101 callsubr
          -1 -766 -100 callsubr
          endchar
        </CharString>
        <CharString name="Ocircumflex">
          90 -7 92 529 93 45 143 hstem
          46 112 284 111 -5 callsubr
          93 -759 -100 callsubr
          endchar
        </CharString>
        <CharString name="Odieresis">
          -5 callgsubr
          69 103 hstemhm
          46 112 31 88 48 88 29 111 hintmask 11111010
          232 776 rmoveto
          38 callgsubr
          53 -47 callgsubr
          -32 -12 -10 -15 vhcurveto
          -53 vlineto
          -16 12 -9 31 vhcurveto
          hintmask 11111110
          137 hmoveto
          -40 callgsubr
          53 23 callsubr
          -32 -13 -10 -15 vhcurveto
          -53 -21 callgsubr
          31 vhcurveto
          -70 -783 rmoveto
          hintmask 11111010
          68 callgsubr
          hintmask 11111110
          -35 callsubr
          vhcurveto
          hintmask 11111010
          49 callsubr
        </CharString>
        <CharString name="Ograve">
          15 callgsubr
          321 759 -100 callgsubr
          -22 -766 -100 callsubr
          endchar
        </CharString>
        <CharString name="Ohorn">
          21 callsubr
          299 -7 -65 callgsubr
        </CharString>
        <CharString name="Ohungarumlaut">
          -5 callgsubr
          52 151 -16 callgsubr
          207 759 -83 callgsubr
          -46 -766 -100 callsubr
          endchar
        </CharString>
        <CharString name="Omacron">
          -5 callgsubr
          78 77 -16 callgsubr
          204 785 -84 callgsubr
          95 -792 -100 callsubr
          endchar
        </CharString>
        <CharString name="Oslash">
          15 callgsubr
          491 616 -49 callgsubr
        </CharString>
        <CharString name="Oslashacute">
          15 callgsubr
          20 callsubr
          201 -143 -49 callgsubr
        </CharString>
        <CharString name="Otilde">
          -5 callgsubr
          58 66 -29 66 62 callgsubr
          hintmask 11011100
          173 766 -76 callsubr
          136 -776 -100 callsubr
          endchar
        </CharString>
        <CharString name="P">
          19 -21 290 91 229 92 hstem
          68 108 168 109 vstem
          112 -2 rmoveto
          20 -52 callsubr
          265 98 vlineto
          43 136 23 186 176 -116 27 -71 hvcurveto
          -167 hlineto
          -22 -9 45 callsubr
          31 vhcurveto
          64 381 rmoveto
          229 85 vlineto
          36 47 -19 -92 -99 -48 -19 -30 hvcurveto
          endchar
        </CharString>
        <CharString name="Q">
          90 614 93 -16 callgsubr
          535 -166 rmoveto
          25 27 62 13 2 hvcurveto
          7 -4 5 -8 4 vhcurveto
          -178 83 rlineto
          4 vlineto
          100 38 54 110 190 vvcurveto
          244 -90 113 -164 -162 -91 -112 -245 -181 49 -107 95 -48 vhcurveto
          -67 129 202 -113 14 hhcurveto
          -235 250 rmoveto
          -92 -50 77 189 188 50 76 92 92 50 -76 -188 -188 -50 -78 -92 hvcurveto
          endchar
        </CharString>
        <CharString name="R">
          85 callsubr
          115 -2 -29 callgsubr
        </CharString>
        <CharString name="Racute">
          85 callsubr
          243 -93 callgsubr
          -128 -761 -29 callgsubr
        </CharString>
        <CharString name="Rcaron">
          4 19 143 callsubr
          57 143 hstem
          70 109 164 109 vstem
          247 757 -105 callsubr
          -132 -759 -29 callgsubr
        </CharString>
        <CharString name="Rcommaaccent">
          4 -215 -21 255 143 callsubr
          hstemhm
          70 109 29 94 41 109 hintmask 11111010
          115 -2 -88 callsubr
          hintmask 11111110
          -49 -625 -82 callgsubr
          endchar
        </CharString>
        <CharString name="S">
          110 callsubr
          89 callgsubr
          -31 callsubr
          endchar
        </CharString>
        <CharString name="Sacute">
          110 callsubr
          89 callgsubr
          224 -93 callgsubr
          -22 -765 -95 callgsubr
          endchar
        </CharString>
        <CharString name="Sacute.loclPLK">
          110 callsubr
          49 151 89 callgsubr
          224 759 -82 callsubr
          -22 -765 -95 callgsubr
          endchar
        </CharString>
        <CharString name="Scaron">
          110 callsubr
          47 143 89 callgsubr
          228 757 -105 callsubr
          -26 -763 -95 callgsubr
          endchar
        </CharString>
        <CharString name="Scedilla">
          -72 -211 56 149 94 528 94 hstemhm
          44 107 75 74 5 108 hintmask 11110100
          413 196 rmoveto
          114 -68 44 -81 43 vhcurveto
          -66 36 -47 26 65 vvcurveto
          58 42 34 59 29 29 -6 -12 27 vhcurveto
          -3 7 6 -3 5 hhcurveto
          16 15 48 20 6 -2 7 -8 5 hvcurveto
          21 -32 -47 11 -46 hhcurveto
          -121 -86 -72 -123 -116 72 -45 89 -46 hvcurveto
          54 -28 46 -27 -65 vvcurveto
          -67 -47 -33 -58 -47 -40 14 23 -31 vhcurveto
          4 -9 -6 5 -7 hhcurveto
          -18 -12 -42 -24 -13 5 -6 7 -7 hvcurveto
          hintmask 11111000
          38 -30 56 -17 59 -1 rrcurveto
          -18 -55 -3 -10 -8 -66 callsubr
          15 53 rlineto
          hintmask 11110100
          104 16 65 75 108 vvcurveto
          endchar
        </CharString>
        <CharString name="Scircumflex">
          110 callsubr
          42 143 89 callgsubr
          140 752 -107 callgsubr
          62 -758 -95 callgsubr
          endchar
        </CharString>
        <CharString name="Scommaaccent">
          -72 -215 -21 230 94 528 94 hstemhm
          44 107 20 94 40 -34 callgsubr
          -22 -230 -82 callgsubr
          endchar
        </CharString>
        <CharString name="T">
          -55 19 -21 610 92 hstem
          173 109 vstem
          217 -2 -50 callgsubr
          endchar
        </CharString>
        <CharString name="Tbar">
          -70 19 -21 316 77 217 92 hstem
          173 109 vstem
          416 700 rmoveto
          -378 hlineto
          -15 -6 -11 -25 hvcurveto
          -20 vlineto
          -25 6 -11 15 vhcurveto
          135 -217 -95 hlineto
          -15 -7 -10 -23 hvcurveto
          -11 vlineto
          -23 95 callsubr
          95 -291 hlineto
          -16 13 -9 31 vhcurveto
          21 hlineto
          32 118 callsubr
          291 82 vlineto
          16 6 10 23 hvcurveto
          11 vlineto
          23 -6 10 -16 vhcurveto
          -82 217 134 hlineto
          6 callgsubr
          endchar
        </CharString>
        <CharString name="Tcaron">
          -55 19 -21 610 92 57 143 hstem
          173 109 vstem
          221 757 -105 callsubr
          -4 -759 -50 callgsubr
          endchar
        </CharString>
        <CharString name="Thorn">
          19 -21 172 91 230 91 120 -20 hstem
          68 109 167 109 vstem
          112 104 callsubr
          147 97 vlineto
          43 136 24 186 176 -116 26 -71 hvcurveto
          -89 95 hlineto
          16 -13 9 -31 vhcurveto
          -21 -54 callgsubr
          65 263 rmoveto
          230 83 vlineto
          38 46 -20 -91 -99 -48 -20 -30 hvcurveto
          endchar
        </CharString>
        <CharString name="U">
          102 callgsubr
          292 -7 rmoveto
          145 83 76 129 hvcurveto
          479 vlineto
          16 -13 9 -31 vhcurveto
          -21 -63 callgsubr
          vhcurveto
          endchar
        </CharString>
        <CharString name="Uacute">
          102 callgsubr
          282 -93 callgsubr
          10 -766 rmoveto
          145 83 76 129 hvcurveto
          479 vlineto
          16 -13 9 -31 vhcurveto
          -21 -63 callgsubr
          vhcurveto
          endchar
        </CharString>
        <CharString name="Ubreve">
          30 callsubr
          77 73 29 callgsubr
          292 759 -101 callsubr
          -766 vmoveto
          145 83 76 129 hvcurveto
          479 vlineto
          16 -13 9 -31 vhcurveto
          -21 -63 callgsubr
          vhcurveto
          endchar
        </CharString>
        <CharString name="Ucircumflex">
          30 callsubr
          70 143 29 callgsubr
          198 752 -107 callgsubr
          94 -759 rmoveto
          145 83 76 129 hvcurveto
          479 vlineto
          16 -13 9 -31 vhcurveto
          -21 -63 callgsubr
          vhcurveto
          endchar
        </CharString>
        <CharString name="Udieresis">
          30 callsubr
          94 103 hstemhm
          63 109 9 88 48 88 6 109 136 callsubr
          224 776 -99 callgsubr
          hintmask 11110010
          -69 -783 rmoveto
          145 83 76 129 hvcurveto
          479 vlineto
          16 -13 9 -31 vhcurveto
          -21 -63 callgsubr
          vhcurveto
          endchar
        </CharString>
        <CharString name="Ugrave">
          102 callgsubr
          313 759 -100 callgsubr
          -21 -766 rmoveto
          145 83 76 129 hvcurveto
          479 vlineto
          16 -13 9 -31 vhcurveto
          -21 -63 callgsubr
          vhcurveto
          endchar
        </CharString>
        <CharString name="Uhorn">
          37 callsubr
          hintmask 00000000
          hintmask 11111000
          592 757 -51 callgsubr
          hintmask 11110000
          -74 callsubr
          hintmask 11111000
          100 callgsubr
        </CharString>
        <CharString name="Uhungarumlaut">
          30 callsubr
          77 151 29 callgsubr
          199 759 -83 callgsubr
          -45 -766 rmoveto
          145 83 76 129 hvcurveto
          479 vlineto
          16 -13 9 -31 vhcurveto
          -21 -63 callgsubr
          vhcurveto
          endchar
        </CharString>
        <CharString name="Umacron">
          30 callsubr
          103 77 29 callgsubr
          196 785 -84 callgsubr
          96 -792 rmoveto
          145 83 76 129 hvcurveto
          479 vlineto
          16 -13 9 -31 vhcurveto
          -21 -63 callgsubr
          vhcurveto
          endchar
        </CharString>
        <CharString name="Uogonek">
          74 -164 65 92 124 callgsubr
          hstemhm
          63 109 166 63 10 109 hintmask 11110100
          520 198 rmoveto
          479 vlineto
          16 -13 9 -31 vhcurveto
          -21 -63 callgsubr
          vhcurveto
          hintmask 11111100
          22 21 2 3 19 hvcurveto
          -12 -28 -4 -27 -17 -49 callsubr
          -9 callsubr
          20 7 29 15 28 hvcurveto
          hintmask 11110100
          63 33 34 61 83 vvcurveto
          endchar
        </CharString>
        <CharString name="Uring">
          30 callsubr
          55 43 91 44 hstem
          63 109 31 43 88 44 33 109 vstem
          290 737 rmoveto
          -68 callgsubr
          2 -787 rmoveto
          145 83 76 129 hvcurveto
          479 vlineto
          16 -13 9 -31 vhcurveto
          -21 -63 callgsubr
          vhcurveto
          endchar
        </CharString>
        <CharString name="Utilde">
          30 callsubr
          83 49 callgsubr
          63 139 callsubr
          hintmask 11011100
          165 766 -76 callsubr
          137 -776 rmoveto
          145 83 76 129 hvcurveto
          479 vlineto
          16 -13 9 -31 vhcurveto
          -21 -63 callgsubr
          vhcurveto
          endchar
        </CharString>
        <CharString name="V">
          -1 -2 118 -97 -7 callgsubr
          hstemhm
          15 477 hintmask 01110000
          227 -2 rmoveto
          52 hlineto
          22 17 4 13 3 hvcurveto
          168 653 rlineto
          2 7 1 4 5 vvcurveto
          11 -15 7 -30 vhcurveto
          -19 hlineto
          -22 -17 -5 -15 -4 hvcurveto
          hintmask 10110000
          -122 -508 -9 -58 rlineto
          -3 hlineto
          -8 57 -120 509 rlineto
          15 -4 -17 5 -21 hhcurveto
          -21 hlineto
          -31 -14 -7 -11 -5 2 -4 1 -6 hvcurveto
          168 -654 rlineto
          hintmask 01110000
          -23 callsubr
          endchar
        </CharString>
        <CharString name="W">
          243 57 callgsubr
          15 723 vstem
          193 -2 -93 callsubr
        </CharString>
        <CharString name="Wacute">
          243 57 callgsubr
          15 723 vstem
          366 -93 callgsubr
          -173 -761 -93 callsubr
        </CharString>
        <CharString name="Wcircumflex">
          243 -17 callgsubr
          70 143 hstem
          15 723 vstem
          282 752 -107 callgsubr
          -89 -754 -93 callsubr
        </CharString>
        <CharString name="Wdieresis">
          243 -17 callgsubr
          94 103 hstem
          265 88 48 88 vstem
          308 776 -99 callgsubr
          -252 -778 -93 callsubr
        </CharString>
        <CharString name="Wgrave">
          243 57 callgsubr
          15 723 vstem
          397 759 -100 callgsubr
          -204 -761 -93 callsubr
        </CharString>
        <CharString name="X">
          -3 57 callgsubr
          17 472 vstem
          64 -2 rmoveto
          24 hlineto
          21 16 1 15 6 hvcurveto
          123 277 118 -277 rlineto
          -13 5 17 -3 21 hhcurveto
          27 hlineto
          33 14 6 12 5 -3 6 -4 9 hvcurveto
          -159 332 147 296 rlineto
          4 9 3 6 5 vvcurveto
          12 -15 6 -32 vhcurveto
          -23 hlineto
          -21 -17 -2 -14 -6 hvcurveto
          -107 -247 -102 247 rlineto
          14 -6 -17 2 -20 hhcurveto
          -28 hlineto
          -33 -14 -7 -11 -5 3 -7 5 -8 hvcurveto
          142 -299 -161 -329 rlineto
          -5 -10 -3 -5 -5 vvcurveto
          -12 14 -6 33 vhcurveto
          endchar
        </CharString>
        <CharString name="Y">
          -25 57 callgsubr
          187 110 vstem
          232 -2 rmoveto
          -91 callsubr
        </CharString>
        <CharString name="Y.loclGUA">
          96 callgsubr
          395 702 -97 callgsubr
          endchar
        </CharString>
        <CharString name="Yacute">
          -25 57 callgsubr
          187 110 vstem
          232 -93 callgsubr
          -761 vmoveto
          -91 callsubr
        </CharString>
        <CharString name="Yacute.loclGUA">
          96 callgsubr
          238 -93 callgsubr
          157 -57 -97 callgsubr
          endchar
        </CharString>
        <CharString name="Ycircumflex">
          139 callgsubr
          70 143 hstem
          187 110 vstem
          148 752 -107 callgsubr
          84 -754 rmoveto
          -91 callsubr
        </CharString>
        <CharString name="Ycircumflex.loclGUA">
          16 callsubr
          70 143 144 callgsubr
          154 752 -107 callgsubr
          241 -50 -97 callgsubr
          endchar
        </CharString>
        <CharString name="Ydieresis">
          139 callgsubr
          94 103 hstemhm
          131 147 callsubr
          174 776 -99 callgsubr
          hintmask 11101000
          -79 -778 rmoveto
          -91 callsubr
        </CharString>
        <CharString name="Ydieresis.loclGUA">
          16 callsubr
          94 103 hstemhm
          57 102 -22 88 48 88 -23 103 hintmask 00000000
          hintmask 11110110
          180 776 -99 callgsubr
          hintmask 11111001
          78 -74 -97 callgsubr
          endchar
        </CharString>
        <CharString name="Ygrave">
          -25 57 callgsubr
          187 110 vstem
          263 759 -100 callgsubr
          -31 -761 rmoveto
          -91 callsubr
        </CharString>
        <CharString name="Ygrave.loclGUA">
          96 callgsubr
          269 759 -100 callgsubr
          126 -57 -97 callgsubr
          endchar
        </CharString>
        <CharString name="Z">
          -2 114 callsubr
          hstem
          31 438 vstem
          59 -46 callsubr
          endchar
        </CharString>
        <CharString name="Zacute">
          -2 114 callsubr
          hstem
          31 438 vstem
          247 -93 callgsubr
          -188 -759 rmoveto
          -91 callgsubr
          endchar
        </CharString>
        <CharString name="Zacute.loclPLK">
          -2 114 callsubr
          59 151 hstem
          31 438 vstem
          247 759 -82 callsubr
          -188 -759 rmoveto
          -91 callgsubr
          endchar
        </CharString>
        <CharString name="Zcaron">
          -2 114 callsubr
          57 143 hstem
          31 438 vstem
          251 757 -105 callsubr
          -192 -757 rmoveto
          -91 callgsubr
          endchar
        </CharString>
        <CharString name="Zdotaccent">
          -2 114 callsubr
          76 103 hstem
          206 104 vstem
          258 776 -105 callgsubr
          -199 -776 rmoveto
          -91 callgsubr
          endchar
        </CharString>
        <CharString name="a">
          -42 callsubr
          47 callgsubr
          hintmask 10111100
          191 -7 18 callgsubr
          hintmask 01111100
          -104 callgsubr
          hintmask 10111100
          -59 callgsubr
        </CharString>
        <CharString name="aacute">
          -42 callsubr
          47 callgsubr
          hintmask 10111100
          231 -94 callsubr
          -40 -589 18 callgsubr
          hintmask 01111100
          -104 callgsubr
          hintmask 10111100
          -59 callgsubr
        </CharString>
        <CharString name="abreve">
          -42 callsubr
          52 73 88 callsubr
          241 -83 callsubr
          -50 -589 18 callgsubr
          hintmask 01111110
          -104 callgsubr
          hintmask 10111110
          -59 callgsubr
        </CharString>
        <CharString name="acircumflex">
          -28 69 callgsubr
          147 575 -107 callgsubr
          44 -582 18 callgsubr
          hintmask 01111110
          -104 callgsubr
          hintmask 10111110
          -59 callgsubr
        </CharString>
        <CharString name="acute">
          -253 114 callgsubr
          47 159 vstem
          71 -94 callsubr
          endchar
        </CharString>
        <CharString name="acute.loclPLK">
          -253 114 callgsubr
          52 135 vstem
          80 582 -82 callsubr
          endchar
        </CharString>
        <CharString name="acutecomb">
          -509 114 callgsubr
          -129 159 vstem
          -105 -94 callsubr
          endchar
        </CharString>
        <CharString name="adieresis">
          -42 callsubr
          69 103 hstemhm
          47 101 -18 88 48 88 -48 102 hintmask 1011101010000000
          173 599 rmoveto
          38 callgsubr
          53 -47 callgsubr
          -32 -12 -10 -15 vhcurveto
          -53 vlineto
          -16 12 -9 31 vhcurveto
          hintmask 1011110100000000
          137 hmoveto
          -40 callgsubr
          53 23 callsubr
          -32 -13 -10 -15 vhcurveto
          -53 -21 callgsubr
          31 vhcurveto
          -119 -606 rmoveto
          hintmask 1011101010000000
          -22 callsubr
          hintmask 0111110010000000
          -104 callgsubr
          hintmask 1011110100000000
          59 callsubr
          hintmask 1011110010000000
          -4 callgsubr
          vhcurveto
          -125 vlineto
          hintmask 1011110100000000
          11 callgsubr
        </CharString>
        <CharString name="ae">
          179 67 callsubr
          197 -7 -51 callsubr
        </CharString>
        <CharString name="aeacute">
          155 67 callsubr
          330 -94 callsubr
          -133 -589 -51 callsubr
        </CharString>
        <CharString name="agrave">
          -42 callsubr
          47 callgsubr
          hintmask 10111100
          262 582 -100 callgsubr
          -71 -589 18 callgsubr
          hintmask 01111100
          -104 callgsubr
          hintmask 10111100
          -59 callgsubr
        </CharString>
        <CharString name="amacron">
          -42 callsubr
          78 77 88 callsubr
          145 608 -84 callgsubr
          46 -615 18 callgsubr
          hintmask 01111110
          -104 callgsubr
          hintmask 10111110
          -59 callgsubr
        </CharString>
        <CharString name="ampersand">
          11 -7 85 250 85 209 85 hstemhm
          24 106 -88 106 169 106 hintmask 11110100
          480 83 rmoveto
          -5 -6 -5 -14 hhcurveto
          -20 -12 14 51 hvcurveto
          185 47 vlineto
          15 28 callsubr
          -15 vhcurveto
          -47 102 hlineto
          16 -11 9 -25 vhcurveto
          -20 hlineto
          -24 -13 -9 -16 -1 hvcurveto
          -12 -102 rlineto
          hintmask 11101100
          -80 hlineto
          -58 -31 60 50 41 16 58 57 hvcurveto
          21 16 -9 6 hhcurveto
          13 11 42 17 27 -48 8 -34 -98 -66 -59 -111 -73 32 -52 45 -22 hvcurveto
          -4 vlineto
          hintmask 11110100
          -59 -20 -36 -64 -99 vvcurveto
          -148 81 -62 100 62 39 20 23 39 vhcurveto
          -33 21 30 -10 35 hhcurveto
          24 48 3 33 8 -8 46 -15 hvcurveto
          -350 122 rmoveto
          91 33 32 69 vhcurveto
          85 -197 hlineto
          -7 1 -7 1 -7 vhcurveto
          -18 -36 -31 -14 -33 hhcurveto
          -47 -42 31 96 hvcurveto
          endchar
        </CharString>
        <CharString name="aogonek">
          -28 -164 65 92 -17 callsubr
          47 callgsubr
          -75 63 hintmask 00000000
          hintmask 11011101
          481 -93 21 callgsubr
          18 6 26 13 27 hvcurveto
          3 2 2 4 4 vvcurveto
          hintmask 11011110
          9 -12 34 88 vvcurveto
          216 vlineto
          97 -59 61 -119 -84 -80 -33 -28 -14 24 -44 16 vhcurveto
          12 40 34 68 hhcurveto
          59 21 -33 -41 hvcurveto
          -38 vlineto
          -146 -1 -113 -46 -137 vvcurveto
          -99 55 -57 89 vhcurveto
          hintmask 11011101
          -22 callsubr
          hintmask 10111101
          -28 7 6 -29 23 hhcurveto
          -13 -28 -4 -27 -18 -38 callsubr
          hintmask 11011101
          65 callsubr
          hintmask 11011110
          -175 224 rmoveto
          -22 callgsubr
          -46 -22 26 46 -4 callgsubr
          hvcurveto
          endchar
        </CharString>
        <CharString name="approxequal">
          -71 151 123 -84 123 hstemhm
          54 337 hintmask 10100000
          376 250 rmoveto
          6 8 4 11 3 11 rrcurveto
          134 callgsubr
          -7 3 rlineto
          2 -4 -3 1 -3 hhcurveto
          -5 -7 -5 -11 -6 hvcurveto
          -20 -12 -15 -5 -12 hhcurveto
          hintmask 01100000
          -39 -76 39 -42 hhcurveto
          -45 -31 -23 -48 -13 hvcurveto
          135 callsubr
          -5 -9 -5 -10 -3 -12 rrcurveto
          135 callsubr
          8 -4 rlineto
          -2 3 3 0 2 hhcurveto
          7 5 4 11 7 hvcurveto
          21 11 15 5 11 hhcurveto
          hintmask 10100000
          40 76 -39 43 hhcurveto
          45 31 23 47 13 hvcurveto
          134 callgsubr
          endchar
        </CharString>
        <CharString name="aring">
          -42 callsubr
          30 43 91 44 hstemhm
          47 101 4 43 88 44 -21 102 hintmask 0000000000000000
          hintmask 1011110110000000
          239 11 callsubr
          hintmask 1011011001000000
          -48 -610 18 callgsubr
          hintmask 0111011001000000
          -104 callgsubr
          hintmask 1011011001000000
          -59 callgsubr
        </CharString>
        <CharString name="aringacute">
          -42 callsubr
          30 43 91 44 hstemhm
          47 101 4 43 88 44 -21 102 hintmask 1011010101000000
          232 764 -106 callsubr
          hintmask 1011110110000000
          7 -204 rmoveto
          -68 callgsubr
          hintmask 1011011001000000
          -48 -610 18 callgsubr
          hintmask 0111011001000000
          -104 callgsubr
          hintmask 1011011001000000
          -59 callgsubr
        </CharString>
        <CharString name="arrowdown">
          -4 707 -20 hstem
          212 80 vstem
          252 1 rmoveto
          8 5 2 5 5 hvcurveto
          213 215 rlineto
          12 11 4 12 16 vvcurveto
          63 vlineto
          12 -2 7 -5 -3 -5 -4 -6 -6 vhcurveto
          -186 -189 rlineto
          537 vlineto
          16 -10 9 -24 vhcurveto
          -12 hlineto
          -24 -10 -66 callgsubr
          -537 vlineto
          -186 190 rlineto
          6 -6 -5 4 -3 hhcurveto
          -5 -2 -7 -12 hvcurveto
          -64 vlineto
          -16 5 -12 11 -11 vhcurveto
          213 -215 rlineto
          -5 5 6 -2 7 hhcurveto
          endchar
        </CharString>
        <CharString name="arrowleft">
          149 callgsubr
          0 597 vstem
          230 hmoveto
          52 hlineto
          12 7 2 6 4 -3 6 -7 8 hvcurveto
          -161 198 rlineto
          443 hlineto
          15 9 10 24 hvcurveto
          13 vlineto
          24 -9 10 -15 vhcurveto
          -443 hlineto
          160 198 rlineto
          7 9 3 6 3 vvcurveto
          6 -6 2 -13 vhcurveto
          -52 hlineto
          -17 -10 -4 -12 -10 hvcurveto
          -185 -230 rlineto
          -5 -6 -2 -4 0 -8 0 -8 2 -5 -5 flex1
          186 -230 rlineto
          -12 10 10 -5 17 hhcurveto
          endchar
        </CharString>
        <CharString name="arrowright">
          149 callgsubr
          4 596 vstem
          319 hmoveto
          52 hlineto
          16 11 5 12 10 hvcurveto
          185 230 rlineto
          5 5 2 5 0 6 0 10 -2 4 6 flex1
          -185 230 rlineto
          12 -10 -11 4 -16 hhcurveto
          -52 hlineto
          -13 -6 -2 -6 -3 3 -6 7 -9 hvcurveto
          160 -198 rlineto
          -442 hlineto
          -16 -8 -10 -24 hvcurveto
          -13 vlineto
          -24 8 -10 16 vhcurveto
          442 hlineto
          -161 -198 rlineto
          -6 -8 -4 -6 -4 vvcurveto
          -6 7 -2 13 vhcurveto
          endchar
        </CharString>
        <CharString name="arrowup">
          -4 18 -7 callgsubr
          hstem
          212 80 vstem
          246 -3 rmoveto
          12 hlineto
          24 10 8 16 hvcurveto
          544 vlineto
          186 -190 rlineto
          -6 6 5 -4 3 hhcurveto
          5 2 7 12 hvcurveto
          64 vlineto
          16 -5 12 -11 11 vhcurveto
          -213 214 rlineto
          -6 6 -4 1 -8 -9 -4 -2 -5 hflex1
          -213 -214 rlineto
          -11 -11 -5 -12 -16 vvcurveto
          -64 vlineto
          -12 2 -7 5 3 5 4 6 6 vhcurveto
          186 190 rlineto
          -544 vlineto
          -16 10 -8 24 vhcurveto
          endchar
        </CharString>
        <CharString name="asciicircum">
          -149 319 366 hstem
          32 296 vstem
          56 319 rmoveto
          14 hlineto
          19 11 8 17 6 hvcurveto
          74 246 74 -246 rlineto
          -17 5 14 -8 18 hhcurveto
          13 hlineto
          17 7 8 12 4 -1 5 -1 5 hvcurveto
          -103 309 rlineto
          17 -6 -9 6 -16 hhcurveto
          -23 hlineto
          -16 -10 -6 -17 -6 hvcurveto
          -103 -309 rlineto
          -1 -5 -1 -5 -4 vvcurveto
          -12 8 -8 16 vhcurveto
          endchar
        </CharString>
        <CharString name="asciitilde">
          -72 223 49 callgsubr
          46 358 hintmask 01100000
          74 224 rmoveto
          -1 5 5 -1 4 hhcurveto
          10 6 4 10 8 hvcurveto
          19 14 11 5 14 hhcurveto
          hintmask 10100000
          39 61 -37 49 hhcurveto
          45 33 23 46 22 hvcurveto
          3 5 1 4 5 vvcurveto
          8 -5 4 -13 4 vhcurveto
          -9 3 rlineto
          2 -5 -4 1 -5 hhcurveto
          -10 -8 -5 -11 -8 hvcurveto
          -18 -14 -11 -5 -15 hhcurveto
          hintmask 01100000
          1 -39 -61 36 -47 hhcurveto
          -46 -33 -22 -47 -21 hvcurveto
          -3 -5 -1 -5 -4 vvcurveto
          -6 4 -6 12 -4 vhcurveto
          endchar
        </CharString>
        <CharString name="asterisk">
          -210 429 280 hstem
          125 46 vstem
          78 429 rmoveto
          5 7 4 7 5 hvcurveto
          53 82 52 -82 rlineto
          -7 5 6 -4 6 hhcurveto
          11 15 11 10 5 -2 5 -4 6 hvcurveto
          -55 88 77 29 rlineto
          11 5 5 4 9 vvcurveto
          16 -9 11 -12 -3 -5 0 -3 -5 vhcurveto
          -70 -26 rlineto
          87 vlineto
          16 -7 7 -16 -16 -7 -7 -16 vhcurveto
          -87 vlineto
          -71 26 rlineto
          3 -5 -5 0 -4 hhcurveto
          -12 -8 -13 -14 -9 5 -4 11 -5 hvcurveto
          76 -29 -54 -88 rlineto
          -5 -6 -2 -5 -5 vvcurveto
          -10 15 -11 12 vhcurveto
          endchar
        </CharString>
        <CharString name="at">
          283 -125 47 133 62 -62 73 305 73 153 47 hstemhm
          55 57 103 88 137 84 146 57 hintmask 1101111110000000
          442 706 rmoveto
          -219 -168 -206 -262 -215 112 -148 165 44 99 11 39 18 -5 8 -9 hvcurveto
          -18 -32 -29 -74 hhcurveto
          -136 -89 127 187 238 144 185 183 138 93 -109 -171 -137 -55 -125 -59 -10 -22 4 33 hvcurveto
          28 27 288 10 vvcurveto
          13 -8 9 -21 vhcurveto
          -8 hlineto
          -25 -4 -8 -32 -10 hvcurveto
          18 -15 -31 26 -43 hhcurveto
          -103 -68 -111 -158 hvcurveto
          hintmask 1011111110000000
          -139 65 -43 52 44 38 24 48 26 vhcurveto
          hintmask 1101111110000000
          -46 7 32 -26 50 hhcurveto
          116 82 144 178 201 -114 128 -171 hvcurveto
          hintmask 1011111110000000
          -491 vmoveto
          -66 -23 -33 -21 -25 hhcurveto
          -33 -25 27 88 102 23 88 75 27 20 -14 -12 12 hvcurveto
          -8 -36 -8 -105 -2 -51 rrcurveto
          endchar
        </CharString>
        <CharString name="atilde">
          -42 callsubr
          58 66 -29 66 47 callgsubr
          hintmask 10110111
          114 3 callgsubr
          hintmask 10111011
          -102 callgsubr
          hintmask 10110111
          -90 callgsubr
          87 -599 18 callgsubr
          hintmask 01110111
          -104 callgsubr
          hintmask 10110111
          -59 callgsubr
        </CharString>
        <CharString name="b">
          -7 87 -61 -21 445 87 223 -20 hstemhm
          70 104 157 107 hintmask 10111100
          283 -7 rmoveto
          93 62 106 165 171 -65 95 -100 -47 -29 -20 -25 -23 hvcurveto
          243 vlineto
          16 -13 9 -31 41 callgsubr
          hintmask 01111100
          -705 vlineto
          -16 12 -9 29 vhcurveto
          7 hlineto
          20 14 3 13 4 hvcurveto
          hintmask 10111100
          10 53 rlineto
          -48 29 42 -26 46 hhcurveto
          -29 87 rmoveto
          -30 -28 22 37 -22 hvcurveto
          268 vlineto
          23 19 25 13 28 hhcurveto
          58 27 -57 -121 -121 -26 -64 -51 hvcurveto
          endchar
        </CharString>
        <CharString name="backslash">
          -220 702 -20 hstem
          1 282 vstem
          236 -21 rmoveto
          20 hlineto
          17 10 8 12 4 -1 5 -2 10 hvcurveto
          -200 660 rlineto
          17 -5 -11 7 -18 hhcurveto
          -18 hlineto
          -18 -9 -8 -11 -4 0 -3 3 -13 hvcurveto
          199 -660 rlineto
          -16 4 12 -8 17 hhcurveto
          endchar
        </CharString>
        <CharString name="bar">
          -309 -139 908 hstem
          61 79 vstem
          95 -139 rmoveto
          11 hlineto
          25 9 8 16 hvcurveto
          860 vlineto
          16 -9 8 -25 vhcurveto
          -11 hlineto
          -24 -10 -8 -16 hvcurveto
          -860 vlineto
          -16 10 -8 24 vhcurveto
          endchar
        </CharString>
        <CharString name="braceleft">
          148 callsubr
          85 vstem
          168 -138 rmoveto
          43 hlineto
          16 7 9 23 hvcurveto
          7 vlineto
          23 -7 9 -15 vhcurveto
          -12 hlineto
          -25 -6 20 35 hvcurveto
          186 vlineto
          86 -48 44 -20 10 vhcurveto
          22 14 46 44 84 vvcurveto
          187 vlineto
          35 6 19 26 vhcurveto
          12 hlineto
          15 6 10 22 hvcurveto
          7 vlineto
          23 -7 9 -16 vhcurveto
          -43 hlineto
          -35 -49 -29 -87 hvcurveto
          -180 vlineto
          -60 -7 -35 -35 -17 vhcurveto
          -17 -8 -9 -10 -20 vvcurveto
          -14 vlineto
          -20 9 -10 17 -8 vhcurveto
          35 -17 7 -36 -59 vvcurveto
          -180 vlineto
          -89 49 -27 35 vhcurveto
          endchar
        </CharString>
        <CharString name="braceright">
          148 callsubr
          84 vstem
          42 -138 rmoveto
          42 hlineto
          35 49 27 89 hvcurveto
          180 vlineto
          59 8 36 35 17 vhcurveto
          17 8 9 10 20 vvcurveto
          14 vlineto
          20 -9 10 -17 8 vhcurveto
          -35 17 -8 35 60 vvcurveto
          180 vlineto
          87 -49 29 -35 vhcurveto
          -42 hlineto
          -16 -7 -9 -23 hvcurveto
          -7 vlineto
          -22 6 -10 15 vhcurveto
          12 hlineto
          26 6 -19 -35 hvcurveto
          -187 vlineto
          -84 46 -44 22 -14 vhcurveto
          -20 -10 -48 -44 -86 vvcurveto
          -186 vlineto
          -35 -6 -20 -25 vhcurveto
          -12 hlineto
          -15 -7 -9 -23 hvcurveto
          -7 vlineto
          -23 7 -9 16 vhcurveto
          endchar
        </CharString>
        <CharString name="bracketleft">
          -270 -138 72 762 72 hstem
          62 83 vstem
          91 -138 rmoveto
          104 hlineto
          16 5 9 23 hvcurveto
          7 vlineto
          23 -5 10 -16 vhcurveto
          -50 762 50 hlineto
          16 5 9 23 hvcurveto
          8 vlineto
          23 -5 9 -16 vhcurveto
          -104 hlineto
          -21 -8 -10 -23 hvcurveto
          -840 vlineto
          -23 8 -10 21 vhcurveto
          endchar
        </CharString>
        <CharString name="bracketright">
          -270 -138 72 762 72 hstem
          95 83 vstem
          45 -138 rmoveto
          104 hlineto
          20 9 10 23 hvcurveto
          840 vlineto
          23 -9 10 -20 vhcurveto
          -104 hlineto
          -15 -7 -9 -23 hvcurveto
          -8 vlineto
          -23 7 -9 15 vhcurveto
          50 -762 -50 hlineto
          -15 -7 -10 -23 hvcurveto
          -7 vlineto
          -23 7 -9 15 vhcurveto
          endchar
        </CharString>
        <CharString name="breve">
          -253 582 73 hstem
          6 241 vstem
          127 -83 callsubr
          endchar
        </CharString>
        <CharString name="brokenbar">
          -309 -140 910 hstem
          61 79 vstem
          95 396 rmoveto
          11 hlineto
          25 9 -73 callsubr
          324 125 callsubr
          -324 vlineto
          -16 10 -9 24 vhcurveto
          -536 vmoveto
          11 hlineto
          25 9 -73 callsubr
          323 125 callsubr
          -323 vlineto
          -16 10 -9 24 vhcurveto
          endchar
        </CharString>
        <CharString name="bullet">
          -211 200 253 hstem
          32 233 vstem
          148 200 rmoveto
          64 53 40 86 86 -53 41 -64 -64 -52 -41 -86 -86 52 -40 64 hvcurveto
          endchar
        </CharString>
        <CharString name="c">
          140 callgsubr
          hstem
          43 108 vstem
          253 -7 -80 callgsubr
        </CharString>
        <CharString name="cacute">
          140 callgsubr
          hstem
          43 108 vstem
          225 -94 callsubr
          28 -589 -80 callgsubr
        </CharString>
        <CharString name="cacute.loclPLK">
          140 callgsubr
          52 151 hstem
          43 108 vstem
          225 582 -82 callsubr
          28 -589 -80 callgsubr
        </CharString>
        <CharString name="caron">
          -253 580 143 hstem
          12 227 vstem
          119 580 -105 callsubr
          endchar
        </CharString>
        <CharString name="caron.alt">
          -253 700 -20 hstem
          54 98 vstem
          77 522 rmoveto
          -15 callsubr
          48 callsubr
          endchar
        </CharString>
        <CharString name="ccaron">
          140 callgsubr
          50 143 hstem
          43 108 vstem
          229 580 -105 callsubr
          24 -587 -80 callgsubr
        </CharString>
        <CharString name="ccedilla">
          -101 -211 56 149 84 367 85 hstem
          43 108 102 74 vstem
          390 50 rmoveto
          16 -20 42 -17 -2 -5 -5 -3 -7 vhcurveto
          -9 -16 -24 -13 -40 hhcurveto
          -77 -31 55 132 131 37 49 70 36 26 -15 -8 15 hvcurveto
          -3 5 4 -2 4 hhcurveto
          13 22 43 17 28 -67 25 -64 -127 -82 -67 -200 -175 60 -82 119 -12 hvcurveto
          -18 -55 -3 -10 -8 -66 callsubr
          14 50 rlineto
          53 5 67 25 26 vvcurveto
          endchar
        </CharString>
        <CharString name="ccircumflex">
          140 callgsubr
          45 143 hstem
          43 108 vstem
          141 575 -107 callgsubr
          112 -582 -80 callgsubr
        </CharString>
        <CharString name="cdotaccent">
          140 callgsubr
          69 103 hstem
          43 108 33 104 vstem
          236 -80 callsubr
          17 -606 -80 callgsubr
        </CharString>
        <CharString name="cedilla">
          -253 -211 56 hstem
          148 74 vstem
          151 -56 rmoveto
          17 59 rlineto
          -48 hlineto
          -21 -63 -3 -11 -8 -66 callsubr
          endchar
        </CharString>
        <CharString name="cent">
          -69 -7 85 -61 -21 449 85 -3 -20 hstemhm
          43 108 60 43 hintmask 00000000
          hintmask 10101100
          390 50 rmoveto
          16 -20 42 -17 -2 -5 -5 -3 -7 vhcurveto
          -9 -16 -24 -13 -40 hhcurveto
          -5 367 4 hlineto
          36 26 -15 -8 15 hvcurveto
          -3 5 4 -2 4 hhcurveto
          13 22 43 17 28 -66 24 -63 1 hvcurveto
          hintmask 01011100
          34 vlineto
          0 14 -7 6 -15 -14 -7 -6 0 hflex1
          -37 vlineto
          -103 -14 -65 -72 -178 vvcurveto
          -170 56 -82 112 -15 vhcurveto
          hintmask 10011100
          -52 vlineto
          0 -14 7 -6 15 14 7 6 0 hflex1
          49 vlineto
          hintmask 10101100
          54 82 28 29 hvcurveto
          hintmask 01011100
          -239 215 rmoveto
          98 21 52 39 20 vhcurveto
          -347 vlineto
          -42 21 -18 56 100 vvcurveto
          endchar
        </CharString>
        <CharString name="circumflex">
          -253 575 143 hstem
          12 227 vstem
          32 575 -107 callgsubr
          endchar
        </CharString>
        <CharString name="colon">
          -321 -2 123 281 123 hstem
          39 110 vstem
          83 402 rmoveto
          -30 callgsubr
          -404 vmoveto
          -30 callgsubr
          endchar
        </CharString>
        <CharString name="comma">
          -321 -119 240 hstem
          48 100 vstem
          45 -119 rmoveto
          40 callgsubr
          -13 20 -4 13 vhcurveto
          endchar
        </CharString>
        <CharString name="copyright">
          83 -6 53 94 53 312 53 98 52 hstem
          9 55 94 63 307 -4 callsubr
          11 94 rmoveto
          41 59 23 21 8 -12 29 -13 hvcurveto
          -6 -24 -28 -45 hhcurveto
          -58 -28 50 106 107 28 49 59 hvcurveto
          44 19 -25 5 hhcurveto
          10 16 29 12 18 -51 19 -42 -100 -51 -69 -140 -143 48 -66 101 hvcurveto
          endchar
        </CharString>
        <CharString name="currency">
          -47 126 76 222 76 hstem
          68 76 169 77 vstem
          91 123 rmoveto
          8 7 3 7 7 hvcurveto
          24 24 rlineto
          -19 26 31 -12 34 hhcurveto
          36 31 12 20 26 hvcurveto
          23 -24 rlineto
          -8 8 7 -3 8 hhcurveto
          7 7 4 5 6 hvcurveto
          9 10 rlineto
          6 6 5 9 5 vvcurveto
          8 -4 7 -8 8 vhcurveto
          -29 29 rlineto
          15 29 9 33 36 vvcurveto
          36 -9 34 -15 29 vhcurveto
          30 31 rlineto
          8 8 3 8 7 vvcurveto
          7 -3 6 -6 6 vhcurveto
          -11 10 rlineto
          7 -6 -8 3 -6 hhcurveto
          -8 -7 -4 -7 -7 hvcurveto
          -25 -25 rlineto
          19 -26 -31 13 -35 hhcurveto
          -34 -31 -13 -20 -25 hvcurveto
          -26 26 rlineto
          8 -7 -8 4 -7 hhcurveto
          -7 -7 -4 -5 -5 hvcurveto
          -11 -13 rlineto
          -6 -5 -2 -8 -5 vvcurveto
          -8 3 -8 7 -7 vhcurveto
          31 -29 rlineto
          -16 -29 -9 -35 -37 vvcurveto
          -36 9 -34 15 -28 vhcurveto
          -29 -29 rlineto
          -7 -8 -4 -8 -7 vvcurveto
          -8 3 -6 6 -6 vhcurveto
          10 -10 rlineto
          -6 7 7 -3 6 hhcurveto
          137 79 rmoveto
          -46 -38 38 72 73 38 39 46 48 37 -39 -73 -72 -37 -38 -48 hvcurveto
          endchar
        </CharString>
        <CharString name="d">
          -28 -7 87 -60 -21 444 87 223 82 callgsubr
          hintmask 10111100
          33 callgsubr
          hintmask 01111100
          -58 callsubr
          hintmask 10111100
          112 callsubr
          29 87 -28 callgsubr
          endchar
        </CharString>
        <CharString name="dagger">
          -81 419 72 callgsubr
          534 111 vlineto
          5 callsubr
          -534 hlineto
          -16 11 -9 26 vhcurveto
          endchar
        </CharString>
        <CharString name="daggerdbl">
          -81 55 88 276 72 callgsubr
          170 111 vlineto
          53 callsubr
          16 85 callgsubr
          vhcurveto
          -111 276 111 hlineto
          5 callsubr
          -276 -113 36 callgsubr
          -16 0 callsubr
          113 -170 hlineto
          -16 11 -9 26 vhcurveto
          endchar
        </CharString>
        <CharString name="dcaron">
          -28 -7 87 -60 -21 444 87 170 -20 73 82 callgsubr
          40 98 hintmask 10111111
          33 callgsubr
          hintmask 01111111
          -58 callsubr
          hintmask 10111111
          112 callsubr
          276 529 rmoveto
          -15 callsubr
          48 callsubr
          -247 -442 -28 callgsubr
          endchar
        </CharString>
        <CharString name="dcroat">
          -42 -7 87 -60 -21 444 87 64 77 82 82 callgsubr
          hintmask 10111110
          453 671 rmoveto
          -41 57 hlineto
          16 -14 9 -30 41 callgsubr
          -57 -81 vlineto
          -17 -8 -10 -23 hvcurveto
          -11 vlineto
          -23 8 -10 17 vhcurveto
          81 -109 hlineto
          25 -23 -30 20 -46 hhcurveto
          -100 -65 -96 -170 -165 61 -106 94 46 41 26 48 28 hvcurveto
          hintmask 01111110
          -32 5 4 -36 26 hhcurveto
          15 59 6 19 hvcurveto
          11 -11 33 88 vvcurveto
          438 41 vlineto
          18 7 10 23 hvcurveto
          11 vlineto
          hintmask 10111110
          23 -7 10 -18 vhcurveto
          -145 -530 rmoveto
          -38 -21 -29 -23 -30 hhcurveto
          -52 -26 65 119 120 28 59 59 28 24 -13 -23 19 hvcurveto
          endchar
        </CharString>
        <CharString name="degree">
          -233 442 49 166 50 hstem
          31 52 106 54 vstem
          137 442 rmoveto
          61 45 47 85 85 -45 48 -61 -61 -45 -48 -85 -85 45 -47 61 hvcurveto
          -1 49 rmoveto
          -32 -21 29 54 53 21 30 32 32 21 -30 -53 -54 -21 -29 -32 hvcurveto
          endchar
        </CharString>
        <CharString name="dieresis">
          -253 599 103 hstem
          17 88 48 88 vstem
          60 599 -99 callgsubr
          endchar
        </CharString>
        <CharString name="divide">
          -61 -2 107 85 78 86 106 hstem
          176 95 vstem
          220 354 rmoveto
          7 hlineto
          31 13 8 16 hvcurveto
          57 -60 callsubr
          -7 142 callsubr
          vlineto
          -16 13 -8 31 vhcurveto
          -169 -164 rmoveto
          347 hlineto
          17 7 12 24 hvcurveto
          7 vlineto
          24 -7 11 -17 vhcurveto
          -347 hlineto
          -16 -8 -11 -24 hvcurveto
          -7 vlineto
          -24 8 -12 16 vhcurveto
          169 -192 rmoveto
          7 -52 callsubr
          57 -60 callsubr
          -7 142 callsubr
          -21 callgsubr
          31 vhcurveto
          endchar
        </CharString>
        <CharString name="dollar">
          -69 -6 94 -69 -21 618 94 -3 -20 73 -20 hstemhm
          39 101 65 42 63 101 hintmask 01011111
          223 -72 rmoveto
          6 hlineto
          13 5 5 12 hvcurveto
          53 vlineto
          100 18 64 71 110 vvcurveto
          122 -81 41 -76 38 vhcurveto
          -7 4 rlineto
          hintmask 01101111
          1 214 rlineto
          31 29 -7 -11 24 hvcurveto
          -2 6 7 -3 6 hhcurveto
          17 14 50 19 -1 hvcurveto
          -1 6 -2 7 -10 6 -32 19 -41 9 -48 1 rrcurveto
          33 vlineto
          12 -5 5 -13 vhcurveto
          -6 hlineto
          -12 -7 -5 -12 1 hvcurveto
          hintmask 10011111
          -36 vlineto
          -100 -14 -66 -72 -107 vvcurveto
          -121 80 -44 86 -40 vhcurveto
          -221 vlineto
          -53 -42 12 28 -39 hvcurveto
          2 -4 -3 3 -5 hhcurveto
          -19 -11 -44 -24 2 hvcurveto
          -18 14 -9 14 -7 vhcurveto
          -25 39 47 -12 60 hhcurveto
          hintmask 01011111
          -49 vlineto
          -12 5 -5 13 vhcurveto
          -18 496 rmoveto
          -39 24 -25 28 -1 44 rrcurveto
          45 24 32 41 13 vhcurveto
          42 -514 rmoveto
          190 vlineto
          35 -20 28 -25 -51 vvcurveto
          -47 -25 -34 -38 -13 vhcurveto
          endchar
        </CharString>
        <CharString name="dotaccent">
          -253 599 103 hstem
          78 104 vstem
          130 -80 callsubr
          endchar
        </CharString>
        <CharString name="dotbelowcomb">
          -509 -183 103 hstem
          -48 104 vstem
          4 -183 -105 callgsubr
          endchar
        </CharString>
        <CharString name="dotlessi">
          141 callsubr
          122 -2 -72 callgsubr
        </CharString>
        <CharString name="e">
          98 callsubr
          257 -7 -98 callgsubr
        </CharString>
        <CharString name="eacute">
          98 callsubr
          221 -94 callsubr
          36 -589 -98 callgsubr
        </CharString>
        <CharString name="ebreve">
          -9 callgsubr
          52 73 107 callsubr
          231 -83 callsubr
          26 -589 -98 callgsubr
        </CharString>
        <CharString name="ecaron">
          -9 callgsubr
          50 143 107 callsubr
          225 580 -105 callsubr
          32 -587 -98 callgsubr
        </CharString>
        <CharString name="ecircumflex">
          -55 -7 85 142 77 150 83 45 143 hstem
          43 107 169 -45 callgsubr
          endchar
        </CharString>
        <CharString name="edieresis">
          -9 callgsubr
          69 103 hstemhm
          43 107 -30 88 48 88 -25 103 hintmask 11110110
          163 599 -99 callgsubr
          hintmask 11111001
          -43 -606 -98 callgsubr
        </CharString>
        <CharString name="edotaccent">
          -9 callgsubr
          69 103 hstemhm
          43 107 30 104 35 103 hintmask 00000000
          hintmask 11111110
          232 -80 callsubr
          hintmask 11111010
          25 -606 -98 callgsubr
        </CharString>
        <CharString name="egrave">
          98 callsubr
          252 582 -100 callgsubr
          5 -589 -98 callgsubr
        </CharString>
        <CharString name="eight">
          -50 -7 85 544 85 hstemhm
          36 102 -82 99 156 98 -86 102 hintmask 11100100
          230 -7 rmoveto
          121 74 82 121 103 -49 46 -56 32 hvcurveto
          hintmask 11011000
          48 26 41 48 85 vvcurveto
          113 -80 58 -96 -103 -74 -64 -114 -81 35 -44 43 -31 vhcurveto
          hintmask 11100100
          -52 -27 -46 -52 -100 vvcurveto
          -128 78 -73 116 vhcurveto
          hintmask 11011000
          15 425 rmoveto
          -49 25 -41 27 64 vvcurveto
          60 35 28 42 43 36 -28 -62 -53 -26 -35 -40 -26 vhcurveto
          hintmask 11100100
          -15 -340 rmoveto
          -51 -41 37 84 67 27 37 41 28 hvcurveto
          60 -29 57 -26 -82 vvcurveto
          -68 -38 -48 -55 vhcurveto
          endchar
        </CharString>
        <CharString name="ellipsis">
          43 -2 123 hstem
          39 108 75 108 75 108 vstem
          83 -2 rmoveto
          20 -52 callsubr
          73 -60 callsubr
          -20 -87 callgsubr
          -73 -21 callgsubr
          31 vhcurveto
          183 hmoveto
          20 -52 callsubr
          73 -60 callsubr
          -20 -87 callgsubr
          -73 -21 callgsubr
          31 vhcurveto
          182 hmoveto
          13 callgsubr
          73 vlineto
          16 -13 9 -31 vhcurveto
          -21 103 callsubr
        </CharString>
        <CharString name="emacron">
          -9 callgsubr
          78 77 107 callsubr
          135 608 -84 callgsubr
          122 -615 -98 callgsubr
        </CharString>
        <CharString name="emdash">
          377 225 80 hstem
          0 886 vstem
          22 225 rmoveto
          842 60 callgsubr
          -842 22 callgsubr
        </CharString>
        <CharString name="endash">
          -66 225 80 hstem
          0 443 vstem
          22 225 rmoveto
          399 60 callgsubr
          -399 22 callgsubr
        </CharString>
        <CharString name="eng">
          -212 85 146 81 callgsubr
          302 -212 rmoveto
          53 65 30 111 hvcurveto
          449 vlineto
          96 -44 56 -80 -54 -45 -31 -45 -29 vhcurveto
          26 callgsubr
          34 18 29 25 33 hhcurveto
          43 18 -28 -51 hvcurveto
          -429 vlineto
          -48 -14 -13 -19 vhcurveto
          -21 -7 5 -7 hhcurveto
          -15 -8 -42 -12 -30 41 -6 37 hvcurveto
          endchar
        </CharString>
        <CharString name="eogonek">
          -55 -171 65 99 -25 callsubr
          hstemhm
          43 107 128 63 -22 103 136 callsubr
          426 -100 rmoveto
          43 callgsubr
          27 12 18 16 15 vvcurveto
          14 -23 44 -17 vhcurveto
          -55 callgsubr
          hintmask 01111010
          232 hlineto
          13 26 33 13 170 -57 94 -122 -127 -73 -86 -186 -177 69 -88 145 hvcurveto
          hintmask 11111100
          13 14 1 2 13 hvcurveto
          -14 -29 -5 -30 -18 -49 callsubr
          hintmask 01111010
          -185 547 rmoveto
          53 25 -48 -102 hvcurveto
          -169 hlineto
          105 5 30 45 56 hhcurveto
          endchar
        </CharString>
        <CharString name="equal">
          77 callsubr
          -332 39 callgsubr
          332 58 callsubr
        </CharString>
        <CharString name="estimated">
          106 -7 55 307 50 252 50 hstem
          22 133 309 129 vstem
          155 355 rmoveto
          438 hlineto
          227 -127 125 -154 -159 -131 -125 -227 -232 135 -130 163 81 77 39 65 55 vhcurveto
          6 8 4 7 6 vvcurveto
          12 -14 16 -16 -8 -7 -6 -9 -6 vhcurveto
          -52 -38 -74 -31 -60 hhcurveto
          -64 -58 23 45 -43 hvcurveto
          157 541 rmoveto
          57 54 -23 -45 41 hvcurveto
          -184 -309 185 vlineto
          44 41 55 23 61 hhcurveto
          endchar
        </CharString>
        <CharString name="eth">
          -32 -7 85 363 85 65 53.5 -26 52.5 hstemhm
          43 106 179 106 hintmask 11011100
          332 615 rmoveto
          56 7 rlineto
          12 1 5 5 8 vvcurveto
          9 -10 26 -18 -4 -42 -6 -5 -29 vhcurveto
          hintmask 11101100
          -14 18 -10 13 -11 12 rrcurveto
          7 -8 -9 4 -13 hhcurveto
          -14 -12 -2 -1 -11 hvcurveto
          -12 -2 -5 -5 -7 vvcurveto
          -9 15 -19 15 -20 vhcurveto
          -64 -9 rlineto
          -11 -2 -6 -5 -7 vvcurveto
          -16 14 -19 16 2 3 1 10 74 vhcurveto
          15 -26 14 -27 11 -27 rrcurveto
          3 -14 -14 1 -14 hhcurveto
          -127 -69 -95 -171 -173 68 -94 128 128 67 94 174 hvcurveto
          hintmask 11011100
          130 -40 117 -62 107 vhcurveto
          -94 -537 rmoveto
          -62 -27 56 127 126 27 54 62 62 28 -55 -125 -127 -28 -56 -62 hvcurveto
          endchar
        </CharString>
        <CharString name="exclam">
          -263 -2 123 581 -20 hstemhm
          66 109 -95 82 hintmask 11010000
          117 208 rmoveto
          8 hlineto
          29 6 9 16 2 hvcurveto
          11 148 12 149 11 148 rrcurveto
          15 -15 9 -28 vhcurveto
          -29 -87 callgsubr
          -444 vlineto
          -16 8 -9 29 vhcurveto
          hintmask 11100000
          -8 -210 rmoveto
          23 hlineto
          31 118 callsubr
          73 vlineto
          16 -12 9 -31 vhcurveto
          -23 103 callsubr
        </CharString>
        <CharString name="exclamdown">
          -263 402 123 hstemhm
          51 116 -95 110 hintmask 10100000
          116 402 rmoveto
          -30 callgsubr
          hintmask 11000000
          -22 -581 rmoveto
          30 hlineto
          31 118 callsubr
          444 vlineto
          16 -7 9 -29 vhcurveto
          -9 hlineto
          -28 -6 -9 -16 -1 hvcurveto
          -13 -148 -23 -274 -24 vvcurveto
          -15 15 -8 28 vhcurveto
          endchar
        </CharString>
        <CharString name="f">
          -223 19 83 callgsubr
          hstem
          88 102 vstem
          134 -2 rmoveto
          -19 callgsubr
          415 57 vlineto
          7 callgsubr
          -57 92 hlineto
          -53 callsubr
          -415 hlineto
          -18 callsubr
          endchar
        </CharString>
        <CharString name="f_f">
          63 19 83 callgsubr
          hstem
          88 102 184 102 vstem
          533 523 rmoveto
          -57 92 hlineto
          48 16 9 22 vhcurveto
          18 8 -6 8 hhcurveto
          16 9 47 8 26 -47 10 -30 -57 -65 -27 -110 hvcurveto
          -97 -184 92 vlineto
          -53 callsubr
          -415 hlineto
          -18 callsubr
          -19 callgsubr
          415 184 102 callsubr
          415 57 vlineto
          7 callgsubr
          endchar
        </CharString>
        <CharString name="f_t">
          75 -7 85 -64 -21 26 83 callgsubr
          hstemhm
          88 102 177 103 hintmask 00000000
          hintmask 10011110
          537 83 rmoveto
          10 callgsubr
          305 58 vlineto
          6 callsubr
          -58 102 hlineto
          16 -11 9 -25 vhcurveto
          -16 hlineto
          -24 -13 -9 -16 -1 hvcurveto
          -13 -102 rlineto
          -177 92 hlineto
          -53 callsubr
          hlineto
          hintmask 00111110
          102 callsubr
          415 177 -313 vlineto
          hintmask 01011110
          -104 62 -28 54 27 50 7 28 vhcurveto
          hintmask 10011110
          116 callsubr
          endchar
        </CharString>
        <CharString name="fi">
          31 19 -21 440 85 76 103 -30 85 hstemhm
          88 102 172 102 hintmask 11101100
          418 523 rmoveto
          -228 hlineto
          hintmask 11011100
          92 vlineto
          -53 callsubr
          -415 hlineto
          -18 callsubr
          -19 callgsubr
          415 172 102 callsubr
          477 vlineto
          hintmask 11101100
          15 -13 8 -33 vhcurveto
          -4 179 -10 callsubr
        </CharString>
        <CharString name="five">
          -50 -7 85 264 85 188 85 hstem
          61 108 146 104 vstem
          201 -7 rmoveto
          103 115 50 169 168 -112 47 -108 hvcurveto
          -36 hlineto
          12 188 rlineto
          192 hlineto
          16 7 10 23 hvcurveto
          16 66 callgsubr
          -16 vhcurveto
          -254 hlineto
          -23 -10 -10 -23 -1 hvcurveto
          -18 -292 rlineto
          -23 7 -10 24 vhcurveto
          80 hlineto
          95 48 -45 -85 -88 -55 -46 -63 hvcurveto
          -72 -39 37 -14 hhcurveto
          -14 -26 -39 -19 -29 69 -35 100 hvcurveto
          endchar
        </CharString>
        <CharString name="fl">
          47 -7 85 -64 -21 26 83 callgsubr
          -4 -20 hstemhm
          88 102 165 102 hintmask 00110111
          134 -2 rmoveto
          -19 callgsubr
          415 57 vlineto
          7 callgsubr
          -57 hlineto
          hintmask 00111011
          92 vlineto
          -53 callsubr
          -415 hlineto
          hintmask 00110111
          -18 callsubr
          hintmask 01010111
          333 -5 76 callgsubr
          hintmask 10010111
          -61 callsubr
          hintmask 01010111
          116 callgsubr
          endchar
        </CharString>
        <CharString name="florin">
          -180 -186 -21 638 85 156 85 hstem
          91.5 102 vstem
          50 -207 rmoveto
          16 hlineto
          33 12 8 16 2 hvcurveto
          66 614 rlineto
          71 hlineto
          29 2 51 11 16 -6 7 -13 hvcurveto
          -74 hlineto
          11 91 rlineto
          56 6 24 9 28 23 7 -5 8 hhcurveto
          16 15 44 11 1 hvcurveto
          32 -45 3 -31 -62 -79 -27 -118 -13 vhcurveto
          -11 -96 rlineto
          -36 hlineto
          -29 -2 -45 -18 -15 6 -7 13 hvcurveto
          39 hlineto
          -34 -339 -33 -267 -8 vvcurveto
          -16 9 -8 31 vhcurveto
          endchar
        </CharString>
        <CharString name="four">
          -50 19 -21 162 85 457 -20 hstem
          272 102 vstem
          311 -2 rmoveto
          25 hlineto
          27 11 -73 callsubr
          137 48 vlineto
          7 callgsubr
          -48 432 hlineto
          16 -11 9 -27 vhcurveto
          -29 hlineto
          -19 -16 -3 -13 -8 hvcurveto
          -252 -452 rlineto
          -1 -3 -1 -3 -5 vvcurveto
          -21 15 -42 12 vhcurveto
          236 -137 hlineto
          -16 11 -9 27 vhcurveto
          -197 247 rmoveto
          164 298 4 -2 rlineto
          -6 -38 -4 -34 -54 vvcurveto
          -170 vlineto
          endchar
        </CharString>
        <CharString name="fraction">
          -298 57 callgsubr
          -68 354 vstem
          -50 -2 rmoveto
          11 hlineto
          15 10 8 16 8 hvcurveto
          288 648 rlineto
          3 5 1 5 5 vvcurveto
          10 -6 7 -11 vhcurveto
          -12 hlineto
          -14 -12 -8 -16 -7 hvcurveto
          -288 -648 rlineto
          -2 -5 -2 -5 -5 vvcurveto
          -11 7 -6 11 vhcurveto
          endchar
        </CharString>
        <CharString name="g">
          -38 33 callsubr
          83 callsubr
          139 88 -66 90 hintmask 0000000000000000
          hintmask 1100100010000000
          222 -212 16 callgsubr
          hintmask 1100001100000000
          -60 callgsubr
          hintmask 1001010010000000
          -1 callsubr
          hintmask 1100001010000000
          8 callgsubr
          hintmask 1100100010000000
          35 callsubr
          hintmask 1010010100000000
          -15 callgsubr
          hintmask 1100100010000000
          -29 callsubr
        </CharString>
        <CharString name="g.ss01">
          15 callsubr
          hstemhm
          36 104 160 102 hintmask 00000000
          hintmask 11011100
          366 525 45 callgsubr
          hintmask 11101100
          -70 callgsubr
          hintmask 11011100
          8 callsubr
          hintmask 11101100
          -31 callgsubr
        </CharString>
        <CharString name="gbreve">
          -38 33 callsubr
          52 73 83 callsubr
          139 88 -66 90 hintmask 1100101001000000
          230 -83 callsubr
          hintmask 1100110001000000
          -8 -794 -56 callgsubr
        </CharString>
        <CharString name="gbreve.ss01">
          15 callsubr
          77 73 hstemhm
          36 104 160 102 hintmask 11101110
          233 -83 callsubr
          hintmask 11011110
          133 -57 45 callgsubr
          hintmask 11101110
          -70 callgsubr
          hintmask 11011110
          8 callsubr
          hintmask 11101110
          -31 callgsubr
        </CharString>
        <CharString name="gcircumflex">
          -38 33 callsubr
          45 143 83 callsubr
          139 88 -66 90 hintmask 1100101001000000
          136 575 -107 callgsubr
          hintmask 1100110001000000
          86 -787 -56 callgsubr
        </CharString>
        <CharString name="gcircumflex.ss01">
          15 callsubr
          70 143 hstemhm
          36 104 160 102 hintmask 11101110
          139 575 -107 callgsubr
          hintmask 11011110
          227 -50 45 callgsubr
          hintmask 11101110
          -70 callgsubr
          hintmask 11011110
          8 callsubr
          hintmask 11101110
          -31 callgsubr
        </CharString>
        <CharString name="gcommaaccent">
          -72 33 callsubr
          52 185 83 callsubr
          4 94 41 88 -66 90 hintmask 0000000000000000
          hintmask 1100110010100000
          258 767 rmoveto
          -27 -58 -65 -87 -20 12 -13 26 hvcurveto
          99 callsubr
          vhcurveto
          -36 -979 16 callgsubr
          hintmask 1100000101000000
          -60 callgsubr
          hintmask 1001001000100000
          -1 callsubr
          hintmask 1100000100100000
          8 callgsubr
          hintmask 1100010000100000
          -48 -24 -30 -42 -57 vvcurveto
          hintmask 1100110010100000
          -92 73 -35 108 vhcurveto
          hintmask 1010001001000000
          -15 callgsubr
          hintmask 1100010000100000
          -29 callsubr
        </CharString>
        <CharString name="gcommaaccent.ss01">
          15 callsubr
          77 185 hstemhm
          36 104 46 94 20 102 hintmask 00000000
          hintmask 11101111
          224 582 rmoveto
          99 callsubr
          -27 -58 -65 -87 -20 12 -13 26 vhcurveto
          hintmask 11010101
          142 -57 45 callgsubr
          hintmask 11100101
          -70 callgsubr
          hintmask 11010101
          8 callsubr
          hintmask 11100101
          -31 callgsubr
        </CharString>
        <CharString name="gdotaccent">
          -38 33 callsubr
          69 103 83 callsubr
          10 104 25 88 -66 90 hintmask 1100101010100000
          231 -80 callsubr
          hintmask 1100110010100000
          -9 -811 16 callgsubr
          hintmask 1100100111000000
          -60 callgsubr
          hintmask 1001101010100000
          -1 callsubr
          hintmask 1100100110100000
          8 callgsubr
          hintmask 1100110010100000
          35 callsubr
          hintmask 1010101011000000
          -15 callgsubr
          hintmask 1100110010100000
          -29 callsubr
        </CharString>
        <CharString name="gdotaccent.ss01">
          15 callsubr
          94 103 hstemhm
          36 104 42 104 14 102 hintmask 00000000
          hintmask 11101111
          234 -80 callsubr
          hintmask 11011101
          132 -74 45 callgsubr
          hintmask 11101101
          -70 callgsubr
          hintmask 11011101
          8 callsubr
          hintmask 11101101
          -31 callgsubr
        </CharString>
        <CharString name="germandbls">
          -29 0 85 243 85 206 88 hstemhm
          70 104 142 107 -86 105 hintmask 11110100
          115 -2 rmoveto
          16 hlineto
          30 -70 callsubr
          505 vlineto
          58 26 33 46 vhcurveto
          hintmask 11111000
          40 30 -24 -71 -68 -32 -43 -41 hvcurveto
          -5 hlineto
          -14 -6 -11 -24 hvcurveto
          -14 vlineto
          hintmask 11110100
          -25 6 -11 16 vhcurveto
          12 hlineto
          50 35 -42 -81 -79 -34 -41 -46 hvcurveto
          -17 hlineto
          -16 -6 -11 -25 hvcurveto
          -13 vlineto
          -25 6 -11 16 vhcurveto
          21 hlineto
          108 73 72 132 90 -33 64 -69 23 hvcurveto
          3 vlineto
          hintmask 11111000
          51 25 32 58 69 vvcurveto
          124 -81 47 -94 -114 -64 -75 -109 vhcurveto
          -500 vlineto
          hintmask 11110100
          -16 14 -9 31 vhcurveto
          endchar
        </CharString>
        <CharString name="grave">
          -253 114 callgsubr
          47 159 vstem
          183 582 -100 callgsubr
          endchar
        </CharString>
        <CharString name="gravecomb">
          -509 114 callgsubr
          -114 159 vstem
          22 582 -100 callgsubr
          endchar
        </CharString>
        <CharString name="greater">
          136 callgsubr
          33 380 vstem
          60 11 rmoveto
          332 175 rlineto
          15 8 6 11 18 vvcurveto
          18 vlineto
          18 -6 11 -15 8 vhcurveto
          -329 173 rlineto
          -22 11 -7 -12 -24 vvcurveto
          -15 vlineto
          -23 6 -11 15 -9 vhcurveto
          248 -136 -248 -136 rlineto
          -17 -10 -5 -10 -24 vvcurveto
          -14 vlineto
          -22 5 -16 22 11 vhcurveto
          endchar
        </CharString>
        <CharString name="greaterequal">
          -56 0 83 hstem
          35 380 vstem
          35 147 rmoveto
          -25 5 -12 21 11 vhcurveto
          332 169 rlineto
          15 8 7 10 18 vvcurveto
          18 vlineto
          18 -7 11 -15 8 vhcurveto
          -331 168 rlineto
          -20 10 -5 -10 -26 vvcurveto
          -11 vlineto
          -25 5 -10 15 -8 vhcurveto
          248 -134 -249 -133 rlineto
          -14 -9 -7 -11 -18 vvcurveto
          24 -164 rmoveto
          332 hlineto
          16 8 11 25 hvcurveto
          11 vlineto
          24 -8 12 -16 vhcurveto
          -332 hlineto
          -17 -7 -12 -24 hvcurveto
          -11 -24 callsubr
          17 vhcurveto
          endchar
        </CharString>
        <CharString name="guillemotleft">
          -104 58 400 hstem
          27 342 vstem
          163 58 rmoveto
          15 29 16 17 7 -3 7 -4 6 hvcurveto
          -92 147 92 54 callsubr
          -12 -4 -9 0 -12 0 -12 4 -9 -12 133 callsubr
          162 hmoveto
          15 29 16 17 7 -3 7 -4 6 hvcurveto
          -91 147 91 54 callsubr
          -13 -4 -8 0 -12 0 -12 4 -8 -13 133 callsubr
          endchar
        </CharString>
        <CharString name="guillemotright">
          -104 58 400 hstem
          33 341 vstem
          78 58 rmoveto
          6 8 3 9 6 hvcurveto
          103 155 rlineto
          7 13 5 8 0 12 0 12 -5 8 13 68 callsubr
          92 -146 -92 119 callsubr
          161 hmoveto
          7 7 3 9 6 hvcurveto
          103 155 rlineto
          8 12 4 9 0 12 0 12 -4 9 12 68 callsubr
          93 -146 -93 119 callsubr
          endchar
        </CharString>
        <CharString name="guilsinglleft">
          -262 58 400 hstem
          28 181 vstem
          163 58 rmoveto
          15 31 17 16 7 -3 7 -4 7 hvcurveto
          -92 146 92 146 rlineto
          4 7 3 7 6 vvcurveto
          19 -32 15 -14 -7 -7 -3 -9 -7 vhcurveto
          -102 -155 rlineto
          -8 -13 -4 -8 0 -12 0 -12 4 -8 -13 flex1
          102 -155 rlineto
          -9 7 7 -3 7 hhcurveto
          endchar
        </CharString>
        <CharString name="guilsinglright">
          -262 58 400 hstem
          32 181 vstem
          78 58 rmoveto
          7 7 3 9 7 hvcurveto
          102 155 rlineto
          8 13 4 8 0 12 0 12 -4 8 13 flex1
          -102 155 rlineto
          9 -7 -7 3 -7 hhcurveto
          -14 -32 -15 -19 -6 3 -7 4 -7 hvcurveto
          93 -146 -93 -146 rlineto
          -4 -7 -3 -7 -7 vvcurveto
          -16 31 -17 15 vhcurveto
          endchar
        </CharString>
        <CharString name="h">
          -24 113 callgsubr
          223 -20 hstem
          72 105 142 104 vstem
          116 -2 rmoveto
          -41 callsubr
          -54 -42 -30 -38 -27 vhcurveto
          266 -12 callgsubr
          -31 -13 -9 -16 hvcurveto
          -705 -21 callgsubr
          31 vhcurveto
          endchar
        </CharString>
        <CharString name="hbar">
          -24 113 callgsubr
          64 77 82 -20 hstem
          72 105 142 104 vstem
          300 530 rmoveto
          -54 -42 -30 -38 -27 hvcurveto
          132 76 vlineto
          18 7 10 23 hvcurveto
          11 vlineto
          23 -7 10 -18 vhcurveto
          -76 57 hlineto
          -23 callgsubr
          -30 vhcurveto
          -18 142 callsubr
          -45 vlineto
          -17 -8 -10 -23 hvcurveto
          -11 vlineto
          -23 8 -10 17 vhcurveto
          45 -571 hlineto
          -16 13 -9 31 vhcurveto
          -41 callsubr
          vhcurveto
          endchar
        </CharString>
        <CharString name="hcircumflex">
          -24 113 callgsubr
          223 -20 50 143 hstemhm
          72 105 142 104 136 callsubr
          31 783 -107 callgsubr
          85 -785 rmoveto
          -41 callsubr
          -54 -42 -30 -38 -27 vhcurveto
          hintmask 11101100
          266 -12 callgsubr
          -31 -13 -9 -16 hvcurveto
          -705 vlineto
          hintmask 11111100
          -16 13 -9 31 vhcurveto
          endchar
        </CharString>
        <CharString name="hookabovecomb">
          -509 696 54 hstem
          -204 70 vstem
          -228 565 -96 callgsubr
          endchar
        </CharString>
        <CharString name="hungarumlaut">
          -202 114 callgsubr
          8 298 vstem
          32 582 -83 callgsubr
          endchar
        </CharString>
        <CharString name="hyphen">
          -253 225 80 hstem
          25 204 vstem
          47 225 rmoveto
          161 hlineto
          15 117 callsubr
          9 vlineto
          25 -6 10 -15 vhcurveto
          -161 22 callgsubr
        </CharString>
        <CharString name="i">
          64 callgsubr
          94 103 hstem
          76 102 vstem
          -39 callsubr
          endchar
        </CharString>
        <CharString name="i.loclTRK">
          64 callgsubr
          94 103 hstem
          76 102 vstem
          -39 callsubr
          endchar
        </CharString>
        <CharString name="iacute">
          141 callsubr
          117 -94 callsubr
          5 -584 -72 callgsubr
        </CharString>
        <CharString name="iacute_j.loclNLD">
          -6 -212 85 146 -21 527 -20 hstem
          76 102 152 102 vstem
          117 -94 callsubr
          254 hmoveto
          -106 callgsubr
          -249 -584 -87 callsubr
          194 -210 -84 callsubr
        </CharString>
        <CharString name="ibreve">
          64 callgsubr
          77 73 hstem
          76 102 vstem
          127 -83 callsubr
          -5 -584 -72 callgsubr
        </CharString>
        <CharString name="icircumflex">
          64 callgsubr
          70 143 hstem
          76 102 vstem
          33 575 -107 callgsubr
          89 -577 -72 callgsubr
        </CharString>
        <CharString name="idieresis">
          64 callgsubr
          94 103 hstemhm
          16 88 -28 102 -26 88 hintmask 00000000
          hintmask 11110100
          59 599 -99 callgsubr
          hintmask 11101000
          -74 -26 callsubr
          endchar
        </CharString>
        <CharString name="igrave">
          141 callsubr
          148 582 -100 callgsubr
          -26 -584 -72 callgsubr
        </CharString>
        <CharString name="ij">
          -6 -212 85 146 -21 527 -20 94 103 hstem
          76 102 152 35 callgsubr
          254 hmoveto
          36 16 -73 callsubr
          140 callsubr
          -37 -15 -10 -15 vhcurveto
          138 callsubr
          vhcurveto
          -260 -26 callsubr
          194 -210 -84 callsubr
        </CharString>
        <CharString name="imacron">
          64 callgsubr
          103 77 hstem
          76 102 vstem
          31 608 -84 callgsubr
          91 -610 -72 callgsubr
        </CharString>
        <CharString name="infinity">
          121 114 72 -72 75 181 75 -72 72 hstemhm
          38 81 393 81 hintmask 01101100
          458 445 rmoveto
          -64 -49 -45 -66 -28 hvcurveto
          hintmask 01011100
          74 -29 -47 37 -59 hhcurveto
          -84 -60 -69 -98 -94 56 -70 79 64 50 45 66 28 hvcurveto
          hintmask 10101100
          -74 28 48 -37 58 hhcurveto
          84 60 69 98 hvcurveto
          hintmask 01101100
          94 -55 70 -80 vhcurveto
          -276 -256 rmoveto
          -40 -23 40 51 hvcurveto
          hintmask 01011100
          53 26 40 39 32 30 -29 -68 23 vhcurveto
          hintmask 01101100
          -42 -17 -29 -45 -41 hhcurveto
          hintmask 10101100
          266 -3 rmoveto
          -33 -29 29 68 -23 hvcurveto
          42 16 30 45 41 hhcurveto
          40 22 -40 -51 -53 -26 -40 -38 hvcurveto
          endchar
        </CharString>
        <CharString name="integral">
          -211 -162 74 888 75 hstem
          96 107 vstem
          67 -162 rmoveto
          88 48 78 175 hvcurveto
          169 -11 189 161 vvcurveto
          134 16 56 42 vhcurveto
          17 10 -7 4 hhcurveto
          13 10 18 25 32 -50 7 -22 -89 -47 -79 -175 hvcurveto
          -168 11 -187 -164 vvcurveto
          -134 -16 -56 -42 vhcurveto
          -18 -9 7 -5 hhcurveto
          -12 -11 -18 -24 -33 51 -6 22 hvcurveto
          endchar
        </CharString>
        <CharString name="iogonek">
          -255 -180 65 135 -21 526 -20 94 103 hstemhm
          76 102 -95 63 hintmask 11111000
          128 -80 callsubr
          103 -708 21 callgsubr
          19 7 29 15 29 hvcurveto
          7 4 3 6 8 vvcurveto
          477 -57 callsubr
          -33 vhcurveto
          -10 hlineto
          -32 -16 callsubr
          -477 vlineto
          -13 10 -9 22 -2 vhcurveto
          hintmask 11110100
          -19 -34 -6 -34 -21 -38 callsubr
          hintmask 11111000
          65 callsubr
          endchar
        </CharString>
        <CharString name="itilde">
          -281 115 callgsubr
          83 49 callgsubr
          76 102 hintmask 11011000
          2 589 80 callsubr
          hintmask 11101000
          29 20 callgsubr
          -11 -8 -5 -12 hhcurveto
          hintmask 11011000
          1 -30 -46 36 -37 4 callsubr
          130 -594 -72 callgsubr
        </CharString>
        <CharString name="j">
          -260 -212 85 652 -20 94 103 hstem
          76 102 vstem
          128 -13 callgsubr
        </CharString>
        <CharString name="jcircumflex">
          -260 -212 85 652 -20 70 143 hstem
          76 102 vstem
          33 575 -107 callgsubr
          29 -787 -84 callsubr
        </CharString>
        <CharString name="k">
          -57 19 -21 257 35 235 -20 248 -20 hstem
          76 104 vstem
          -27 callsubr
          endchar
        </CharString>
        <CharString name="kcommaaccent">
          -57 112 callgsubr
          257 35 235 -20 248 -20 hstemhm
          76 104 8 94 hintmask 11111100
          -27 callsubr
          hintmask 11111110
          -182 -81 rmoveto
          -13 hlineto
          -30 -13 -14 -21 hvcurveto
          -78 -24 -34 -21 vvcurveto
          -14 20 -3 13 27 58 65 87 20 -12 13 -26 vhcurveto
          endchar
        </CharString>
        <CharString name="kgreenlandic">
          -57 19 -21 249 48 230 -20 hstem
          76 104 vstem
          120 -2 rmoveto
          5 callgsubr
          224 6 vlineto
          133 -234 rlineto
          -14 7 16 -1 22 hhcurveto
          26 hlineto
          30 13 4 11 4 -2 4 -5 9 hvcurveto
          -148 248 130 209 rlineto
          7 12 146 callsubr
          8 -11 6 -28 vhcurveto
          -23 hlineto
          -21 -17 -2 -13 -7 hvcurveto
          -125 -215 rlineto
          -5 205 hlineto
          -23 callgsubr
          -30 vhcurveto
          -17 -87 callgsubr
          -477 -21 callgsubr
          31 vhcurveto
          endchar
        </CharString>
        <CharString name="l">
          -239 -7 105 callsubr
          hintmask 01110000
          74 callsubr
          hintmask 10110000
          -61 callsubr
          hintmask 01110000
          116 callgsubr
          endchar
        </CharString>
        <CharString name="lacute">
          -239 -7 105 callsubr
          hintmask 01110000
          110 779 -106 callsubr
          71 -786 76 callgsubr
          hintmask 10110000
          -61 callsubr
          hintmask 01110000
          116 callgsubr
          endchar
        </CharString>
        <CharString name="lcaron">
          -239 -7 85 -64 -21 708 -20 72 -20 hstemhm
          69 102 60 98 hintmask 01111000
          74 callsubr
          hintmask 10111000
          -61 callsubr
          hintmask 01111000
          116 callgsubr
          hintmask 01111100
          73 530 rmoveto
          -15 callsubr
          48 callsubr
          endchar
        </CharString>
        <CharString name="lcommaaccent">
          -239 -215 -21 229 105 callsubr
          -64 94 hintmask 10111000
          74 callsubr
          hintmask 11011000
          -61 callsubr
          hintmask 10111000
          116 callgsubr
          hintmask 10110100
          -65 -229 -82 callgsubr
          endchar
        </CharString>
        <CharString name="ldot">
          -200 -7 85 -64 -21 310 114 336 -20 hstemhm
          69 102 42 109 hintmask 01111000
          74 callsubr
          hintmask 10111000
          -61 callsubr
          hintmask 01111000
          116 callgsubr
          hintmask 01111100
          86 310 24 callgsubr
        </CharString>
        <CharString name="less">
          136 callgsubr
          31 380 vstem
          384 11 rmoveto
          22 -11 5 16 22 vvcurveto
          14 vlineto
          24 -5 10 -17 10 vhcurveto
          -248 136 248 136 rlineto
          15 9 6 11 23 vvcurveto
          15 vlineto
          24 -7 12 -22 -11 vhcurveto
          -329 -173 rlineto
          -15 -8 -6 -11 -18 vvcurveto
          -18 vlineto
          -18 6 -11 15 -8 vhcurveto
          endchar
        </CharString>
        <CharString name="lessequal">
          -56 0 83 hstem
          33 380 vstem
          387 121 rmoveto
          26 26 rlineto
          17 vlineto
          18 -7 11 -14 9 vhcurveto
          -249 133 248 134 rlineto
          15 8 5 10 25 vvcurveto
          11 vlineto
          26 -5 10 -20 -10 vhcurveto
          -331 -168 rlineto
          -15 -8 -7 -11 -18 vvcurveto
          -18 vlineto
          -18 7 -10 15 -8 vhcurveto
          334 -290 rmoveto
          17 7 11 25 hvcurveto
          11 vlineto
          24 -7 12 -17 vhcurveto
          -332 104 callgsubr
        </CharString>
        <CharString name="logicalnot">
          -60 258 83 hstem
          336 86 vstem
          365 76 rmoveto
          27 hlineto
          21 9 8 16 hvcurveto
          208 vlineto
          23 -9 10 -21 vhcurveto
          -344 36 callgsubr
          -11 0 callsubr
          288 -158 hlineto
          -16 9 -8 20 vhcurveto
          endchar
        </CharString>
        <CharString name="longs">
          -236 19 83 callgsubr
          hstem
          82 103 vstem
          128 -2 rmoveto
          11 hlineto
          32 14 -73 callsubr
          592 vlineto
          48 16 9 22 vhcurveto
          18 8 -6 8 hhcurveto
          16 8 47 8 26 -47 10 -30 -56 -66 -27 -110 hvcurveto
          -97 -24 vlineto
          -48 callgsubr
          24 -415 hlineto
          -18 callsubr
          endchar
        </CharString>
        <CharString name="lozenge">
          -63 -20 736 hstem
          36 377 vstem
          215 -20 rmoveto
          18 hlineto
          22 15 6 16 7 hvcurveto
          131 323 rlineto
          3 9 2 6 0 7 0 8 -2 6 7 flex1
          -134 326 rlineto
          17 -6 -15 5 -22 hhcurveto
          -13 hlineto
          -20 -17 -5 -17 -5 hvcurveto
          -135 -326 rlineto
          -4 -7 -1 -6 0 -8 0 -6 1 -7 -8 flex1
          132 -324 rlineto
          -16 6 15 -6 21 hhcurveto
          9 109 rmoveto
          -94 258 94 257 94 -257 rlineto
          endchar
        </CharString>
        <CharString name="lslash">
          -233 -7 85 675 -20 hstemhm
          75 102 hintmask 00000000
          hintmask 11100000
          239 83 rmoveto
          -6 -7 -5 -16 hhcurveto
          -19 -14 11 39 hvcurveto
          270 vlineto
          39 23 rlineto
          14 8 7 10 17 vvcurveto
          10 vlineto
          10 -4 5 -6 -3 -3 -1 -3 -5 vhcurveto
          -39 -23 rlineto
          274 vlineto
          16 -14 57 callsubr
          -67 callsubr
          -334 vlineto
          -25 -15 rlineto
          -13 -9 -8 -10 -16 vvcurveto
          -10 vlineto
          -10 4 -6 6 2 5 2 3 4 vhcurveto
          25 15 rlineto
          -215 vlineto
          -102 59 -28 53 29 47 9 26 12 -8 43 -16 vhcurveto
          endchar
        </CharString>
        <CharString name="m">
          211 113 callgsubr
          hstem
          70 104 137 105 137 104 vstem
          535 530 rmoveto
          -55 -47 -33 -42 -29 hvcurveto
          53 -20 -42 22 -49 hhcurveto
          -55 -44 -34 -42 -26 hvcurveto
          26 callgsubr
          21 8 28 38 42 121 callgsubr
          18 hlineto
          30 -70 callsubr
          350 vlineto
          12 vlineto
          28 14 28 29 36 121 callgsubr
          17 hlineto
          30 13 9 16 hvcurveto
          351 vlineto
          108 -53 48 -69 vhcurveto
          endchar
        </CharString>
        <CharString name="macron">
          -254 608 77 hstem
          6 241 vstem
          28 608 -84 callgsubr
          endchar
        </CharString>
        <CharString name="minus">
          -60 182 83 hstem
          25 399 vstem
          47 182 rmoveto
          355 111 callsubr
          11 85 callgsubr
          vhcurveto
          -355 36 callgsubr
          -11 41 callsubr
        </CharString>
        <CharString name="multiply">
          -61 3.75 455.48 hstem
          34 371.62 vstem
          274 232 rmoveto
          122 163 14 19 -2 8 -13 11 rlinecurve
          -19 15 -11 10 -12 8 -13 -17 rlinecurve
          -120 -163 -123 165 -12 15 -10 -8 -14 -11 rlinecurve
          -15 -13 -16 -14 1 -10 12 -15 rlinecurve
          123 -164 -123 -164 -12 -14 -1 -10 16 -14 rlinecurve
          15 -13 14 -12 10 -7 12 14 rlinecurve
          123 166 120 -164 13 -16 12 8 11 9 rlinecurve
          19 16 13 11 2 7 -14 19 rlinecurve
          endchar
        </CharString>
        <CharString name="n">
          19 81 callgsubr
          113 -2 -92 callgsubr
          endchar
        </CharString>
        <CharString name="nacute">
          19 81 callgsubr
          233 -94 callsubr
          -120 -584 -92 callgsubr
          endchar
        </CharString>
        <CharString name="nacute.loclPLK">
          113 callgsubr
          52 151 108 callsubr
          233 582 -82 callsubr
          -120 -584 -92 callgsubr
          endchar
        </CharString>
        <CharString name="napostrophe">
          113 callgsubr
          6 185 hstemhm
          20 94 -44 104 141 105 hintmask 00000000
          hintmask 10110100
          29 536 -82 callgsubr
          hintmask 11001100
          84 -538 -92 callgsubr
          endchar
        </CharString>
        <CharString name="ncaron">
          113 callgsubr
          50 143 108 callsubr
          237 580 -105 callsubr
          -124 -582 -92 callgsubr
          endchar
        </CharString>
        <CharString name="ncommaaccent">
          112 callgsubr
          444 88 hstemhm
          70 104 21 94 26 105 hintmask 11110100
          113 -2 -92 callgsubr
          hintmask 11111100
          91 -234 -82 callgsubr
          endchar
        </CharString>
        <CharString name="nine">
          -50 16 -21 291 85 248 85 hstem
          34 101 188 103 vstem
          113 -5 rmoveto
          49 264 135 322 164 -76 88 -118 -106 -92 -75 -139 -133 80 -71 87 40 36 11 19 29 hvcurveto
          -30 -108 -72 -89 -120 -48 rrcurveto
          -8 -3 -1 -5 -6 vvcurveto
          -15 13 -47 25 vhcurveto
          121 376 rmoveto
          -52 -47 37 86 84 50 41 44 45 49 -33 -129 -19 -1 -20 -2 -19 hvcurveto
          -13 -21 -30 -15 -35 hhcurveto
          endchar
        </CharString>
        <CharString name="notequal">
          77 callsubr
          -81 hlineto
          67 104 rlineto
          25 15 -4 14 -35 hhcurveto
          -12 hlineto
          -21 -9 -9 -14 -9 hvcurveto
          -77 -120 rlineto
          -166 39 callgsubr
          75 hlineto
          -71 -111 rlineto
          -22 -13 3 -13 37 hhcurveto
          10 hlineto
          22 7 7 16 10 hvcurveto
          79 123 rlineto
          173 58 callsubr
        </CharString>
        <CharString name="ntilde">
          113 callgsubr
          58 49 callgsubr
          115 callsubr
          hintmask 11011100
          116 589 -76 callsubr
          7 -594 -92 callgsubr
          endchar
        </CharString>
        <CharString name="numbersign">
          5 19 -21 194 87 136 87 hstem
          19 475 vstem
          113 -2 rmoveto
          10 hlineto
          28 11 8 16 2 hvcurveto
          25 170 rlineto
          92 hlineto
          -17 -120 -6 -46 -6 vvcurveto
          -15 11 -7 22 vhcurveto
          11 hlineto
          27 12 8 16 2 hvcurveto
          24 170 rlineto
          78 124 callsubr
          -65 hlineto
          19 136 rlineto
          72 124 callsubr
          -59 hlineto
          22 161 rlineto
          15 2 -12 8 -23 hhcurveto
          -12 hlineto
          -28 -11 -8 -16 -2 hvcurveto
          -23 -160 rlineto
          -93 hlineto
          23 161 rlineto
          15 2 -11 8 -24 hhcurveto
          -10 hlineto
          -29 -10 -8 -16 -3 hvcurveto
          -23 -160 103 callgsubr
          63 hlineto
          -18 -136 103 callgsubr
          61 hlineto
          -16 -115 -8 -52 -6 vvcurveto
          -14 11 -7 23 vhcurveto
          89 281 rmoveto
          19 136 rlineto
          93 hlineto
          -19 -136 rlineto
          endchar
        </CharString>
        <CharString name="o">
          1 callgsubr
          34 callgsubr
          239 -7 -89 callsubr
        </CharString>
        <CharString name="oacute">
          1 callgsubr
          hstem
          43 107 178 106 14 callgsubr
          10 -589 -89 callsubr
        </CharString>
        <CharString name="oacute.loclPLK">
          1 callgsubr
          52 151 34 callgsubr
          229 582 -82 callsubr
          10 -589 -89 callsubr
        </CharString>
        <CharString name="obreve">
          1 callgsubr
          52 73 34 callgsubr
          239 -83 callsubr
          -589 vmoveto
          -98 callsubr
          endchar
        </CharString>
        <CharString name="ocircumflex">
          -32 101 callsubr
          145 575 -107 callgsubr
          94 -582 -89 callsubr
        </CharString>
        <CharString name="odieresis">
          1 callgsubr
          69 103 hstemhm
          43 107 -22 88 48 88 -24 106 hintmask 00000000
          hintmask 11101100
          171 599 -99 callgsubr
          hintmask 11110010
          -69 -606 -89 callsubr
        </CharString>
        <CharString name="oe">
          212 12 callgsubr
          hstem
          43 107 160 107 169 103 vstem
          636 117 rmoveto
          -55 callgsubr
          232 hlineto
          13 26 33 13 170 -57 94 -122 -60 -48 -19 -40 -33 hvcurveto
          38 -32 -43 21 -55 hhcurveto
          -133 -63 -97 -173 -173 62 -94 134 56 44 20 37 31 hvcurveto
          -38 35 51 -19 68 hhcurveto
          -36 callgsubr
          -128 330 rmoveto
          53 25 -48 -102 hvcurveto
          -169 hlineto
          105 5 30 45 56 hhcurveto
          -269 -369 rmoveto
          -63 -26 56 127 128 26 56 63 42 27 -23 -51 14 hvcurveto
          -8 -32 -4 -38 -43 vvcurveto
          -41 4 -36 7 -31 vhcurveto
          -49 -14 -27 -23 -41 hhcurveto
          endchar
        </CharString>
        <CharString name="ogonek">
          -253 -183 65 hstem
          43 63 vstem
          136 -183 rmoveto
          23 22 5 12 19 hvcurveto
          9 6 5 10 12 vvcurveto
          65 callsubr
          43 callgsubr
          -45 16 rlineto
          -32 -40 -9 -47 -26 vvcurveto
          -26 9 -64 84 vhcurveto
          endchar
        </CharString>
        <CharString name="ograve">
          1 callgsubr
          34 callgsubr
          260 582 -100 callgsubr
          -21 -589 -89 callsubr
        </CharString>
        <CharString name="ohorn">
          27 callgsubr
          239 -7 -64 callsubr
        </CharString>
        <CharString name="ohungarumlaut">
          1 callgsubr
          52 151 34 callgsubr
          146 582 -83 callgsubr
          -45 -589 -89 callsubr
        </CharString>
        <CharString name="omacron">
          1 callgsubr
          78 77 34 callgsubr
          143 608 -84 callgsubr
          96 -615 -89 callsubr
        </CharString>
        <CharString name="one">
          -50 0 85 618 -20 hstem
          188 103 vstem
          63 hmoveto
          332 hlineto
          7 callgsubr
          -104 596 hlineto
          12 -19 10 -15 vhcurveto
          -208 -44 rlineto
          -13 -3 -7 -7 -12 vvcurveto
          -21 6 -39 18 vhcurveto
          135 21 rlineto
          -513 -125 vlineto
          -48 callgsubr
          endchar
        </CharString>
        <CharString name="oneeighth">
          119 -4 50 -26 -21 368 50 285 109 callgsubr
          189 60 -48 58 92 58 -50 60 hintmask 1010111001000000
          -58 callgsubr
          hintmask 0111011001000000
          -20 44 callgsubr
          299 665 rlineto
          1 -33 callsubr
          129 callsubr
          hintmask 1010111001000000
          360 -3 rmoveto
          71 44 48 72 60 -29 28 -33 18 hvcurveto
          hintmask 1010110110000000
          28 16 24 28 50 vvcurveto
          67 -47 34 -57 -60 -44 -38 -67 -48 21 -26 25 -18 vhcurveto
          hintmask 1010111001000000
          -31 -16 -27 -31 -59 vvcurveto
          -75 46 -43 69 vhcurveto
          hintmask 1010110110000000
          9 251 rmoveto
          -29 14 -25 16 38 vvcurveto
          35 21 17 25 25 21 -17 -36 -31 -15 -21 -23 -15 vhcurveto
          hintmask 1010111001000000
          -9 -201 rmoveto
          -30 -25 22 49 40 16 22 25 16 hvcurveto
          35 -17 34 -15 -49 vvcurveto
          -40 -23 -28 -32 vhcurveto
          endchar
        </CharString>
        <CharString name="onehalf">
          132 0 49 310 50 293 109 callgsubr
          364 61 hintmask 11011100
          -58 callgsubr
          134 callsubr
          hintmask 11101100
          299 665 rlineto
          1 -33 callsubr
          hintmask 11011100
          129 callsubr
          268 1 -50 callsubr
          endchar
        </CharString>
        <CharString name="onequarter">
          77 19 -21 22 -21 93 49 561 109 callgsubr
          271 59 hintmask 01101110
          -58 callgsubr
          134 callsubr
          hintmask 01110110
          299 665 rlineto
          1 -33 callsubr
          hintmask 01101110
          129 callsubr
          hintmask 10101110
          350 -21 callsubr
        </CharString>
        <CharString name="ordfeminine">
          -228 440 54 66 48 39 61 hstem
          26 71 72 71 vstem
          103 440 rmoveto
          32 23 13 16 16 hvcurveto
          -17 3 3 -9 13 hhcurveto
          8 45 2 11 hvcurveto
          4 -6 17 44 vvcurveto
          92 vlineto
          58 -34 37 -75 -49 -48 -16 -16 -9 12 -36 8 vhcurveto
          7 32 16 34 hhcurveto
          32 10 -15 -21 hvcurveto
          -3 vlineto
          -82 -1 -61 -22 -67 vvcurveto
          -48 29 -30 48 vhcurveto
          21 54 rmoveto
          -18 -9 10 17 34 36 4 36 1 hvcurveto
          -42 vlineto
          -15 -11 -16 -9 -18 hhcurveto
          endchar
        </CharString>
        <CharString name="ordmasculine">
          -217 440 62 144 62 hstem
          30 74 85 74 vstem
          147 440 rmoveto
          74 42 47 86 86 -41 49 -75 -75 -42 -49 -86 -85 41 -48 76 hvcurveto
          -1 62 rmoveto
          -29 -13 22 50 50 13 22 29 30 13 -23 -49 -50 -13 -22 -30 hvcurveto
          endchar
        </CharString>
        <CharString name="oslash">
          1 callgsubr
          34 callgsubr
          394 446 -47 callsubr
        </CharString>
        <CharString name="oslashacute">
          1 callgsubr
          hstem
          43 107 178 106 14 callgsubr
          165 -136 -47 callsubr
        </CharString>
        <CharString name="otilde">
          1 callgsubr
          58 66 -29 66 91 callsubr
          hintmask 11011100
          112 589 -76 callsubr
          137 -599 -89 callsubr
        </CharString>
        <CharString name="p">
          -25 105 callgsubr
          hstem
          71 103 158 107 vstem
          115 -207 rmoveto
          15 97 callgsubr
          66 96 170 164 -61 107 -95 -46 -41 -26 -48 -28 hvcurveto
          31 -6 -2 35 -26 hhcurveto
          -16 -58 -5 -20 hvcurveto
          -10 11 -34 -87 vvcurveto
          -549 101 callgsubr
          -20 hvcurveto
          266 vlineto
          38 22 29 23 30 hhcurveto
          51 26 -65 -119 -120 -28 -59 -57 hvcurveto
          endchar
        </CharString>
        <CharString name="paragraph">
          -43 638 62 hstem
          206 62 78 62 vstem
          232 -172 rmoveto
          11 hlineto
          18 7 8 16 hvcurveto
          786 78 -786 vlineto
          -16 8 -8 18 vhcurveto
          11 hlineto
          18 7 8 16 hvcurveto
          786 28 vlineto
          16 7 8 17 hvcurveto
          11 vlineto
          18 -7 8 -16 vhcurveto
          -205 hlineto
          -111 -91 -98 -142 -130 78 -95 99 -14 hvcurveto
          -369 vlineto
          -16 8 -8 18 vhcurveto
          endchar
        </CharString>
        <CharString name="parenleft">
          -260 -190 -21 hstem
          43 91 vstem
          225 -211 rmoveto
          17 20 20 13 6 -3 7 -5 7 hvcurveto
          -85 114 -35 158 172 vvcurveto
          173 36 158 85 114 vhcurveto
          6 7 1 7 7 vvcurveto
          17 -23 14 -14 -8 -8 -4 -8 -7 vhcurveto
          -101 -110 -58 -179 -196 vvcurveto
          -196 57 -179 102 -109 vhcurveto
          -9 7 8 -4 8 hhcurveto
          endchar
        </CharString>
        <CharString name="parenright">
          -260 -190 -21 hstem
          114 92 vstem
          24 -211 rmoveto
          8 8 4 9 7 hvcurveto
          101 110 58 178 196 vvcurveto
          196 -57 179 -102 110 vhcurveto
          8 -7 -8 4 -8 hhcurveto
          -15 -22 -17 -15 -6 2 -7 5 -7 hvcurveto
          86 -114 34 -158 -173 vvcurveto
          -174 -36 -158 -84 -114 vhcurveto
          -5 -6 -2 -6 -6 vvcurveto
          -14 21 -19 16 vhcurveto
          endchar
        </CharString>
        <CharString name="partialdiff">
          -98 -7 83 256 86 231 88 hstem
          21 102 161 108 vstem
          188 -7 rmoveto
          114 90 94 249 255 -90 146 -133 -74 -47 -32 -31 -16 24 -37 15 hvcurveto
          11 19 28 42 hhcurveto
          64 55 -96 -174 6 hvcurveto
          27 -27 -35 12 -35 hhcurveto
          -89 -77 -86 -140 -140 78 -59 89 hvcurveto
          2 83 rmoveto
          -50 -17 55 61 73 33 67 50 32 21 -15 -29 23 hvcurveto
          -116 -34 -96 -58 vhcurveto
          endchar
        </CharString>
        <CharString name="percent">
          177 -6 64 200 64 56 64 201 64 hstem
          44 76 105 75 87 -43 callsubr
          64 vmoveto
          32 callgsubr
          endchar
        </CharString>
        <CharString name="period">
          -321 -2 123 hstem
          39 110 vstem
          83 -2 rmoveto
          -30 callgsubr
          endchar
        </CharString>
        <CharString name="periodcentered">
          -295 303 114 hstem
          59 109 vstem
          113 303 24 callgsubr
        </CharString>
        <CharString name="perthousand">
          477 -6 64 200 64 56 64 201 64 hstem
          44 76 105 75 87 76 105 76 43 -43 callsubr
          300 hmoveto
          59 70 28 135 136 -70 29 -59 -61 -67 -29 -136 -135 69 -28 59 hvcurveto
          -300 64 rmoveto
          32 callgsubr
          300 hmoveto
          32 callgsubr
          endchar
        </CharString>
        <CharString name="pi">
          -2 19 -21 440 85 hstem
          113 99 102.5 100.5 vstem
          98 -2 rmoveto
          12 hlineto
          24 19 9 17 5 hvcurveto
          28 98 21 190 5 126 rrcurveto
          103 hlineto
          -1 -300 rlineto
          -88 -1 3 -52 44 hhcurveto
          21 hlineto
          28 13 11 15 hvcurveto
          20 -7 37 73 vvcurveto
          284 40 vlineto
          17 8 6 19 2 hvcurveto
          3 21 1 10 7 vvcurveto
          16 -9 6 -17 vhcurveto
          -324 hlineto
          -67 -57 -10 -36 -18 2 -31 24 11 14 9 1 50 hvcurveto
          -5 -128 -23 -173 -28 -108 rrcurveto
          -1 -3 -1 -3 -3 vvcurveto
          -13 16 -9 27 vhcurveto
          endchar
        </CharString>
        <CharString name="plus">
          -60 20 -21 194 78 hstem
          184 80 vstem
          220 -1 rmoveto
          9 hlineto
          25 10 6 16 hvcurveto
          172 129 vlineto
          15 6 10 25 hvcurveto
          7 131 callsubr
          -15 vhcurveto
          -129 172 hlineto
          16 -10 7 -25 vhcurveto
          -9 hlineto
          -25 -11 -7 -16 hvcurveto
          -172 -127 vlineto
          -15 -7 -13 -25 hvcurveto
          -7 vlineto
          -25 7 -8 15 vhcurveto
          127 -172 hlineto
          -16 11 -6 25 vhcurveto
          endchar
        </CharString>
        <CharString name="plusminus">
          -60 0 83 240 78 hstem
          183 81 vstem
          219 129 rmoveto
          9 hlineto
          25 11 11 19 hvcurveto
          164 126 vlineto
          17 6 12 23 hvcurveto
          7 131 callsubr
          -17 vhcurveto
          -126 165 hlineto
          20 -11 10 -25 vhcurveto
          -9 hlineto
          -25 -11 -10 -20 hvcurveto
          -165 -125 vlineto
          -16 -8 -11 -25 hvcurveto
          -7 vlineto
          -23 8 -12 16 vhcurveto
          125 -164 hlineto
          -19 11 -11 25 vhcurveto
          -163 -129 rmoveto
          335 hlineto
          17 8 11 25 hvcurveto
          11 vlineto
          24 -8 12 -17 vhcurveto
          -335 104 callgsubr
        </CharString>
        <CharString name="product">
          91 611 89 hstem
          106 103 182 102 vstem
          150 -104 rmoveto
          13 callsubr
          690 182 -690 vlineto
          -16 12 -9 31 vhcurveto
          16 hlineto
          30 -70 callsubr
          690 71 vlineto
          53 callsubr
          17 85 callgsubr
          vhcurveto
          -527 36 callgsubr
          -17 0 callsubr
          69 -690 hlineto
          -16 13 -9 31 vhcurveto
          endchar
        </CharString>
        <CharString name="q">
          -28 105 callgsubr
          -5 -20 hstemhm
          44 106 158 105 hintmask 11101100
          352 -207 rmoveto
          16 hlineto
          31 14 8 16 hvcurveto
          hintmask 11011100
          683 -57 callsubr
          -28 vhcurveto
          -8 hlineto
          -20 -13 -3 -13 -4 hvcurveto
          hintmask 11101100
          -4 -18 -4 -17 -3 -18 rrcurveto
          48 -28 -43 26 -45 hhcurveto
          -94 -62 -106 -165 -171 65 -95 101 46 29 20 25 24 hvcurveto
          -221 vlineto
          -16 13 -8 30 vhcurveto
          -116 287 rmoveto
          -58 -28 57 121 121 26 64 53 29 28 -22 -37 22 hvcurveto
          -268 vlineto
          -23 -18 -25 -13 -29 hhcurveto
          endchar
        </CharString>
        <CharString name="question">
          -118 -2 123 495 91 hstem
          99 112 55 113 vstem
          147 208 rmoveto
          17 hlineto
          27 9 6 16 3 hvcurveto
          8 53 34 37 42 46 rrcurveto
          45 49 47 50 76 vvcurveto
          96 -76 70 -120 -69 -88 -25 -39 -16 25 -44 16 vhcurveto
          13 35 33 56 hhcurveto
          62 33 -30 -56 -48 -37 -40 -43 -49 hvcurveto
          -48 -55 -26 -57 -48 vvcurveto
          -17 10 -8 25 vhcurveto
          -3 -210 rmoveto
          120 callgsubr
          120 callsubr
          endchar
        </CharString>
        <CharString name="questiondown">
          -118 -184 91 495 123 hstem
          12 113 55 112 vstem
          247 525 rmoveto
          120 callsubr
          120 callgsubr
          -3 -210 rmoveto
          -17 hlineto
          -27 -9 -6 -16 -3 hvcurveto
          -8 -53 -34 -37 -42 -46 rrcurveto
          -45 -49 -47 -50 -76 vvcurveto
          -96 76 -70 120 69 88 25 39 16 -25 44 -16 vhcurveto
          -13 -35 -33 -56 hhcurveto
          -62 -33 30 56 48 37 40 43 49 hvcurveto
          48 55 26 57 48 vvcurveto
          17 -10 8 -25 vhcurveto
          endchar
        </CharString>
        <CharString name="quotedbl">
          -200 702 -20 hstemhm
          36 102 33 101 hintmask 00000000
          hintmask 11100000
          84 470 rmoveto
          5 hlineto
          16 31 callsubr
          2 8 -5 16 hhcurveto
          134 hmoveto
          6 hlineto
          15 8 5 12 3 hvcurveto
          8 63 14 118 9 vvcurveto
          -23 callgsubr
          -33 vhcurveto
          -10 hlineto
          -32 -67 callsubr
          -10 vlineto
          22 -180 rlineto
          -12 2 8 -5 15 hhcurveto
          endchar
        </CharString>
        <CharString name="quotedblbase">
          -161 -119 240 hstem
          68 103 45 103 vstem
          58 -119 -11 callsubr
        </CharString>
        <CharString name="quotedblleft">
          -161 504 240 hstem
          31 103 45 103 vstem
          76 504 rmoveto
          -1 callgsubr
          148 hmoveto
          -1 callgsubr
          endchar
        </CharString>
        <CharString name="quotedblright">
          -161 755 -20 hstem
          74 103 45 103 vstem
          64 515 -11 callsubr
        </CharString>
        <CharString name="quoteleft">
          -299 504 240 hstem
          42 103 vstem
          87 504 rmoveto
          -1 callgsubr
          endchar
        </CharString>
        <CharString name="quoteright">
          -299 755 -20 hstem
          76 103 vstem
          66 515 26 callsubr
          endchar
        </CharString>
        <CharString name="quotesinglbase">
          -299 -119 240 hstem
          75 103 vstem
          65 -119 26 callsubr
          endchar
        </CharString>
        <CharString name="quotesingle">
          -345 702 -20 hstem
          33 102 vstem
          81 470 rmoveto
          6 hlineto
          15 31 callsubr
          3 7 -5 16 hhcurveto
          endchar
        </CharString>
        <CharString name="quotesingle.loclGUA">
          -338 700 -20 hstem
          38 101 vstem
          72 392 rmoveto
          22 1 45 108 166 vvcurveto
          20 -15 13 -28 vhcurveto
          -12 hlineto
          -31 -15 -14 -21 hvcurveto
          -256 vlineto
          -13 21 -4 13 vhcurveto
          endchar
        </CharString>
        <CharString name="r">
          146 callgsubr
          hstem
          75 102 vstem
          121 -2 1 callsubr
        </CharString>
        <CharString name="racute">
          146 callgsubr
          hstem
          75 102 vstem
          164 580 -106 callsubr
          -43 -582 1 callsubr
        </CharString>
        <CharString name="radical">
          -15 -152 965 hstem
          23 481 vstem
          261 -152 rmoveto
          23 hlineto
          23 15 9 15 3 hvcurveto
          179 917 rlineto
          9 vlineto
          9 -9 6 -23 vhcurveto
          -19 hlineto
          -24 -15 -8 -16 -2 hvcurveto
          -130 -723 -5 -23 -7 -45 -1 -14 rlinecurve
          -2 hlineto
          -2 14 -8 36 -11 34 -73 294 rcurveline
          15 -3 -8 7 -10 hhcurveto
          -14 -60 -31 -20 -37 hvcurveto
          -13 -6 -5 -5 -9 vvcurveto
          -5 1 -5 10 -24 vhcurveto
          -12 4 7 -5 8 hhcurveto
          6 9 4 18 33 hvcurveto
          118 -412 rlineto
          -17 4 16 -7 22 hhcurveto
          endchar
        </CharString>
        <CharString name="rcaron">
          146 callgsubr
          48 143 hstem
          75 102 vstem
          168 578 -105 callsubr
          -47 -580 1 callsubr
        </CharString>
        <CharString name="rcommaaccent">
          -172 -238 185 72 -21 434 98 hstemhm
          75 102 -96 94 hintmask 11110000
          121 -2 -69 callsubr
          hintmask 11101000
          -31 -236 -82 callgsubr
          endchar
        </CharString>
        <CharString name="registered">
          83 -6 53 276 53 127 53 101 52 hstem
          9 55 130 62 89 64 119 -4 callsubr
          -77 101 rmoveto
          12 hlineto
          18 7 5 10 hvcurveto
          160 24 vlineto
          31 10 -12 -39 12 hvcurveto
          35 -114 rlineto
          -6 2 9 -4 13 hhcurveto
          15 hlineto
          16 8 4 6 2 0 3 -2 4 hvcurveto
          -37 119 -11 34 -12 24 -14 8 rlinecurve
          3 vlineto
          31 15 23 33 49 vvcurveto
          72 -36 32 -77 vhcurveto
          -84 hlineto
          -12 -6 -6 -13 hvcurveto
          -374 vlineto
          -10 8 -5 17 vhcurveto
          37 228 rmoveto
          127 44 vlineto
          27 18 -20 -42 -35 -19 -30 -23 hvcurveto
          endchar
        </CharString>
        <CharString name="ring">
          -253 560 43 91 44 hstem
          41 43 88 44 vstem
          128 11 callsubr
          endchar
        </CharString>
        <CharString name="s">
          82 callsubr
          hstem
          38 102 83 101 vstem
          164 -9 rmoveto
          -86 callgsubr
          -28 64 -35 73 hvcurveto
          endchar
        </CharString>
        <CharString name="sacute">
          82 callsubr
          hstem
          38 102 83 101 vstem
          169 -94 callsubr
          -5 -591 rmoveto
          -86 callgsubr
          -28 64 -35 73 hvcurveto
          endchar
        </CharString>
        <CharString name="sacute.loclPLK">
          82 callsubr
          52 151 hstem
          38 102 83 101 vstem
          169 582 -82 callsubr
          -5 -591 rmoveto
          -86 callgsubr
          -28 64 -35 73 hvcurveto
          endchar
        </CharString>
        <CharString name="scaron">
          82 callsubr
          50 143 hstem
          38 102 83 101 vstem
          173 580 -105 callsubr
          -9 -589 rmoveto
          -86 callgsubr
          -28 64 -35 73 hvcurveto
          endchar
        </CharString>
        <CharString name="scedilla">
          -156 -211 56 146 88 365 86 hstemhm
          38 102 44 74 -35 101 hintmask 11110100
          324 146 rmoveto
          83 -42 40 -67 32 vhcurveto
          -40 22 -35 22 46 vvcurveto
          35 27 18 34 vhcurveto
          39 25 -23 7 hhcurveto
          13 21 44 18 29 -64 18 -52 -88 -64 -57 -90 -80 42 -37 62 -29 hvcurveto
          49 -25 32 -25 -45 vvcurveto
          -42 -24 -21 -42 vhcurveto
          -50 -31 35 -9 hhcurveto
          -14 -26 -42 -18 hvcurveto
          hintmask 11111000
          -26 57 -33 68 -4 vhcurveto
          -17 -52 -3 -11 -7 -66 callsubr
          15 51 rlineto
          hintmask 11110100
          73 14 49 57 80 vvcurveto
          endchar
        </CharString>
        <CharString name="scircumflex">
          82 callsubr
          45 143 hstem
          38 102 83 101 vstem
          85 575 -107 callgsubr
          79 -584 rmoveto
          -86 callgsubr
          -28 64 -35 73 hvcurveto
          endchar
        </CharString>
        <CharString name="scommaaccent">
          -156 -215 -21 227 88 365 86 hstemhm
          38 102 -11 94 0 101 hintmask 11110100
          164 -9 rmoveto
          -86 callgsubr
          -28 64 -35 73 hvcurveto
          hintmask 11101000
          -26 -227 -82 callgsubr
          endchar
        </CharString>
        <CharString name="section">
          -154 -7 88 539 86 hstemhm
          29 95 -84 103 75 102 -84 94 hintmask 11100100
          168 -7 rmoveto
          hintmask 11101000
          83 69 51 90 46 -19 33 -25 24 hvcurveto
          hintmask 11010100
          33 24 21 37 49 vvcurveto
          86 -54 37 -52 26 vhcurveto
          -39 19 -42 16 41 vvcurveto
          31 22 17 36 vhcurveto
          39 26 -23 7 hhcurveto
          14 20 45 16 30 -67 18 -49 -82 -69 -48 -90 -47 20 -31 25 -23 hvcurveto
          hintmask 11101000
          -34 -24 -22 -39 -49 vvcurveto
          -85 51 -34 48 -24 vhcurveto
          53 -28 37 -13 -41 vvcurveto
          -30 -21 -19 -38 vhcurveto
          -46 -27 30 -8 hhcurveto
          -13 -24 -44 -18 hvcurveto
          hintmask 11100100
          -29 65 -27 62 vhcurveto
          29 291 rmoveto
          -39 16 -34 16 46 vvcurveto
          33 18 16 21 8 vhcurveto
          40 -17 33 -16 -44 vvcurveto
          -34 -18 -17 -21 -7 vhcurveto
          endchar
        </CharString>
        <CharString name="semicolon">
          -321 402 123 hstemhm
          39 110 -101 100 hintmask 11000000
          83 402 rmoveto
          -30 callgsubr
          -38 -521 rmoveto
          hintmask 10100000
          40 callgsubr
          hintmask 11000000
          48 callsubr
          endchar
        </CharString>
        <CharString name="seven">
          -50 19 -21 617 85 hstem
          30 398 vstem
          118 -2 rmoveto
          19 hlineto
          23 17 5 12 5 hvcurveto
          244 611 rlineto
          1 3 1 4 5 vvcurveto
          23 -14 39 -9 vhcurveto
          -352 2 callgsubr
          259 hlineto
          -235 -583 rlineto
          -2 -6 -3 -7 -3 vvcurveto
          -13 15 -5 31 vhcurveto
          endchar
        </CharString>
        <CharString name="six">
          -50 -6 85 248 85 291 -20 hstem
          34 103 188 100 vstem
          228 -6 rmoveto
          107 90 75 138 133 -80 72 -87 -40 -35 -11 -19 -29 hvcurveto
          29 109 73 88 120 48 rrcurveto
          8 3 1 5 6 vvcurveto
          14 -13 48 -24 -50 -264 -136 -321 -164 76 -88 118 vhcurveto
          2 85 rmoveto
          -44 -49 33 129 19 1 20 1 20 hvcurveto
          13 21 31 14 34 hhcurveto
          53 47 -38 -85 -84 -49 -41 -46 hvcurveto
          endchar
        </CharString>
        <CharString name="slash">
          -189 703 -20 hstem
          -15 335 vstem
          15 4 callgsubr
        </CharString>
        <CharString name="space">
          -372 endchar
        </CharString>
        <CharString name="sterling">
          -98 0 85 246 85 207 84 hstem
          97 101 vstem
          39 hmoveto
          329 hlineto
          6 callsubr
          -222 hlineto
          23 17 29 31 117 vvcurveto
          81 104 vlineto
          7 callgsubr
          -104 88 hlineto
          83 28 36 63 vhcurveto
          29 25 -9 6 hhcurveto
          17 11 44 13 30 -64 6 -37 -126 -53 -78 -130 hvcurveto
          -83 -49 vlineto
          -48 callgsubr
          49 -167 hlineto
          -81 -84 9 -42 vvcurveto
          -17 vlineto
          -23 8 -10 18 vhcurveto
          endchar
        </CharString>
        <CharString name="summation">
          -35 -102 98 615 89 hstem
          16 447 vstem
          46 -102 rmoveto
          393 hlineto
          16 8 11 25 hvcurveto
          26 vlineto
          24 -8 12 -16 vhcurveto
          -280 hlineto
          -2 3 162 288 rlineto
          4 9 2 6 0 8 0 7 -2 7 7 flex1
          -152 277 1 3 rlineto
          257 hlineto
          17 7 12 24 hvcurveto
          17 66 callgsubr
          -17 vhcurveto
          -372 hlineto
          -21 -10 -9 -20 hvcurveto
          -12 vlineto
          -14 4 -11 6 -11 vhcurveto
          179 -322 -185 -323 rlineto
          -7 -11 -3 -10 -13 vvcurveto
          -13 vlineto
          -22 10 -11 20 vhcurveto
          endchar
        </CharString>
        <CharString name="t">
          -211 -7 106 callgsubr
          hintmask 01110000
          197 -7 rmoveto
          27 50 7 28 hvcurveto
          hintmask 10110000
          -75 callgsubr
          hintmask 01110000
          -104 62 -28 54 vhcurveto
          endchar
        </CharString>
        <CharString name="tbar">
          -225 -7 85 -64 -21 263 77 105 85 hstemhm
          81 103 hintmask 01111000
          250 256 rmoveto
          18 6 10 23 hvcurveto
          11 vlineto
          23 -6 10 -18 vhcurveto
          -66 105 58 hlineto
          6 callsubr
          -58 102 hlineto
          16 -11 9 -25 vhcurveto
          -16 hlineto
          -24 -13 -9 -16 -1 hvcurveto
          -13 -102 rlineto
          -26 2 callgsubr
          26 -105 -44 hlineto
          -16 -8 -10 -23 hvcurveto
          -11 vlineto
          -23 8 -10 16 vhcurveto
          44 -131 hlineto
          -104 62 -28 54 27 50 7 28 vhcurveto
          hintmask 10111000
          116 callsubr
          10 callgsubr
          123 vlineto
          endchar
        </CharString>
        <CharString name="tcaron">
          -211 -7 85 -64 -21 445 85 229 -20 hstemhm
          81 103 41 98 hintmask 01111100
          248 574 rmoveto
          -15 callsubr
          48 callsubr
          -51 -581 rmoveto
          27 50 7 28 hvcurveto
          hintmask 10111100
          -75 callgsubr
          hintmask 01111100
          -104 62 -28 54 vhcurveto
          endchar
        </CharString>
        <CharString name="thorn">
          -26 105 callgsubr
          223 -20 hstem
          70 104 158 106 vstem
          114 -207 rmoveto
          16 97 callgsubr
          65 96 169 166 -62 106 -93 -43 -38 -22 -41 -28 hvcurveto
          261 47 callsubr
          -12 hlineto
          -32 -16 callsubr
          -911 101 callgsubr
          -19 hvcurveto
          266 vlineto
          38 21 29 23 30 hhcurveto
          52 26 -65 -119 -120 -28 -59 -58 hvcurveto
          endchar
        </CharString>
        <CharString name="three">
          -50 -7 85 250 84 209 86 hstemhm
          290 104 -82 105 hintmask 11101000
          206 -7 rmoveto
          118 93 73 135 104 -59 61 -64 20 hvcurveto
          4 vlineto
          hintmask 11110000
          54 22 46 45 77 vvcurveto
          108 -74 65 -117 -68 -93 -23 -36 -19 24 -40 14 vhcurveto
          14 28 32 67 hhcurveto
          79 22 -49 -43 -47 -31 -70 -86 hvcurveto
          -33 hlineto
          -16 -7 -10 -37 callgsubr
          16 vhcurveto
          39 hlineto
          hintmask 11101000
          82 51 -32 -90 -98 -68 -30 -56 hvcurveto
          -72 -40 37 -16 hhcurveto
          -14 -25 -38 -19 -37 98 -28 87 hvcurveto
          endchar
        </CharString>
        <CharString name="threequarters">
          118 19 -21 22 -21 93 49 150 49 146 49 122 50 -5 -20 hstemhm
          179 61 -48 61 231 59 hintmask 0111110011000000
          130 291 28 callgsubr
          hintmask 0111110101000000
          -38 callgsubr
          hintmask 0111110011000000
          -19 callsubr
          28 -292 rmoveto
          14 hlineto
          14 11 5 14 6 hvcurveto
          hintmask 0111101011000000
          299 665 rlineto
          2 -33 callsubr
          hintmask 0111110011000000
          129 callsubr
          hintmask 1011110011000000
          348 -21 callsubr
        </CharString>
        <CharString name="tilde">
          -217 588 49 callgsubr
          -1 303 hintmask 01100000
          23 3 callgsubr
          hintmask 10100000
          -102 callgsubr
          hintmask 01100000
          -90 callgsubr
          endchar
        </CharString>
        <CharString name="tildecomb">
          -509 588 49 callgsubr
          -149 303 hintmask 01100000
          -125 3 callgsubr
          hintmask 10100000
          -102 callgsubr
          hintmask 01100000
          -90 callgsubr
          endchar
        </CharString>
        <CharString name="trademark">
          108 648 52 -52 53 hstemhm
          108 62 108 60 193 60 hintmask 10111000
          303 305 rmoveto
          10 hlineto
          18 7 5 9 hvcurveto
          251 5 vlineto
          69 -165 rlineto
          -6 3 5 -2 7 hhcurveto
          16 hlineto
          7 5 2 6 2 hvcurveto
          69 163 rlineto
          5 -249 hlineto
          -9 7 -5 18 vhcurveto
          10 hlineto
          17 8 5 9 hvcurveto
          hintmask 01111000
          368 vlineto
          9 -8 5 -17 vhcurveto
          -21 hlineto
          -12 -10 -3 -8 -3 hvcurveto
          -74 -176 -12 -32 -13 34 -71 174 rlineto
          8 -3 -10 3 -12 hhcurveto
          -22 hlineto
          -18 -7 -5 -9 hvcurveto
          -368 vlineto
          hintmask 10111000
          -9 7 -5 18 vhcurveto
          -171 hmoveto
          13 hlineto
          17 8 5 9 hvcurveto
          329 74 vlineto
          9 4 6 14 hvcurveto
          12 vlineto
          14 -4 6 -9 vhcurveto
          -211 hlineto
          -9 -4 -6 -14 hvcurveto
          -12 vlineto
          -14 4 -6 9 vhcurveto
          75 -329 hlineto
          -9 7 -5 17 vhcurveto
          endchar
        </CharString>
        <CharString name="two">
          -50 0 84 537 86 hstem
          311 105 vstem
          46 hmoveto
          350 hlineto
          16 7 11 25 hvcurveto
          13 vlineto
          25 -7 10 -16 vhcurveto
          -241 hlineto
          146 217 rlineto
          92 121 23 44 69 vvcurveto
          105 -78 67 -120 -77 -102 -35 -45 -18 23 -38 17 vhcurveto
          16 36 50 78 hhcurveto
          62 40 -33 -59 -39 -12 -28 -42 -60 hvcurveto
          -230 -329 rlineto
          -2 -3 -1 -6 -7 vvcurveto
          -22 9 -35 13 vhcurveto
          endchar
        </CharString>
        <CharString name="u">
          12 callsubr
          56 callsubr
          hintmask 00000000
          hintmask 10111000
          188 -8 18 callsubr
          hintmask 01111000
          -81 callsubr
          hintmask 10111000
          -94 callgsubr
          vhcurveto
          endchar
        </CharString>
        <CharString name="uacute">
          12 callsubr
          56 callsubr
          hintmask 01111000
          -33 callgsubr
          hintmask 10111000
          -41 -590 18 callsubr
          hintmask 01111000
          -81 callsubr
          hintmask 10111000
          -94 callgsubr
          vhcurveto
          endchar
        </CharString>
        <CharString name="ubreve">
          12 callsubr
          78 73 56 callsubr
          hintmask 01111100
          239 -83 callsubr
          hintmask 10111100
          -51 -590 18 callsubr
          hintmask 01111100
          -81 callsubr
          hintmask 10111100
          -94 callgsubr
          vhcurveto
          endchar
        </CharString>
        <CharString name="ucircumflex">
          12 callsubr
          71 143 56 callsubr
          hintmask 01111100
          145 575 -107 callgsubr
          hintmask 10111100
          43 -583 18 callsubr
          hintmask 01111100
          -81 callsubr
          hintmask 10111100
          -94 callgsubr
          vhcurveto
          endchar
        </CharString>
        <CharString name="udieresis">
          12 callsubr
          95 103 hstemhm
          62 104 -38 88 48 88 -44 104 hintmask 00000000
          hintmask 01110110
          171 599 -99 callgsubr
          hintmask 10111001
          -120 -607 18 callsubr
          hintmask 01111001
          -81 callsubr
          hintmask 10111001
          -94 callgsubr
          vhcurveto
          endchar
        </CharString>
        <CharString name="ugrave">
          12 callsubr
          56 callsubr
          hintmask 01111000
          260 582 -100 callgsubr
          hintmask 10111000
          -72 -590 18 callsubr
          hintmask 01111000
          -81 callsubr
          hintmask 10111000
          -94 callgsubr
          vhcurveto
          endchar
        </CharString>
        <CharString name="uhorn">
          37 callgsubr
          hintmask 00000000
          hintmask 01111100
          489 579 rmoveto
          -75 callsubr
          -9 -17 -34 vhcurveto
          hintmask 10111000
          -71 callsubr
          hintmask 01111000
          -20 callgsubr
          hintmask 01111100
          78 callgsubr
        </CharString>
        <CharString name="uhungarumlaut">
          12 callsubr
          78 151 56 callsubr
          hintmask 01111100
          146 582 -83 callgsubr
          hintmask 10111100
          -96 -590 18 callsubr
          hintmask 01111100
          -81 callsubr
          hintmask 10111100
          -94 callgsubr
          vhcurveto
          endchar
        </CharString>
        <CharString name="umacron">
          12 callsubr
          104 77 56 callsubr
          hintmask 01111100
          143 608 -84 callgsubr
          hintmask 10111100
          45 -616 18 callsubr
          hintmask 01111100
          -81 callsubr
          hintmask 10111100
          -94 callgsubr
          vhcurveto
          endchar
        </CharString>
        <CharString name="underscore">
          -82 -139 65 hstem
          -17 461 vstem
          5 -139 rmoveto
          417 hlineto
          15 7 8 20 hvcurveto
          8 vlineto
          20 -7 9 -15 vhcurveto
          -417 hlineto
          -15 -7 -9 -20 hvcurveto
          -8 vlineto
          -20 7 -8 15 vhcurveto
          endchar
        </CharString>
        <CharString name="uni00A0">
          -372 endchar
        </CharString>
        <CharString name="uni00AD">
          -253 225 80 hstem
          26 203 vstem
          48 225 rmoveto
          159 60 callgsubr
          -159 22 callgsubr
        </CharString>
        <CharString name="uni00B2">
          -229 297 49 310 50 hstem
          188 61 vstem
          35 297 -50 callsubr
          endchar
        </CharString>
        <CharString name="uni00B3">
          -229 291 49 146 49 122 50 hstemhm
          179 61 -48 61 hintmask 11101000
          130 291 28 callgsubr
          hintmask 11110000
          -38 callgsubr
          hintmask 11101000
          -19 callsubr
          endchar
        </CharString>
        <CharString name="uni00B5">
          -56 -36 callsubr
        </CharString>
        <CharString name="uni00B9">
          -229 703 -20 hstem
          115 61 vstem
          -58 callgsubr
          endchar
        </CharString>
        <CharString name="uni0162">
          -55 -211 56 175 -21 609 92 hstemhm
          173 109 -48 74 hintmask 11110000
          416 700 rmoveto
          -378 hlineto
          -15 -6 -11 -25 hvcurveto
          -20 vlineto
          -25 6 -11 15 vhcurveto
          135 -585 hlineto
          -14 9 -8 23 -2 vhcurveto
          hintmask 11101000
          -20 -60 -3 -10 -8 -66 callsubr
          hintmask 11110000
          16 55 rlineto
          21 2 8 9 13 vvcurveto
          585 134 vlineto
          6 callgsubr
          endchar
        </CharString>
        <CharString name="uni0163">
          -211 -211 56 169 -21 26 -21 440 85 hstemhm
          81 103 5 74 hintmask 00000000
          hintmask 11011000
          274 28 rmoveto
          -75 callgsubr
          hintmask 10111000
          -80 37 -35 41 -12 vhcurveto
          hintmask 11010100
          -19 -59 -3 -10 -8 -66 callsubr
          hintmask 11011000
          14 49 rlineto
          28 2 40 8 25 vvcurveto
          endchar
        </CharString>
        <CharString name="uni018F">
          51 -7 86 208 80 253 87 hstem
          43 104 236 109 vstem
          257 -7 rmoveto
          150 85 97 247 260 -80 110 -157 -98 -106 -42 -35 -15 23 -43 15 hvcurveto
          16 55 48 86 hhcurveto
          85 48 -57 -196 4 hvcurveto
          -302 hlineto
          -11 -27 -33 -13 -220 61 -108 153 hvcurveto
          86 vmoveto
          -79 -31 63 145 hvcurveto
          237 hlineto
          -156 -10 -42 -52 -75 hhcurveto
          endchar
        </CharString>
        <CharString name="uni01C4">
          575 94 callgsubr
          828 757 -105 callsubr
          -726 -757 rmoveto
          -52 callgsubr
          534 -46 callsubr
          -454 -25 callgsubr
          endchar
        </CharString>
        <CharString name="uni01C5">
          473 0 85 -85 92 346 85 57 143 -115 92 hstemhm
          84 callgsubr
          hintmask 00000000
          hintmask 10110110
          751 580 -105 callsubr
          -649 -580 rmoveto
          174 hlineto
          156 96 98 252 hvcurveto
          hintmask 10101110
          251 -96 99 -156 vhcurveto
          -174 hlineto
          -21 -9 -10 -23 hvcurveto
          -634 vlineto
          hintmask 10110110
          19 callgsubr
          hintmask 01101110
          80 -25 callgsubr
          hintmask 10101110
          357 -92 rmoveto
          -95 callsubr
          endchar
        </CharString>
        <CharString name="uni01C6">
          377 -7 87 -80 85 353 85 -80 87 223 82 callgsubr
          hintmask 00000000
          hintmask 10101110
          33 callgsubr
          hintmask 01011110
          -58 callsubr
          hintmask 10101110
          112 callsubr
          481 587 -105 callsubr
          hintmask 01101110
          -146 -580 rmoveto
          -95 callsubr
          hintmask 10011110
          -306 80 -28 callgsubr
          endchar
        </CharString>
        <CharString name="uni01C7">
          136 -164 94 70 92 610 -20 76 callsubr
          293 111 vstem
          102 hmoveto
          238 hlineto
          16 7 -72 callsubr
          -7 11 -16 vhcurveto
          -159 585 hlineto
          -32 callgsubr
          305 -164 rmoveto
          126 52 84 129 hvcurveto
          628 vlineto
          16 -14 9 -31 vhcurveto
          -22 hlineto
          -30 -16 callsubr
          -630 vlineto
          -82 -23 -35 -58 vhcurveto
          -26 -20 8 -8 hhcurveto
          -16 -13 -46 -20 -23 56 -13 41 hvcurveto
          endchar
        </CharString>
        <CharString name="uni01C8">
          148 -212 85 127 92 433 -20 94 103 76 callsubr
          303 102 vstem
          102 hmoveto
          -62 callsubr
          434 -13 callgsubr
        </CharString>
        <CharString name="uni01C9">
          10 -212 85 120 85 -64 -21 532 -20 94 103 51 -20 hstemhm
          69 102 175 102 hintmask 10111111
          74 callsubr
          hintmask 11011111
          -61 callsubr
          hintmask 10111111
          116 callgsubr
          217 606 -11 callgsubr
        </CharString>
        <CharString name="uni01CA">
          436 -7 94 -68 -7 callgsubr
          hstemhm
          113 callsubr
          240 110 hintmask 00000000
          hintmask 01111100
          -64 callgsubr
          hintmask 10111100
          585 -5 -59 callsubr
        </CharString>
        <CharString name="uni01CB">
          330 -212 85 146 -21 507 20 74 103 138 callgsubr
          143 102 -32 callsubr
          607 601 -11 callgsubr
        </CharString>
        <CharString name="uni01CC">
          222 -212 85 146 100 callsubr
          -5 -20 94 103 hstemhm
          115 callsubr
          138 102 hintmask 11011111
          610 -80 callsubr
          -497 -601 rmoveto
          18 hlineto
          30 -70 callsubr
          hintmask 11101111
          -28 callsubr
          -340 vlineto
          -16 14 -3 callgsubr
          355 -68 callsubr
          hintmask 11011111
          -16 13 -9 30 vhcurveto
          431 -210 -84 callsubr
        </CharString>
        <CharString name="uni01EA">
          90 -179 65 107 42 callgsubr
          132 callgsubr
          135 63 86 111 vstem
          553 351 rmoveto
          245 -90 111 -164 7 callsubr
          vhcurveto
          15 hlineto
          -16 -31 -5 -31 -20 -49 callsubr
          -9 callsubr
          19 6 28 14 27 hvcurveto
          115 32 62 113 203 vvcurveto
          -395 hmoveto
          189 49 74 93 92 50 -74 -189 -188 -50 -78 -92 -93 -49 78 188 vhcurveto
          endchar
        </CharString>
        <CharString name="uni01EB">
          -32 -187 65 115 50 callsubr
          hstem
          43 107 52 63 63 106 vstem
          350 -116 21 callgsubr
          20 7 29 15 28 hvcurveto
          97 21 50 91 150 vvcurveto
          72 callsubr
          -168 64 -93 121 -6 vhcurveto
          -20 -34 -6 -35 -21 -49 callsubr
          -200 377 rmoveto
          128 26 56 62 62 28 -56 -128 -127 -28 -56 -62 -62 -26 56 127 vhcurveto
          endchar
        </CharString>
        <CharString name="uni01F1">
          575 114 callsubr
          106 callsubr
          102 hmoveto
          -52 callgsubr
          534 -46 callsubr
          -454 -25 callgsubr
          endchar
        </CharString>
</ttFont>
